<svg width="48" height="48" viewBox="0 0 48 48" fill="none" xmlns="http://www.w3.org/2000/svg">
<path fill-rule="evenodd" clip-rule="evenodd" d="M13.1986 22.4823C14.1631 21.5176 15.727 21.5174 16.6917 22.482L21.3788 27.1686C22.4289 28.2185 23.0188 29.6427 23.0188 31.1277V37.2724H12.7434V34.783L8.79199 29.9932C7.76994 28.7543 7.21094 27.1983 7.21094 25.5922V16.0305C7.21094 14.6664 8.31677 13.5605 9.68092 13.5605C11.0451 13.5605 12.1509 14.6664 12.151 16.0305V20.7707C12.0299 20.8689 11.9129 20.9735 11.8012 21.0852C10.0681 22.8187 10.0682 25.6392 11.8015 27.3724L15.4181 30.9889C15.804 31.3747 16.4295 31.3747 16.8154 30.9889C17.2011 30.6032 17.2011 29.9778 16.8157 29.592L13.1988 25.9751C12.2343 25.0105 12.2342 23.4469 13.1986 22.4823ZM35.8646 16.0305C35.8646 14.6664 36.9704 13.5605 38.3346 13.5605C39.6987 13.5605 40.8045 14.6664 40.8045 16.0305V25.5922C40.8045 27.1983 40.2455 28.7543 39.2235 29.9932L35.2721 34.783V37.2724H24.9967V31.1277C24.9967 29.6426 25.5866 28.2185 26.6367 27.1686L31.3239 22.482C32.2886 21.5174 33.8525 21.5176 34.817 22.4823C35.7813 23.4469 35.7813 25.0106 34.8168 25.9751L31.1999 29.592C30.8144 29.9778 30.8145 30.6032 31.2002 30.9889C31.586 31.3747 32.2116 31.3747 32.5974 30.9889L36.214 27.3724C37.9473 25.6392 37.9475 22.8187 36.2143 21.0852C36.1026 20.9735 35.9856 20.8689 35.8646 20.7707V16.0305ZM11.7556 40.236V42.212C11.7556 42.7577 12.1979 43.2 12.7436 43.2H23.0187V39.248H12.7436C12.1979 39.248 11.7556 39.6904 11.7556 40.236ZM24.9967 39.248H35.2718C35.8174 39.248 36.2598 39.6904 36.2598 40.236V42.212C36.2598 42.7577 35.8174 43.2 35.2718 43.2H24.9967V39.248Z" fill="url(#paint0_linear_1632_681)"/>
<path d="M28.2007 13.3223C27.1065 14.3669 25.6251 15.0092 23.9965 15.0092C22.3679 15.0092 20.8865 14.3669 19.7923 13.3223C17.7616 14.6824 16.4219 16.9975 16.4219 19.6199C16.4219 20.1655 16.8642 20.6079 17.4099 20.6079H30.5831C31.1287 20.6079 31.5711 20.1655 31.5711 19.6199C31.5711 16.9975 30.2314 14.6824 28.2007 13.3223Z" fill="#A182ED"/>
<path d="M23.9916 13.0331C26.2652 13.0331 28.1083 11.19 28.1083 8.91644C28.1083 6.64289 26.2652 4.7998 23.9916 4.7998C21.7181 4.7998 19.875 6.64289 19.875 8.91644C19.875 11.19 21.7181 13.0331 23.9916 13.0331Z" fill="#A182ED"/>
<defs>
<linearGradient id="paint0_linear_1632_681" x1="40.8045" y1="13.5605" x2="10.8067" y2="33.8765" gradientUnits="userSpaceOnUse">
<stop stop-color="#FF8950"/>
<stop offset="1" stop-color="#A182ED"/>
</linearGradient>
</defs>
</svg>
