<svg width="46" height="47" viewBox="0 0 46 47" fill="none" xmlns="http://www.w3.org/2000/svg">
<path d="M36.9161 30.5054C37.4305 31.1342 37.7593 31.9344 37.7593 32.8062C37.7593 33.978 37.1733 35.0212 36.3016 35.6929C36.8017 36.2931 37.1162 37.0506 37.1448 37.8937C37.1876 39.9515 35.3155 41.6235 33.272 41.6235H19.9102C18.607 41.6235 17.3752 41.2059 16.3609 40.4651V19.8304C18.2628 17.3369 21.1026 13.0086 22.0538 8.38336C22.4825 6.32549 23.7258 5.8967 24.9119 5.8967C26.7982 5.8967 28.0558 7.56878 27.9272 11.0271C27.7701 15.4144 25.0262 18.8013 25.0262 18.8013H35.2012C36.8875 18.8013 38.4452 19.8731 38.8596 21.5022C39.2598 23.0599 38.631 24.5033 37.5306 25.3321C38.045 25.9609 38.3738 26.7469 38.3738 27.6186C38.3738 28.8048 37.7878 29.848 36.9161 30.5054Z" fill="url(#paint0_linear_1640_823)"/>
<path fill-rule="evenodd" clip-rule="evenodd" d="M11.7099 41.6264H8.38049C7.83899 41.6264 7.40002 41.1874 7.40002 40.6459V19.8275C7.40002 19.286 7.83899 18.847 8.38049 18.847H11.7099C13.1691 18.847 14.3521 20.0299 14.3521 21.4892V38.9842C14.3521 40.4434 13.1691 41.6264 11.7099 41.6264ZM10.9376 39.1742C11.576 39.1742 12.0935 38.6567 12.0935 38.0183C12.0935 37.3799 11.576 36.8623 10.9376 36.8623C10.2992 36.8623 9.78166 37.3799 9.78166 38.0183C9.78166 38.6567 10.2992 39.1742 10.9376 39.1742Z" fill="#A182ED"/>
<defs>
<linearGradient id="paint0_linear_1640_823" x1="38.9808" y1="5.89669" x2="13.2066" y2="15.6476" gradientUnits="userSpaceOnUse">
<stop stop-color="#FF8950"/>
<stop offset="1" stop-color="#A182ED"/>
</linearGradient>
</defs>
</svg>
