<svg width="56" height="56" viewBox="0 0 56 56" fill="none" xmlns="http://www.w3.org/2000/svg">
<path fill-rule="evenodd" clip-rule="evenodd" d="M32.0493 19.2031L36.2668 27.6381C36.4516 28.0077 36.4516 28.4425 36.2668 28.8121L32.0493 37.2471C31.827 37.6918 31.3725 37.9727 30.8754 37.9727H20.6562L24.6493 29.9865C25.2011 28.8835 25.2011 27.5667 24.6496 26.4642L20.6562 18.4775H30.8754C31.3725 18.4775 31.827 18.7584 32.0493 19.2031ZM46.025 19.2031L50.2425 27.6381C50.4273 28.0077 50.4273 28.4425 50.2425 28.8121L46.025 37.2471C45.8027 37.6918 45.3482 37.9727 44.851 37.9727H34.6319L38.625 29.9865C39.1768 28.8835 39.1768 27.5667 38.6253 26.4642L34.6319 18.4775H44.851C45.3482 18.4775 45.8027 18.7584 46.025 19.2031Z" fill="#FCFCFC"/>
<path d="M22.3096 27.6381L18.0921 19.2031C17.8698 18.7584 17.4154 18.4775 16.9182 18.4775H6.89062C6.4358 18.4775 6.01334 18.713 5.77412 19.1C5.53498 19.4869 5.51328 19.9701 5.71672 20.377L9.64077 28.2251L5.71672 36.0732C5.51328 36.48 5.53498 36.9633 5.77412 37.3502C6.01334 37.7372 6.4358 37.9727 6.89062 37.9727H16.9182C17.4154 37.9727 17.8698 37.6918 18.0921 37.2471L22.3096 28.8121C22.4944 28.4425 22.4944 28.0077 22.3096 27.6381Z" fill="#FCFCFC"/>
</svg>
