<svg width="42" height="42" viewBox="0 0 42 42" fill="none" xmlns="http://www.w3.org/2000/svg">
<path d="M31.3047 8.5625C30.761 8.5625 30.3203 9.00324 30.3203 9.54687C30.3203 10.0905 30.761 10.5312 31.3047 10.5312H33.2734C33.8171 10.5312 34.2578 10.0905 34.2578 9.54687C34.2578 9.00324 33.8171 8.5625 33.2734 8.5625H31.3047Z" fill="#A182ED"/>
<path d="M31.1408 6.13385L32.8457 5.14948C33.3165 4.87766 33.4778 4.27562 33.206 3.80482C32.9342 3.33403 32.3321 3.17272 31.8613 3.44454L30.1564 4.42892C29.6856 4.70074 29.5243 5.30278 29.7961 5.77357C30.0679 6.24437 30.67 6.40567 31.1408 6.13385Z" fill="#A182ED"/>
<path d="M30.1564 14.6651L31.8613 15.6495C32.3321 15.9213 32.9342 15.76 33.206 15.2892C33.4778 14.8184 33.3165 14.2164 32.8457 13.9445L31.1408 12.9602C30.67 12.6883 30.0679 12.8497 29.7961 13.3204C29.5243 13.7912 29.6856 14.3933 30.1564 14.6651Z" fill="#A182ED"/>
<path d="M10.3047 10.5312C10.8483 10.5312 11.2891 10.0905 11.2891 9.54687C11.2891 9.00324 10.8483 8.5625 10.3047 8.5625H8.33594C7.7923 8.5625 7.35156 9.00324 7.35156 9.54687C7.35156 10.0905 7.7923 10.5312 8.33594 10.5312H10.3047Z" fill="#A182ED"/>
<path d="M8.75796 5.14948L10.4629 6.13385C10.9337 6.40567 11.5357 6.24437 11.8076 5.77357C12.0794 5.30278 11.9181 4.70074 11.4473 4.42892L9.74234 3.44454C9.27154 3.17272 8.6695 3.33403 8.39768 3.80482C8.12586 4.27562 8.2871 4.87766 8.75796 5.14948Z" fill="#A182ED"/>
<path d="M9.74232 15.6495L11.4473 14.6651C11.9181 14.3933 12.0794 13.7912 11.8075 13.3204C11.5357 12.8497 10.9337 12.6883 10.4629 12.9602L8.75795 13.9445C8.28715 14.2164 8.12585 14.8184 8.39767 15.2892C8.66949 15.76 9.27146 15.9213 9.74232 15.6495Z" fill="#A182ED"/>
<path fill-rule="evenodd" clip-rule="evenodd" d="M16.9445 17.2337C16.9445 16.5411 16.6002 15.8599 15.9999 15.365C14.2543 13.9258 13.2531 11.8052 13.2531 9.54687C13.2531 5.38553 16.6387 2 20.8 2C24.9613 2 28.3469 5.38553 28.3469 9.54687C28.3469 11.8052 27.3457 13.9258 25.6001 15.365C24.9998 15.8599 24.6555 16.5411 24.6555 17.2337V17.4219H21.7844V11.2671L23.4648 9.58671C23.8493 9.20228 23.8493 8.57904 23.4648 8.19461C23.0804 7.81017 22.4571 7.81017 22.0727 8.19461L20.8 9.46727L19.5273 8.19461C19.1429 7.81017 18.5196 7.81017 18.1352 8.19461C17.7508 8.57904 17.7508 9.20228 18.1352 9.58671L19.8156 11.2671V17.4219H16.9445V17.2337ZM16.9445 20.0469C16.9445 21.3154 17.9729 22.3438 19.2414 22.3438H22.3586C23.6271 22.3438 24.6555 21.3154 24.6555 20.0469V19.3906H16.9445V20.0469ZM34.1562 27.9023C34.1562 30.1676 32.3199 32.0039 30.0547 32.0039C27.7895 32.0039 25.9531 30.1676 25.9531 27.9023C25.9531 25.6371 27.7895 23.8008 30.0547 23.8008C32.3199 23.8008 34.1562 25.6371 34.1562 27.9023ZM30.0547 33.9728C31.6773 33.9728 33.1533 33.3328 34.2435 32.292C36.2668 33.6471 37.6016 35.9538 37.6016 38.5665C37.6016 39.1102 37.1608 39.5509 36.6172 39.5509H23.4922C22.9485 39.5509 22.5078 39.1102 22.5078 38.5665C22.5078 35.9538 23.8426 33.6471 25.8659 32.292C26.9561 33.3328 28.432 33.9728 30.0547 33.9728ZM15.7357 32.292C14.6455 33.3328 13.1695 33.9728 11.5469 33.9728C9.92423 33.9728 8.44826 33.3328 7.3581 32.292C5.33481 33.6471 4 35.9538 4 38.5665C4 39.1102 4.44074 39.5509 4.98437 39.5509H18.1094C18.653 39.5509 19.0937 39.1102 19.0937 38.5665C19.0937 35.9538 17.7589 33.6471 15.7357 32.292ZM15.6484 27.9023C15.6484 30.1676 13.8121 32.0039 11.5469 32.0039C9.28164 32.0039 7.44531 30.1676 7.44531 27.9023C7.44531 25.6371 9.28164 23.8008 11.5469 23.8008C13.8121 23.8008 15.6484 25.6371 15.6484 27.9023Z" fill="url(#paint0_linear_1632_671)"/>
<defs>
<linearGradient id="paint0_linear_1632_671" x1="37.6" y1="2" x2="5.34973" y2="21.2706" gradientUnits="userSpaceOnUse">
<stop stop-color="#FF8950"/>
<stop offset="1" stop-color="#A182ED"/>
</linearGradient>
</defs>
</svg>
