<svg width="50" height="50" viewBox="0 0 50 50" fill="none" xmlns="http://www.w3.org/2000/svg">
<path d="M40.1308 32.7049C40.6996 33.4001 41.063 34.2848 41.063 35.2485C41.063 36.5441 40.4152 37.6974 39.4515 38.44C40.0044 39.1035 40.352 39.9409 40.3837 40.873C40.431 43.148 38.3614 44.9965 36.1021 44.9965H21.3301C19.8894 44.9965 18.5276 44.5347 17.4062 43.7158V20.9033C19.5089 18.1466 22.6484 13.3615 23.7 8.24813C24.1739 5.97307 25.5484 5.49902 26.8598 5.49902C28.9451 5.49902 30.3355 7.34757 30.1933 11.1709C30.0195 16.0212 26.9861 19.7655 26.9861 19.7655H38.2349C40.0992 19.7655 41.8213 20.9505 42.2795 22.7516C42.7219 24.4736 42.0267 26.0693 40.8102 26.9857C41.3789 27.6809 41.7424 28.5498 41.7424 29.5135C41.7424 30.8248 41.0946 31.9781 40.1308 32.7049Z" fill="#FCFCFC"/>
<path fill-rule="evenodd" clip-rule="evenodd" d="M12.2491 45.0009H8.56832C7.96967 45.0009 7.48437 44.5156 7.48438 43.917V20.9013C7.48438 20.3027 7.96967 19.8174 8.56832 19.8174H12.2491C13.8624 19.8174 15.1702 21.1252 15.1702 22.7384V42.0799C15.1702 43.6931 13.8624 45.0009 12.2491 45.0009ZM11.402 42.2901C12.1078 42.2901 12.68 41.718 12.68 41.0122C12.68 40.3064 12.1078 39.7343 11.402 39.7343C10.6962 39.7343 10.1241 40.3064 10.1241 41.0122C10.1241 41.718 10.6962 42.2901 11.402 42.2901Z" fill="#FCFCFC"/>
</svg>
