<svg width="53" height="53" viewBox="0 0 53 53" fill="none" xmlns="http://www.w3.org/2000/svg">
<path fill-rule="evenodd" clip-rule="evenodd" d="M39.387 18.03C39.387 16.5611 40.5778 15.3703 42.0467 15.3703C43.5157 15.3703 44.7065 16.5611 44.7065 18.03V28.3263C44.7065 30.0558 44.1045 31.7313 43.004 33.0655L38.749 38.2233V40.9039H27.6841V34.287C27.6841 32.6879 28.3194 31.1544 29.4502 30.0238L34.4975 24.9772C35.5363 23.9385 37.2203 23.9387 38.2589 24.9774C39.2973 26.0162 39.2973 27.7 38.2587 28.7386L34.3639 32.6334C33.9488 33.0489 33.9489 33.7223 34.3643 34.1376C34.7798 34.5531 35.4533 34.5531 35.8688 34.1376L39.7633 30.2432C41.6298 28.3769 41.6299 25.3397 39.7636 23.4731C39.6433 23.3527 39.5174 23.2402 39.387 23.1344V18.03ZM14.9796 24.9775C16.0182 23.9387 17.7023 23.9385 18.7411 24.9772L23.7883 30.0238C24.9191 31.1544 25.5543 32.688 25.5543 34.2871V40.9039H14.4895V38.2233L10.2345 33.0655C9.13394 31.7314 8.53198 30.0558 8.53198 28.3263V18.0301C8.53198 16.5611 9.72277 15.3703 11.1917 15.3703C12.6607 15.3703 13.8515 16.5611 13.8515 18.0301V23.1344C13.7212 23.2402 13.5952 23.3527 13.4749 23.4731C11.6086 25.3397 11.6088 28.3769 13.4753 30.2433L17.3697 34.1376C17.7852 34.5531 18.4588 34.5531 18.8743 34.1376C19.2896 33.7223 19.2897 33.0489 18.8746 32.6334L14.9798 28.7386C13.9413 27.7 13.9411 26.0162 14.9796 24.9775ZM13.4258 44.0952V46.223C13.4258 46.8105 13.9021 47.2869 14.4897 47.2869H25.5542V43.0313H14.4897C13.9021 43.0313 13.4258 43.5076 13.4258 44.0952ZM27.6841 43.0313H38.7487C39.3362 43.0313 39.8126 43.5076 39.8126 44.0952V46.223C39.8126 46.8105 39.3362 47.2869 38.7487 47.2869H27.6841V43.0313Z" fill="url(#paint0_linear_1640_810)"/>
<path d="M31.1331 15.1137C29.9549 16.2386 28.3597 16.9303 26.6059 16.9303C24.8522 16.9303 23.257 16.2386 22.0788 15.1137C19.892 16.5783 18.4494 19.0713 18.4494 21.8951C18.4494 22.4827 18.9257 22.959 19.5133 22.959H33.6986C34.2861 22.959 34.7625 22.4827 34.7625 21.8951C34.7625 19.0713 33.3198 16.5783 31.1331 15.1137Z" fill="#A182ED"/>
<path d="M26.6031 14.8025C29.0513 14.8025 31.036 12.8178 31.036 10.3696C31.036 7.92133 29.0513 5.93665 26.6031 5.93665C24.1548 5.93665 22.1702 7.92133 22.1702 10.3696C22.1702 12.8178 24.1548 14.8025 26.6031 14.8025Z" fill="#A182ED"/>
<defs>
<linearGradient id="paint0_linear_1640_810" x1="44.7065" y1="15.3703" x2="12.404" y2="37.2471" gradientUnits="userSpaceOnUse">
<stop stop-color="#FF8950"/>
<stop offset="1" stop-color="#A182ED"/>
</linearGradient>
</defs>
</svg>
