<svg width="50" height="50" viewBox="0 0 50 50" fill="none" xmlns="http://www.w3.org/2000/svg">
<path d="M42.3594 33.6438C41.267 32.725 40.0733 31.7267 38.9809 30.8224C37.8679 29.8976 36.4486 29.4239 35.0033 29.4949C33.558 29.5659 32.1919 30.1764 31.1749 31.2058C30.9749 31.4316 30.7304 31.6136 30.4568 31.7405C30.1831 31.8674 29.8862 31.9364 29.5847 31.9432C29.2831 31.95 28.9834 31.8944 28.7043 31.78C28.4253 31.6655 28.1728 31.4947 27.9629 31.2782L18.1313 21.2151C17.9233 20.9987 17.7615 20.7424 17.6558 20.4616C17.55 20.1808 17.5024 19.8814 17.5159 19.5816C17.5295 19.2818 17.6038 18.988 17.7345 18.7178C17.8651 18.4477 18.0494 18.2069 18.276 18.0102C19.3325 17.0177 19.9776 15.6644 20.0834 14.2187C20.1893 12.7729 19.7482 11.3401 18.8475 10.2043C17.9541 9.07836 17.0132 7.88003 16.1129 6.7607C15.671 6.21827 15.1155 5.7794 14.4856 5.47508C13.8556 5.17075 13.1665 5.00838 12.467 4.99942C11.7674 4.99045 11.0744 5.13512 10.4369 5.42321C9.79932 5.7113 9.23276 6.13579 8.77716 6.66673L7.9018 7.70118C3.8228 12.4023 3.07499 20.0196 7.56901 24.391C9.95187 27.6888 12.5499 30.8257 15.346 33.7813C18.2352 36.6366 21.3041 39.3044 24.5338 41.7681C26.1821 43.5175 28.3963 44.6272 30.7843 44.9006C32.6431 45.1238 34.5279 44.9664 36.3238 44.4378C38.1198 43.9092 39.7894 43.0205 41.2308 41.826L42.2798 40.9795C42.8236 40.5381 43.2635 39.9823 43.5681 39.3516C43.8727 38.7208 44.0346 38.0307 44.0422 37.3304C44.0498 36.63 43.9029 35.9365 43.6121 35.2993C43.3212 34.6622 42.8935 34.0969 42.3594 33.6438Z" fill="#FCFCFC"/>
<path d="M42.2385 6.59375H26.9811C26.2444 6.59394 25.5379 6.88669 25.017 7.40762C24.4961 7.92856 24.2033 8.63505 24.2031 9.37177V17.6335C24.2042 18.1933 24.3739 18.7397 24.69 19.2017C25.0062 19.6637 25.4541 20.0197 25.9756 20.2234L25.0423 22.4878C24.9747 22.6655 24.9633 22.8598 25.0097 23.0442C25.056 23.2286 25.1579 23.3944 25.3015 23.5191C25.4451 23.6437 25.6235 23.7213 25.8127 23.7413C26.0018 23.7613 26.1925 23.7227 26.359 23.6308L30.7069 21.0915C31.478 20.6429 32.354 20.4058 33.2462 20.4043H42.2385C42.973 20.403 43.677 20.1107 44.1964 19.5913C44.7157 19.072 45.008 18.3679 45.0093 17.6335V9.37177C45.0096 8.63618 44.7179 7.93054 44.1985 7.40972C43.679 6.8889 42.9741 6.59544 42.2385 6.59375ZM27.9867 15.7742C27.9864 15.6791 28.0049 15.5849 28.0411 15.497C28.0774 15.4091 28.1306 15.3292 28.1979 15.2619C28.2651 15.1947 28.345 15.1414 28.4329 15.1052C28.5209 15.0689 28.6151 15.0505 28.7102 15.0508H40.5095C40.7014 15.0508 40.8854 15.127 41.0211 15.2627C41.1567 15.3984 41.233 15.5824 41.233 15.7742C41.233 15.9661 41.1567 16.1501 41.0211 16.2858C40.8854 16.4215 40.7014 16.4977 40.5095 16.4977H28.7102C28.6151 16.498 28.5209 16.4795 28.4329 16.4433C28.345 16.407 28.2651 16.3538 28.1979 16.2865C28.1306 16.2193 28.0774 16.1394 28.0411 16.0515C28.0049 15.9636 27.9864 15.8693 27.9867 15.7742ZM40.5095 11.9545H28.7102C28.5206 11.951 28.34 11.8732 28.2072 11.7379C28.0744 11.6026 28 11.4206 28 11.231C28 11.0414 28.0744 10.8594 28.2072 10.7241C28.34 10.5888 28.5207 10.5111 28.7102 10.5076H40.5095C40.6994 10.5105 40.8806 10.588 41.0139 10.7234C41.1471 10.8587 41.2218 11.0411 41.2218 11.231C41.2218 11.421 41.1471 11.6033 41.0139 11.7387C40.8806 11.874 40.6994 11.9515 40.5095 11.9545Z" fill="#FCFCFC"/>
</svg>
