<svg width="53" height="53" viewBox="0 0 53 53" fill="none" xmlns="http://www.w3.org/2000/svg">
<path fill-rule="evenodd" clip-rule="evenodd" d="M30.4979 18.4955L34.3906 26.281C34.5612 26.622 34.5612 27.0234 34.3906 27.3645L30.4979 35.15C30.2927 35.5604 29.8732 35.8197 29.4144 35.8197H19.9822L23.6678 28.4485C24.1771 27.4305 24.1771 26.215 23.668 25.1975L19.9822 17.8258H29.4144C29.8732 17.8258 30.2927 18.085 30.4979 18.4955ZM43.3909 18.4955L47.2837 26.281C47.4543 26.622 47.4543 27.0234 47.2837 27.3645L43.3909 35.15C43.1858 35.5604 42.7663 35.8197 42.3074 35.8197H32.8752L36.5608 28.4485C37.0701 27.4305 37.0701 26.215 36.5611 25.1975L32.8752 17.8258H42.3074C42.7663 17.8258 43.1858 18.085 43.3909 18.4955Z" fill="url(#paint0_linear_1640_833)"/>
<path d="M21.507 26.2805L17.6143 18.495C17.4091 18.0846 16.9896 17.8253 16.5308 17.8253H7.27536C6.85556 17.8253 6.46564 18.0426 6.24483 18.3999C6.02411 18.757 6.00408 19.203 6.19185 19.5785L9.81373 26.8223L6.19185 34.066C6.00408 34.4415 6.02411 34.8875 6.24483 35.2447C6.46564 35.6019 6.85556 35.8192 7.27536 35.8192H16.5308C16.9896 35.8192 17.4091 35.56 17.6143 35.1495L21.507 27.364C21.6776 27.023 21.6776 26.6216 21.507 26.2805Z" fill="#A182ED"/>
<defs>
<linearGradient id="paint0_linear_1640_833" x1="47.4116" y1="17.8258" x2="27.8848" y2="35.6121" gradientUnits="userSpaceOnUse">
<stop stop-color="#FF8950"/>
<stop offset="1" stop-color="#A182ED"/>
</linearGradient>
</defs>
</svg>
