<svg width="42" height="42" viewBox="0 0 42 42" fill="none" xmlns="http://www.w3.org/2000/svg">
<path d="M35.5766 28.2608C34.6589 27.4891 33.6562 26.6505 32.7386 25.8909C31.8037 25.114 30.6115 24.7162 29.3975 24.7758C28.1834 24.8354 27.0359 25.3482 26.1816 26.2129C26.0136 26.4026 25.8083 26.5555 25.5784 26.6621C25.3485 26.7686 25.0991 26.8266 24.8458 26.8323C24.5925 26.838 24.3408 26.7913 24.1063 26.6952C23.8719 26.5991 23.6599 26.4556 23.4835 26.2737L15.225 17.8207C15.0503 17.639 14.9144 17.4236 14.8255 17.1878C14.7367 16.9519 14.6967 16.7004 14.7081 16.4486C14.7194 16.1968 14.7819 15.9499 14.8916 15.723C15.0014 15.4961 15.1562 15.2939 15.3465 15.1286C16.234 14.2949 16.7759 13.1582 16.8648 11.9437C16.9537 10.7293 16.5831 9.52576 15.8266 8.57164C15.0761 7.62586 14.2858 6.61927 13.5295 5.67903C13.1583 5.22338 12.6917 4.85474 12.1626 4.5991C11.6334 4.34347 11.0546 4.20708 10.4669 4.19955C9.87932 4.19202 9.29719 4.31354 8.76165 4.55553C8.22611 4.79753 7.7502 5.1541 7.3675 5.60009L6.6322 6.46903C3.20584 10.4179 2.57768 16.8165 6.35266 20.4885C8.35426 23.2586 10.5366 25.8937 12.8853 28.3763C15.3123 30.7748 17.8901 33.0157 20.6031 35.0852C21.9876 36.5548 23.8476 37.4869 25.8535 37.7165C27.4149 37.9041 28.9981 37.7718 30.5067 37.3278C32.0153 36.8838 33.4178 36.1373 34.6286 35.1338L35.5097 34.4228C35.9665 34.0521 36.336 33.5852 36.5919 33.0554C36.8478 32.5256 36.9837 31.9459 36.9901 31.3575C36.9965 30.7692 36.8731 30.1867 36.6288 29.6515C36.3845 29.1163 36.0252 28.6414 35.5766 28.2608Z" fill="url(#paint0_linear_1632_684)"/>
<path d="M35.4779 5.53906H22.6617C22.0428 5.53922 21.4494 5.78513 21.0118 6.22272C20.5742 6.66031 20.3283 7.25376 20.3281 7.8726V14.8124C20.329 15.2827 20.4716 15.7417 20.7371 16.1298C21.0027 16.5178 21.379 16.8169 21.817 16.988L21.033 18.89C20.9763 19.0394 20.9667 19.2025 21.0056 19.3574C21.0446 19.5124 21.1301 19.6516 21.2508 19.7563C21.3714 19.8611 21.5213 19.9262 21.6801 19.943C21.839 19.9598 21.9992 19.9274 22.139 19.8502L25.7913 17.7172C26.439 17.3403 27.1748 17.1412 27.9243 17.1399H35.4779C36.0948 17.1388 36.6862 16.8933 37.1224 16.457C37.5587 16.0208 37.8043 15.4294 37.8053 14.8124V7.8726C37.8055 7.2547 37.5606 6.66197 37.1242 6.22448C36.6879 5.78699 36.0958 5.54048 35.4779 5.53906ZM23.5064 13.2507C23.5061 13.1708 23.5216 13.0916 23.552 13.0178C23.5825 12.9439 23.6272 12.8768 23.6837 12.8203C23.7402 12.7639 23.8073 12.7191 23.8812 12.6887C23.955 12.6582 24.0342 12.6427 24.114 12.643H34.0255C34.1867 12.643 34.3412 12.707 34.4552 12.821C34.5692 12.9349 34.6332 13.0895 34.6332 13.2507C34.6332 13.4118 34.5692 13.5664 34.4552 13.6804C34.3412 13.7943 34.1867 13.8584 34.0255 13.8584H24.114C24.0342 13.8586 23.955 13.8431 23.8812 13.8127C23.8073 13.7822 23.7402 13.7375 23.6837 13.681C23.6272 13.6245 23.5825 13.5574 23.552 13.4836C23.5216 13.4097 23.5061 13.3306 23.5064 13.2507ZM34.0255 10.0421H24.114C23.9548 10.0391 23.8031 9.9738 23.6915 9.86015C23.58 9.7465 23.5175 9.5936 23.5175 9.43435C23.5175 9.27509 23.58 9.1222 23.6916 9.00856C23.8031 8.89492 23.9548 8.82961 24.1141 8.82667H34.0255C34.185 8.82915 34.3372 8.89426 34.4491 9.00795C34.5611 9.12165 34.6238 9.27481 34.6238 9.43437C34.6238 9.59392 34.5611 9.74708 34.4491 9.86078C34.3372 9.97447 34.185 10.0396 34.0255 10.0421Z" fill="#A182ED"/>
<defs>
<linearGradient id="paint0_linear_1632_684" x1="36.9904" y1="4.19922" x2="4.92008" y2="23.1393" gradientUnits="userSpaceOnUse">
<stop stop-color="#FF8950"/>
<stop offset="1" stop-color="#A182ED"/>
</linearGradient>
</defs>
</svg>
