<svg width="47" height="47" viewBox="0 0 47 47" fill="none" xmlns="http://www.w3.org/2000/svg">
<path d="M36.2611 12.5586C35.6763 12.5586 35.2023 13.0327 35.2023 13.6174C35.2023 14.2022 35.6763 14.6762 36.2611 14.6762H38.3787C38.9634 14.6762 39.4375 14.2022 39.4375 13.6174C39.4375 13.0327 38.9634 12.5586 38.3787 12.5586H36.2611Z" fill="#A182ED"/>
<path d="M36.0847 9.94638L37.9186 8.88758C38.425 8.59521 38.5985 7.94765 38.3061 7.44126C38.0137 6.93487 37.3662 6.76137 36.8598 7.05374L35.0259 8.11254C34.5196 8.40491 34.3461 9.05247 34.6384 9.55886C34.9308 10.0652 35.5784 10.2388 36.0847 9.94638Z" fill="#A182ED"/>
<path d="M35.0259 19.1226L36.8598 20.1814C37.3662 20.4738 38.0137 20.3003 38.3061 19.7939C38.5985 19.2875 38.425 18.64 37.9186 18.3476L36.0847 17.2888C35.5784 16.9964 34.9308 17.1699 34.6384 17.6763C34.3461 18.1827 34.5196 18.8303 35.0259 19.1226Z" fill="#A182ED"/>
<path d="M13.6733 14.6762C14.2581 14.6762 14.7321 14.2022 14.7321 13.6174C14.7321 13.0327 14.2581 12.5586 13.6733 12.5586H11.5557C10.971 12.5586 10.4969 13.0327 10.4969 13.6174C10.4969 14.2022 10.971 14.6762 11.5557 14.6762H13.6733Z" fill="#A182ED"/>
<path d="M12.0147 8.88758L13.8486 9.94638C14.355 10.2388 15.0025 10.0652 15.2949 9.55886C15.5873 9.05247 15.4138 8.40491 14.9074 8.11254L13.0735 7.05374C12.5671 6.76137 11.9196 6.93487 11.6272 7.44126C11.3348 7.94765 11.5083 8.59521 12.0147 8.88758Z" fill="#A182ED"/>
<path d="M13.0735 20.1814L14.9074 19.1226C15.4137 18.8303 15.5872 18.1827 15.2949 17.6763C15.0025 17.1699 14.3549 16.9964 13.8486 17.2888L12.0147 18.3476C11.5083 18.64 11.3348 19.2875 11.6272 19.7939C11.9196 20.3003 12.5671 20.4738 13.0735 20.1814Z" fill="#A182ED"/>
<path fill-rule="evenodd" clip-rule="evenodd" d="M20.8169 21.8853C20.8169 21.1402 20.4465 20.4076 19.8008 19.8753C17.9232 18.3273 16.8464 16.0463 16.8464 13.6173C16.8464 9.14128 20.4879 5.49979 24.9638 5.49979C29.4398 5.49979 33.0813 9.14128 33.0813 13.6173C33.0813 16.0463 32.0044 18.3273 30.1268 19.8753C29.4812 20.4076 29.1108 21.1402 29.1108 21.8853V22.0877H26.0226V15.4675L27.8302 13.6601C28.2436 13.2466 28.2436 12.5762 27.8302 12.1627C27.4167 11.7492 26.7462 11.7492 26.3328 12.1627L24.9638 13.5316L23.595 12.1627C23.1815 11.7492 22.511 11.7492 22.0976 12.1627C21.6841 12.5762 21.6841 13.2466 22.0976 13.6601L23.905 15.4675V22.0877H20.8169V21.8853ZM20.8169 24.9111C20.8169 26.2756 21.923 27.3817 23.2874 27.3817H26.6403C28.0047 27.3817 29.1108 26.2756 29.1108 24.9111V24.2053H20.8169V24.9111ZM6.54073 26.817H8.79951C9.38425 26.817 9.85831 27.291 9.85831 27.8758V41.6402H6.54073C5.95599 41.6402 5.48193 41.1661 5.48193 40.5814V27.8758C5.48193 27.291 5.95599 26.817 6.54073 26.817ZM32.6893 30.7637L37.3169 27.5234C39.1303 26.2537 41.6223 27.551 41.6223 29.7647C41.6223 30.5121 41.3164 31.2271 40.7759 31.7434L33.1745 39.0025C31.3934 40.7034 29.0562 41.6402 26.5933 41.6402H11.9759V28.8912L13.1476 28.3291C15.3008 27.2961 17.8075 27.4104 19.8573 28.6338C20.6342 29.0974 21.5155 29.3572 22.4202 29.3572H28.2265C29.591 29.3572 30.6972 30.4634 30.6972 31.8279C30.6971 33.1925 29.5909 34.2987 28.2263 34.2986L28.2262 34.2988L21.7422 34.2983C21.1574 34.2982 20.6834 34.7723 20.6833 35.357C20.6832 35.9417 21.1573 36.4158 21.742 36.4159L28.2261 36.4164C30.7603 36.4166 32.8148 34.3622 32.8148 31.828C32.8148 31.4615 32.7705 31.1054 32.6893 30.7637Z" fill="url(#paint0_linear_1640_762)"/>
<defs>
<linearGradient id="paint0_linear_1640_762" x1="41.6223" y1="5.49978" x2="6.93368" y2="26.2274" gradientUnits="userSpaceOnUse">
<stop stop-color="#FF8950"/>
<stop offset="1" stop-color="#A182ED"/>
</linearGradient>
</defs>
</svg>
