<svg width="54" height="54" viewBox="0 0 54 54" fill="none" xmlns="http://www.w3.org/2000/svg">
<path fill-rule="evenodd" clip-rule="evenodd" d="M14.8455 25.2908C15.9305 24.2056 17.6899 24.2054 18.7752 25.2905L24.0482 30.5629C25.2295 31.7442 25.8933 33.3463 25.8933 35.0169V41.9297H14.3334V39.1292L9.88806 33.7407C8.73826 32.3469 8.10938 30.5964 8.10938 28.7895V18.0326C8.10938 16.498 9.35343 15.2539 10.8881 15.2539C12.4228 15.2539 13.6668 16.498 13.6669 18.0326V23.3654C13.5307 23.4758 13.3991 23.5934 13.2734 23.7192C11.3237 25.6693 11.3238 28.8423 13.2738 30.7922L17.3425 34.8608C17.7765 35.2949 18.4803 35.2949 18.9143 34.8608C19.3483 34.4269 19.3483 33.7234 18.9147 33.2893L14.8457 29.2203C13.7606 28.1351 13.7605 26.376 14.8455 25.2908ZM40.3505 18.0326C40.3505 16.498 41.5946 15.2539 43.1292 15.2539C44.6639 15.2539 45.908 16.498 45.908 18.0326V28.7895C45.908 30.5964 45.2791 32.3469 44.1293 33.7407L39.684 39.1292V41.9297H28.1241V35.0169C28.1241 33.3463 28.7878 31.7442 29.9692 30.5629L35.2422 25.2905C36.3275 24.2054 38.0869 24.2056 39.172 25.2908C40.2569 26.376 40.2568 28.1352 39.1717 29.2203L35.1027 33.2893C34.6691 33.7234 34.6692 34.4269 35.1031 34.8608C35.5372 35.2949 36.2409 35.2949 36.675 34.8608L40.7436 30.7922C42.6936 28.8423 42.6938 25.6693 40.744 23.7192C40.6182 23.5934 40.4867 23.4758 40.3505 23.3654V18.0326ZM13.2206 45.2638V47.4868C13.2206 48.1007 13.7182 48.5983 14.332 48.5983H25.8916V44.1523H14.332C13.7182 44.1523 13.2206 44.65 13.2206 45.2638ZM28.1241 44.1523H39.6836C40.2975 44.1523 40.7951 44.65 40.7951 45.2638V47.4868C40.7951 48.1007 40.2975 48.5983 39.6836 48.5983H28.1241V44.1523Z" fill="#FCFCFC"/>
<path d="M31.7043 14.9863C30.4733 16.1615 28.8067 16.8842 26.9746 16.8842C25.1424 16.8842 23.4758 16.1615 22.2449 14.9863C19.9603 16.5165 18.4531 19.121 18.4531 22.0711C18.4531 22.685 18.9508 23.1826 19.5646 23.1826H34.3845C34.9984 23.1826 35.496 22.685 35.496 22.0711C35.496 19.121 33.9888 16.5165 31.7043 14.9863Z" fill="#FCFCFC"/>
<path d="M26.9593 14.6599C29.5171 14.6599 31.5906 12.5864 31.5906 10.0287C31.5906 7.47093 29.5171 5.39746 26.9593 5.39746C24.4016 5.39746 22.3281 7.47093 22.3281 10.0287C22.3281 12.5864 24.4016 14.6599 26.9593 14.6599Z" fill="#FCFCFC"/>
</svg>
