<svg width="43" height="44" viewBox="0 0 43 44" fill="none" xmlns="http://www.w3.org/2000/svg">
<path d="M31.9987 9.29688C31.4428 9.29688 30.9922 9.74751 30.9922 10.3034C30.9922 10.8592 31.4428 11.3098 31.9987 11.3098H34.0116C34.5675 11.3098 35.0181 10.8592 35.0181 10.3034C35.0181 9.74751 34.5675 9.29688 34.0116 9.29688H31.9987Z" fill="#FCFCFC"/>
<path d="M31.8302 6.81343L33.5734 5.80695C34.0548 5.52902 34.2197 4.91346 33.9418 4.43209C33.6639 3.95072 33.0483 3.7858 32.5669 4.06372L30.8237 5.0702C30.3423 5.34812 30.1774 5.96369 30.4553 6.44506C30.7332 6.92642 31.3488 7.09135 31.8302 6.81343Z" fill="#FCFCFC"/>
<path d="M30.8237 15.5364L32.5669 16.5429C33.0483 16.8208 33.6639 16.6559 33.9418 16.1745C34.2197 15.6932 34.0548 15.0776 33.5734 14.7997L31.8302 13.7932C31.3488 13.5153 30.7332 13.6802 30.4553 14.1616C30.1774 14.643 30.3423 15.2585 30.8237 15.5364Z" fill="#FCFCFC"/>
<path d="M10.5273 11.3098C11.0831 11.3098 11.5337 10.8592 11.5337 10.3034C11.5337 9.74751 11.0831 9.29688 10.5273 9.29688H8.51429C7.95845 9.29688 7.50781 9.74751 7.50781 10.3034C7.50781 10.8592 7.95845 11.3098 8.51429 11.3098H10.5273Z" fill="#FCFCFC"/>
<path d="M8.93308 5.80695L10.6763 6.81343C11.1577 7.09135 11.7732 6.92642 12.0512 6.44506C12.3291 5.96369 12.1642 5.34812 11.6828 5.0702L9.93956 4.06372C9.4582 3.7858 8.84263 3.95072 8.56471 4.43209C8.28679 4.91346 8.45165 5.52902 8.93308 5.80695Z" fill="#FCFCFC"/>
<path d="M9.93955 16.5429L11.6828 15.5364C12.1641 15.2585 12.3291 14.643 12.0512 14.1616C11.7732 13.6802 11.1577 13.5153 10.6763 13.7932L8.93307 14.7997C8.4517 15.0776 8.28677 15.6932 8.5647 16.1745C8.84262 16.6559 9.45812 16.8208 9.93955 16.5429Z" fill="#FCFCFC"/>
<path fill-rule="evenodd" clip-rule="evenodd" d="M17.3134 18.1628C17.3134 17.4545 16.9613 16.7581 16.3476 16.2521C14.5627 14.7806 13.5391 12.6123 13.5391 10.3033C13.5391 6.04848 17.0006 2.58691 21.2554 2.58691C25.5102 2.58691 28.9718 6.04848 28.9718 10.3033C28.9718 12.6123 27.9481 14.7806 26.1633 16.2521C25.5496 16.7581 25.1975 17.4545 25.1975 18.1628V18.3551H22.2619V12.0621L23.9801 10.344C24.3732 9.95094 24.3732 9.3137 23.9801 8.92064C23.587 8.52758 22.9497 8.52758 22.5567 8.92064L21.2554 10.2219L19.9542 8.92064C19.5611 8.52758 18.9238 8.52758 18.5308 8.92064C18.1377 9.3137 18.1377 9.95094 18.5308 10.344L20.2489 12.0621V18.3551H17.3134V18.1628ZM17.3047 21.0392C17.3047 22.3362 18.3561 23.3876 19.6531 23.3876H22.8403C24.1374 23.3876 25.1888 22.3362 25.1888 21.0392V20.3682H17.3047V21.0392ZM34.903 29.0706C34.903 31.3867 33.0254 33.2643 30.7093 33.2643C28.3932 33.2643 26.5156 31.3867 26.5156 29.0706C26.5156 26.7545 28.3932 24.877 30.7093 24.877C33.0254 24.877 34.903 26.7545 34.903 29.0706ZM30.7086 35.2771C32.3676 35.2771 33.8768 34.6228 34.9914 33.5586C37.0601 34.9442 38.4249 37.3026 38.4249 39.974C38.4249 40.5299 37.9743 40.9805 37.4184 40.9805H23.9987C23.4428 40.9805 22.9922 40.5299 22.9922 39.974C22.9922 37.3026 24.357 34.9442 26.4257 33.5586C27.5403 34.6228 29.0495 35.2771 30.7086 35.2771ZM16.0695 33.5586C14.9549 34.6228 13.4458 35.2771 11.7867 35.2771C10.1276 35.2771 8.61847 34.6228 7.50383 33.5586C5.4351 34.9442 4.07031 37.3026 4.07031 39.974C4.07031 40.5299 4.52095 40.9805 5.07679 40.9805H18.4966C19.0524 40.9805 19.503 40.5299 19.503 39.974C19.503 37.3026 18.1383 34.9442 16.0695 33.5586ZM15.9811 29.0706C15.9811 31.3867 14.1035 33.2643 11.7874 33.2643C9.47132 33.2643 7.59375 31.3867 7.59375 29.0706C7.59375 26.7545 9.47132 24.877 11.7874 24.877C14.1035 24.877 15.9811 26.7545 15.9811 29.0706Z" fill="#FCFCFC"/>
</svg>
