<svg width="42" height="42" viewBox="0 0 42 42" fill="none" xmlns="http://www.w3.org/2000/svg">
<path d="M4.20312 13.6504V34.6504C4.20312 36.3934 5.61015 37.8004 7.35312 37.8004H34.6531C36.3857 37.8004 37.8031 36.3934 37.8031 34.6504V13.6504H4.20312ZM28.4161 26.4079L29.8126 27.7519C30.1592 28.0879 30.2432 28.6129 30.0016 29.0329L28.3741 31.8679C28.1222 32.2879 27.6286 32.4874 27.1666 32.3509L25.3187 31.8049C24.9302 32.0779 24.5312 32.3088 24.1006 32.5083L23.6386 34.3774C23.5231 34.8499 23.1031 35.1754 22.6202 35.1754H19.3651C18.8822 35.1754 18.4621 34.8499 18.3467 34.3774L17.8847 32.5083C17.4646 32.3088 17.0552 32.0779 16.6771 31.8049L14.8291 32.3509C14.3672 32.4874 13.8631 32.2879 13.6217 31.8679L11.9942 29.0329C11.7526 28.6129 11.8261 28.0879 12.1727 27.7519L13.5692 26.4079C13.5271 25.9564 13.5271 25.5154 13.5692 25.0429L12.1727 23.6989C11.8261 23.3629 11.7526 22.8379 11.9942 22.4179L13.6217 19.5934C13.8631 19.1734 14.3567 18.9739 14.8187 19.0999L16.6876 19.6458C17.0656 19.3729 17.4646 19.1419 17.8847 18.9529L18.3467 17.0734C18.4621 16.6114 18.8822 16.2754 19.3651 16.2754H22.6202C23.1031 16.2754 23.5231 16.6114 23.6386 17.0734L24.1006 18.9529C24.5312 19.1419 24.9302 19.3729 25.3082 19.6458L27.1666 19.0999C27.6286 18.9739 28.1327 19.1734 28.3741 19.5934L30.0016 22.4179C30.2432 22.8379 30.1592 23.3629 29.8126 23.6989L28.4161 25.0429C28.4582 25.5154 28.4582 25.9564 28.4161 26.4079ZM20.9927 22.5544C19.2496 22.5544 17.8217 23.9824 17.8217 25.7254C17.8217 27.4894 19.2496 28.8963 20.9927 28.8963C22.7567 28.8963 24.1636 27.4894 24.1636 25.7254C24.1636 23.9824 22.7567 22.5544 20.9927 22.5544Z" fill="url(#paint0_linear_1632_680)"/>
<path d="M34.6531 4.2002H7.35312C5.61015 4.2002 4.20312 5.61767 4.20312 7.3502V11.5502H37.8031V7.3502C37.8031 5.61767 36.3857 4.2002 34.6531 4.2002ZM9.45312 8.9252C8.93864 8.9252 8.49765 8.55766 8.42415 8.08521C8.26662 7.56021 8.72862 6.8252 9.45312 6.83571C10.0727 6.83571 10.5031 7.32917 10.5031 7.8752C10.5031 8.44217 10.0516 8.9252 9.45312 8.9252ZM13.1281 8.9252C12.5087 8.9252 12.0781 8.42115 12.0781 7.8752C12.0781 7.24516 12.6452 6.8252 13.1281 6.8252C13.7371 6.83571 14.1781 7.33968 14.1781 7.8752C14.1781 8.4002 13.7477 8.9252 13.1281 8.9252ZM16.8031 8.9252C16.2467 8.9252 15.7531 8.48421 15.7531 7.8752C15.7531 7.23471 16.3202 6.8252 16.8031 6.8252C17.3911 6.83571 17.8531 7.31866 17.8531 7.8752C17.8531 8.44217 17.4016 8.9252 16.8031 8.9252Z" fill="#A182ED"/>
<defs>
<linearGradient id="paint0_linear_1632_680" x1="37.8031" y1="13.6504" x2="11.9241" y2="35.1649" gradientUnits="userSpaceOnUse">
<stop stop-color="#FF8950"/>
<stop offset="1" stop-color="#A182ED"/>
</linearGradient>
</defs>
</svg>
