<svg width="46" height="46" viewBox="0 0 46 46" fill="none" xmlns="http://www.w3.org/2000/svg">
<path d="M39.0491 30.4312C38.061 29.6002 36.9813 28.6971 35.9932 27.8791C34.9865 27.0427 33.7026 26.6142 32.3953 26.6784C31.088 26.7426 29.8523 27.2948 28.9324 28.226C28.7515 28.4302 28.5304 28.5948 28.2828 28.7096C28.0353 28.8244 27.7668 28.8868 27.494 28.8929C27.2212 28.8991 26.9501 28.8488 26.6977 28.7453C26.4453 28.6418 26.2169 28.4873 26.027 28.2914L17.134 19.189C16.9459 18.9933 16.7996 18.7614 16.7039 18.5074C16.6082 18.2534 16.5652 17.9826 16.5774 17.7115C16.5896 17.4403 16.6569 17.1745 16.7751 16.9301C16.8933 16.6858 17.0599 16.468 17.2649 16.2901C18.2205 15.3923 18.804 14.1682 18.8998 12.8605C18.9955 11.5528 18.5965 10.2568 17.7818 9.22934C16.9737 8.2109 16.1226 7.12697 15.3083 6.1145C14.9086 5.62384 14.4061 5.22688 13.8363 4.9516C13.2665 4.67633 12.6432 4.52946 12.0104 4.52135C11.3777 4.51324 10.7508 4.6441 10.1741 4.90469C9.59745 5.16527 9.08497 5.54924 8.67287 6.02949L7.88107 6.96519C4.19148 11.2175 3.51506 18.1077 7.58006 22.0617C9.73544 25.0447 12.0854 27.8822 14.6146 30.5555C17.228 33.1383 20.0039 35.5514 22.9253 37.7799C24.4162 39.3623 26.4191 40.3661 28.5791 40.6133C30.2604 40.8153 31.9653 40.6729 33.5898 40.1947C35.2143 39.7166 36.7245 38.9128 38.0283 37.8322L38.9772 37.0666C39.4691 36.6674 39.867 36.1646 40.1425 35.5941C40.418 35.0236 40.5644 34.3993 40.5713 33.7658C40.5782 33.1323 40.4453 32.505 40.1823 31.9287C39.9192 31.3523 39.5323 30.8411 39.0491 30.4312Z" fill="url(#paint0_linear_1640_843)"/>
<path d="M38.9434 5.9639H25.1426C24.4762 5.96407 23.8371 6.22887 23.3659 6.70008C22.8947 7.17128 22.6299 7.81033 22.6298 8.47671V15.9497C22.6307 16.4561 22.7842 16.9504 23.0702 17.3682C23.3562 17.7861 23.7614 18.1081 24.233 18.2924L23.3888 20.3406C23.3277 20.5014 23.3174 20.6771 23.3593 20.8439C23.4012 21.0107 23.4934 21.1607 23.6233 21.2734C23.7532 21.3862 23.9146 21.4564 24.0856 21.4745C24.2567 21.4925 24.4292 21.4576 24.5798 21.3745L28.5126 19.0777C29.2102 18.6718 30.0025 18.4574 30.8095 18.456H38.9434C39.6078 18.4548 40.2446 18.1904 40.7143 17.7206C41.1841 17.2509 41.4485 16.6141 41.4497 15.9497V8.47671C41.4499 7.81134 41.1861 7.17307 40.7162 6.70197C40.2464 6.23087 39.6088 5.96543 38.9434 5.9639ZM26.0522 14.268C26.0519 14.1819 26.0686 14.0967 26.1014 14.0172C26.1341 13.9377 26.1823 13.8654 26.2432 13.8046C26.304 13.7438 26.3762 13.6956 26.4558 13.6628C26.5353 13.63 26.6205 13.6133 26.7065 13.6136H37.3795C37.553 13.6136 37.7195 13.6825 37.8422 13.8053C37.9649 13.928 38.0338 14.0944 38.0338 14.268C38.0338 14.4415 37.9649 14.608 37.8422 14.7307C37.7195 14.8534 37.553 14.9223 37.3795 14.9223H26.7065C26.6205 14.9226 26.5353 14.9059 26.4558 14.8731C26.3762 14.8404 26.304 14.7922 26.2432 14.7313C26.1823 14.6705 26.1341 14.5983 26.1014 14.5187C26.0686 14.4392 26.0519 14.354 26.0522 14.268ZM37.3795 10.8128H26.7065C26.5351 10.8097 26.3717 10.7393 26.2516 10.617C26.1314 10.4946 26.0641 10.3299 26.0641 10.1584C26.0641 9.98696 26.1315 9.82232 26.2516 9.69994C26.3717 9.57757 26.5351 9.50724 26.7066 9.50409H37.3795C37.5513 9.50675 37.7151 9.57686 37.8357 9.69929C37.9562 9.82172 38.0238 9.98665 38.0238 10.1585C38.0238 10.3303 37.9562 10.4952 37.8357 10.6176C37.7151 10.7401 37.5513 10.8102 37.3795 10.8128Z" fill="#A182ED"/>
<defs>
<linearGradient id="paint0_linear_1640_843" x1="40.5716" y1="4.52099" x2="6.03742" y2="24.9162" gradientUnits="userSpaceOnUse">
<stop stop-color="#FF8950"/>
<stop offset="1" stop-color="#A182ED"/>
</linearGradient>
</defs>
</svg>
