<svg width="42" height="42" viewBox="0 0 42 42" fill="none" xmlns="http://www.w3.org/2000/svg">
<path d="M33.7215 27.4731C34.1992 28.057 34.5045 28.8002 34.5045 29.6097C34.5045 30.6979 33.9603 31.6667 33.1508 32.2905C33.6153 32.8479 33.9073 33.5513 33.9338 34.3342C33.9736 36.2453 32.2351 37.798 30.3373 37.798H17.9289C16.7187 37.798 15.5747 37.4101 14.6328 36.7222V17.5597C16.399 15.2441 19.0362 11.2246 19.9195 6.92937C20.3176 5.01832 21.4722 4.62012 22.5738 4.62012C24.3255 4.62012 25.4933 6.1729 25.3739 9.38449C25.228 13.4587 22.6799 16.604 22.6799 16.604H32.1289C33.6949 16.604 35.1415 17.5993 35.5263 19.1123C35.898 20.5588 35.314 21.8992 34.2921 22.6689C34.7699 23.2529 35.0751 23.9828 35.0751 24.7923C35.0751 25.8938 34.531 26.8626 33.7215 27.4731Z" fill="url(#paint0_linear_1632_682)"/>
<path fill-rule="evenodd" clip-rule="evenodd" d="M10.3149 37.8006H7.22302C6.72015 37.8006 6.31249 37.393 6.3125 36.8901V17.557C6.3125 17.0541 6.72015 16.6465 7.22302 16.6465H10.3149C11.67 16.6465 12.7686 17.745 12.7686 19.1002V35.347C12.7686 36.7021 11.67 37.8006 10.3149 37.8006ZM9.59768 35.5234C10.1905 35.5234 10.6711 35.0428 10.6711 34.4499C10.6711 33.8571 10.1905 33.3765 9.59768 33.3765C9.00482 33.3765 8.52422 33.8571 8.52422 34.4499C8.52422 35.0428 9.00482 35.5234 9.59768 35.5234Z" fill="#A182ED"/>
<defs>
<linearGradient id="paint0_linear_1632_682" x1="35.6389" y1="4.62011" x2="11.7035" y2="13.6753" gradientUnits="userSpaceOnUse">
<stop stop-color="#FF8950"/>
<stop offset="1" stop-color="#A182ED"/>
</linearGradient>
</defs>
</svg>
