<svg width="48" height="48" viewBox="0 0 48 48" fill="none" xmlns="http://www.w3.org/2000/svg">
<path fill-rule="evenodd" clip-rule="evenodd" d="M27.4764 16.4617L31.0914 23.6918C31.2498 24.0085 31.2498 24.3813 31.0914 24.698L27.4764 31.928C27.2859 32.3092 26.8963 32.5499 26.4702 32.5499H17.7109L21.1336 25.7047C21.6065 24.7593 21.6065 23.6305 21.1338 22.6856L17.7109 15.8398H26.4702C26.8963 15.8398 27.2859 16.0806 27.4764 16.4617ZM39.4496 16.4617L43.0646 23.6918C43.223 24.0085 43.223 24.3813 43.0646 24.698L39.4496 31.928C39.2591 32.3092 38.8695 32.5499 38.4434 32.5499H29.6842L33.1068 25.7047C33.5798 24.7593 33.5798 23.6305 33.107 22.6856L29.6842 15.8398H38.4434C38.8695 15.8398 39.2591 16.0806 39.4496 16.4617Z" fill="url(#paint0_linear_1632_683)"/>
<path d="M19.1303 23.6918L15.5153 16.4617C15.3248 16.0806 14.9353 15.8398 14.5091 15.8398H5.91406C5.52421 15.8398 5.16211 16.0417 4.95706 16.3734C4.75208 16.705 4.73348 17.1192 4.90785 17.468L8.27133 24.1949L4.90785 30.9218C4.73348 31.2705 4.75208 31.6847 4.95706 32.0164C5.16211 32.3481 5.52421 32.5499 5.91406 32.5499H14.5091C14.9353 32.5499 15.3248 32.3092 15.5153 31.928L19.1303 24.698C19.2887 24.3813 19.2887 24.0085 19.1303 23.6918Z" fill="#A182ED"/>
<defs>
<linearGradient id="paint0_linear_1632_683" x1="43.1834" y1="15.8398" x2="25.0497" y2="32.3572" gradientUnits="userSpaceOnUse">
<stop stop-color="#FF8950"/>
<stop offset="1" stop-color="#A182ED"/>
</linearGradient>
</defs>
</svg>
