<svg width="50" height="50" viewBox="0 0 50 50" fill="none" xmlns="http://www.w3.org/2000/svg">
<path d="M5 16.25V41.25C5 43.325 6.67503 45 8.75 45H41.25C43.3125 45 45 43.325 45 41.25V16.25H5ZM33.825 31.4375L35.4875 33.0375C35.9 33.4375 36.0001 34.0625 35.7125 34.5625L33.775 37.9375C33.475 38.4375 32.8875 38.675 32.3375 38.5125L30.1376 37.8625C29.6751 38.1875 29.2001 38.4624 28.6875 38.7L28.1375 40.925C28 41.4875 27.5 41.875 26.925 41.875H23.05C22.4751 41.875 21.975 41.4875 21.8375 40.925L21.2875 38.7C20.7875 38.4624 20.3001 38.1875 19.85 37.8625L17.65 38.5125C17.1001 38.675 16.5 38.4375 16.2125 37.9375L14.2751 34.5625C13.9875 34.0625 14.075 33.4375 14.4875 33.0375L16.1501 31.4375C16.1 30.9 16.1 30.375 16.1501 29.8125L14.4875 28.2125C14.075 27.8125 13.9875 27.1875 14.2751 26.6875L16.2125 23.325C16.5 22.825 17.0876 22.5875 17.6376 22.7375L19.8625 23.3875C20.3125 23.0625 20.7875 22.7875 21.2875 22.5625L21.8375 20.325C21.975 19.775 22.4751 19.375 23.05 19.375H26.925C27.5 19.375 28 19.775 28.1375 20.325L28.6875 22.5625C29.2001 22.7875 29.6751 23.0625 30.125 23.3875L32.3375 22.7375C32.8875 22.5875 33.4875 22.825 33.775 23.325L35.7125 26.6875C36.0001 27.1875 35.9 27.8125 35.4875 28.2125L33.825 29.8125C33.875 30.375 33.875 30.9 33.825 31.4375ZM24.9876 26.85C22.9125 26.85 21.2125 28.55 21.2125 30.625C21.2125 32.725 22.9125 34.3999 24.9876 34.3999C27.0876 34.3999 28.7625 32.725 28.7625 30.625C28.7625 28.55 27.0876 26.85 24.9876 26.85Z" fill="#FCFCFC"/>
<path d="M41.25 5H8.75C6.67503 5 5 6.68747 5 8.75V13.75H45V8.75C45 6.68747 43.3125 5 41.25 5ZM11.25 10.625C10.6375 10.625 10.1125 10.1875 10.025 9.62502C9.83749 9.00002 10.3875 8.125 11.25 8.13751C11.9875 8.13751 12.5 8.72498 12.5 9.375C12.5 10.05 11.9625 10.625 11.25 10.625ZM15.625 10.625C14.8875 10.625 14.375 10.0249 14.375 9.375C14.375 8.62495 15.05 8.125 15.625 8.125C16.35 8.13751 16.875 8.73749 16.875 9.375C16.875 10 16.3625 10.625 15.625 10.625ZM20 10.625C19.3375 10.625 18.75 10.1 18.75 9.375C18.75 8.61252 19.425 8.125 20 8.125C20.7 8.13751 21.25 8.71246 21.25 9.375C21.25 10.05 20.7125 10.625 20 10.625Z" fill="#FCFCFC"/>
</svg>
