<svg width="46" height="47" viewBox="0 0 46 47" fill="none" xmlns="http://www.w3.org/2000/svg">
<path d="M32.6367 8.66309H13.4853C8.80212 8.66309 4.99081 12.378 4.99081 16.9453C4.99081 21.5125 8.80212 25.2274 13.4853 25.2274C15.9413 25.2274 18.301 24.1673 19.9062 22.3663H26.2142C27.8195 24.1673 30.1791 25.2274 32.6352 25.2274C37.3199 25.2274 41.1312 21.5125 41.1312 16.9453C41.1312 12.378 37.3199 8.66309 32.6367 8.66309ZM16.2847 18.4511H14.7788V19.957C14.7788 20.7882 14.1042 21.4628 13.273 21.4628C12.4418 21.4628 11.7671 20.7882 11.7671 19.957V18.4511H10.2613C9.43006 18.4511 8.75544 17.7765 8.75544 16.9453C8.75544 16.114 9.43006 15.4394 10.2613 15.4394H11.7671V13.9336C11.7671 13.1023 12.4418 12.4277 13.273 12.4277C14.1042 12.4277 14.7788 13.1023 14.7788 13.9336V15.4394H16.2847C17.1159 15.4394 17.7905 16.114 17.7905 16.9453C17.7905 17.7765 17.1159 18.4511 16.2847 18.4511ZM32.849 12.4277C33.6787 12.4277 34.3549 13.1038 34.3549 13.9336C34.3549 14.7633 33.6787 15.4394 32.849 15.4394C32.0193 15.4394 31.3432 14.7633 31.3432 13.9336C31.3432 13.1038 32.0193 12.4277 32.849 12.4277ZM29.8373 18.4511C29.0076 18.4511 28.3315 17.775 28.3315 16.9453C28.3315 16.1155 29.0076 15.4394 29.8373 15.4394C30.667 15.4394 31.3432 16.1155 31.3432 16.9453C31.3432 17.775 30.667 18.4511 29.8373 18.4511ZM32.849 21.4628C32.0193 21.4628 31.3432 20.7867 31.3432 19.957C31.3432 19.1272 32.0193 18.4511 32.849 18.4511C33.6787 18.4511 34.3549 19.1272 34.3549 19.957C34.3549 20.7867 33.6787 21.4628 32.849 21.4628ZM35.8607 18.4511C35.031 18.4511 34.3549 17.775 34.3549 16.9453C34.3549 16.1155 35.031 15.4394 35.8607 15.4394C36.6904 15.4394 37.3666 16.1155 37.3666 16.9453C37.3666 17.775 36.6904 18.4511 35.8607 18.4511Z" fill="url(#paint0_linear_1640_779)"/>
<path d="M21.4799 32.2294C20.739 31.6738 19.6728 32.2023 19.6728 33.1329V34.1659C18.7483 34.1147 17.8447 34.047 16.9879 33.9521C9.6469 33.1962 7.24959 31.4072 7.24959 30.8742C7.24959 30.7115 7.74501 29.945 10.1529 29.1439C10.6528 29.028 11.0217 28.5792 11.0217 28.0432C11.0217 27.3008 10.2402 26.7406 9.53396 26.9695C6.51925 27.9558 4.99081 29.2689 4.99081 30.8742C4.99081 34.5876 13.2188 35.8344 16.7485 36.1988C17.6821 36.3012 18.6624 36.3765 19.6728 36.4307V37.6505C19.6728 38.5841 20.742 39.1066 21.4799 38.554L24.4916 36.2952C25.0909 35.845 25.0939 34.9399 24.4916 34.4882L21.4799 32.2294Z" fill="#A182ED"/>
<path d="M36.5776 26.9695C35.9828 26.7753 35.3473 27.1005 35.1531 27.6938C34.9603 28.2871 35.2841 28.9241 35.8774 29.1184C38.3199 29.9134 38.8695 30.6724 38.8695 30.8757C38.8695 31.5428 35.772 33.4025 28.1057 34.0425C27.4838 34.0952 27.023 34.6403 27.0742 35.2622C27.1239 35.857 27.6329 36.3389 28.2939 36.2937C32.1519 35.9685 41.1283 34.7954 41.1283 30.8742C41.1283 29.2674 39.5968 27.9528 36.5776 26.9695Z" fill="#A182ED"/>
<defs>
<linearGradient id="paint0_linear_1640_779" x1="41.1312" y1="8.66308" x2="23.6941" y2="31.3959" gradientUnits="userSpaceOnUse">
<stop stop-color="#FF8950"/>
<stop offset="1" stop-color="#A182ED"/>
</linearGradient>
</defs>
</svg>
