<svg width="48" height="48" viewBox="0 0 48 48" fill="none" xmlns="http://www.w3.org/2000/svg">
<path d="M38.5086 19.6939C38.2725 19.4346 37.8682 19.4589 37.6343 19.7202L36.416 21.0813C36.182 21.3428 36.2109 21.7416 36.4194 22.0239C36.5513 22.2025 36.6639 22.3953 36.7551 22.5991C36.9331 22.997 37.0251 23.4279 37.0251 23.8638C37.0251 24.2997 36.9331 24.7307 36.7551 25.1285C36.6639 25.3323 36.5513 25.5251 36.4194 25.7037C36.2109 25.986 36.182 26.3848 36.416 26.6463L37.6343 28.0074C37.8682 28.2688 38.2725 28.2931 38.5086 28.0337C38.9506 27.5481 39.3135 26.9944 39.5827 26.3925C39.9384 25.5969 40.1223 24.7353 40.1223 23.8638C40.1223 22.9924 39.9384 22.1307 39.5827 21.3352C39.3135 20.7333 38.9506 20.1795 38.5086 19.6939Z" fill="#A182ED"/>
<path d="M41.0003 20.3958C40.624 19.4606 40.0986 18.5941 39.4458 17.8297C39.2179 17.5629 39.2202 17.162 39.4709 16.9165L40.7758 15.6386C41.0264 15.3932 41.4298 15.3964 41.6621 15.6592C43.6877 17.9505 44.7994 20.9175 44.7681 23.9906C44.7367 27.0636 43.5648 30.0073 41.4929 32.2568C41.2553 32.5149 40.8518 32.5097 40.6063 32.2592L39.3275 30.9543C39.0819 30.7038 39.0878 30.303 39.321 30.0409C39.9894 29.2899 40.5324 28.4343 40.9277 27.507C41.4061 26.3845 41.6588 25.1787 41.6712 23.9586C41.6837 22.7385 41.4557 21.5278 41.0003 20.3958Z" fill="#A182ED"/>
<path fill-rule="evenodd" clip-rule="evenodd" d="M30.8331 5.28027H15.3472C14.5261 5.28125 13.7388 5.60787 13.1582 6.18849C12.5776 6.76912 12.251 7.55633 12.25 8.37746V9.92606H33.9303V8.37746C33.9293 7.55633 33.6027 6.76912 33.0221 6.18849C32.4415 5.60787 31.6543 5.28125 30.8331 5.28027ZM12.25 39.3494C12.251 40.1706 12.5776 40.9578 13.1582 41.5384C13.7388 42.119 14.5261 42.4457 15.3472 42.4466H30.8331C31.6543 42.4457 32.4415 42.119 33.0221 41.5384C33.6027 40.9578 33.9293 40.1706 33.9303 39.3494V37.9944H12.25V39.3494ZM33.9504 36.2281H12.2701V11.4506H33.9504V36.2281ZM22.839 31.1399C22.6786 31.1399 22.5486 31.0099 22.5486 30.8495V30.0395C22.5486 29.8928 22.4391 29.7699 22.2944 29.7464C20.3887 29.4376 18.5692 28.2869 18.449 25.881C18.441 25.7215 18.5717 25.592 18.7314 25.592H19.8749C20.0317 25.592 20.1588 25.7171 20.176 25.873C20.3215 27.185 21.1866 27.8861 22.2104 28.1632C22.3848 28.2104 22.5486 28.0728 22.5486 27.8921V24.5961C22.5486 24.4634 22.4585 24.3478 22.3303 24.3135C20.5296 23.8328 18.6803 23.0364 18.6803 21.096C18.6803 19.3692 20.1506 17.971 22.2801 17.7121C22.4309 17.6937 22.5486 17.5683 22.5486 17.4163V16.8224C22.5486 16.6621 22.6786 16.5321 22.839 16.5321H23.378C23.5384 16.5321 23.6684 16.6621 23.6684 16.8224V17.4411C23.6684 17.5898 23.7811 17.7137 23.9282 17.7354C25.9649 18.036 27.4575 19.3187 27.6382 21.271C27.6533 21.4344 27.5194 21.5697 27.3553 21.5681L26.1894 21.5566C26.0395 21.5552 25.917 21.4394 25.892 21.2916C25.7027 20.1734 24.9361 19.5584 24.0022 19.3164C23.829 19.2716 23.6684 19.4089 23.6684 19.5878V22.7956C23.6684 22.9324 23.7642 23.0504 23.8975 23.0813C26.4244 23.6675 27.6724 24.6958 27.6724 26.5082C27.6724 28.3369 26.2895 29.6314 23.9471 29.8169C23.7918 29.8292 23.6684 29.9566 23.6684 30.1123V30.8495C23.6684 31.0099 23.5384 31.1399 23.378 31.1399H22.839ZM22.181 22.6659C22.3645 22.7241 22.5486 22.5845 22.5486 22.392V19.5107C22.5486 19.3411 22.403 19.2064 22.2356 19.2337C20.9805 19.4381 20.326 20.2113 20.326 21.0281C20.326 21.8567 21.0615 22.3106 22.181 22.6659ZM23.6684 28.0017C23.6684 28.1676 23.8077 28.3009 23.9725 28.2815C25.1939 28.1378 25.9927 27.5009 25.9927 26.5591C25.9927 25.5555 25.2201 25.0859 24.0327 24.7282C23.8498 24.6731 23.6684 24.8125 23.6684 25.0035V28.0017Z" fill="url(#paint0_linear_1632_672)"/>
<defs>
<linearGradient id="paint0_linear_1632_672" x1="33.9504" y1="5.28027" x2="8.75203" y2="14.0716" gradientUnits="userSpaceOnUse">
<stop stop-color="#FF8950"/>
<stop offset="1" stop-color="#A182ED"/>
</linearGradient>
</defs>
</svg>
