<svg width="54" height="54" viewBox="0 0 54 54" fill="none" xmlns="http://www.w3.org/2000/svg">
<path d="M43.2694 22.0996C43.0303 21.8429 42.6264 21.8671 42.3925 22.1284L40.916 23.778C40.682 24.0395 40.71 24.4384 40.9248 24.7159C41.094 24.9343 41.237 25.1727 41.3505 25.4263C41.5507 25.8739 41.6542 26.3587 41.6542 26.8491C41.6542 27.3395 41.5507 27.8243 41.3505 28.2719C41.237 28.5255 41.094 28.7639 40.9248 28.9824C40.71 29.2598 40.682 29.6587 40.916 29.9202L42.3925 31.5698C42.6264 31.8311 43.0303 31.8553 43.2694 31.5986C43.791 31.0385 44.2179 30.3952 44.5315 29.6939C44.9317 28.7989 45.1386 27.8295 45.1386 26.8491C45.1386 25.8687 44.9317 24.8994 44.5315 24.0044C44.2179 23.303 43.791 22.6597 43.2694 22.0996Z" fill="#FCFCFC"/>
<path d="M46.1399 22.9474C45.7067 21.8706 45.0978 20.8749 44.3393 20.0003C44.1094 19.7352 44.112 19.3342 44.3627 19.0887L45.9441 17.54C46.1947 17.2946 46.598 17.2979 46.8318 17.5593C49.144 20.1451 50.4143 23.5077 50.3788 26.9915C50.3432 30.4752 49.0047 33.8112 46.6403 36.3492C46.4011 36.6059 45.9978 36.6009 45.7523 36.3504L44.2025 34.769C43.9569 34.5184 43.9626 34.1175 44.1978 33.8572C44.974 32.9982 45.6032 32.0151 46.0583 30.9474C46.5965 29.6846 46.8807 28.3282 46.8948 26.9555C46.9088 25.5829 46.6523 24.2209 46.1399 22.9474Z" fill="#FCFCFC"/>
<path fill-rule="evenodd" clip-rule="evenodd" d="M34.7029 5.94238H17.2812C16.3574 5.94348 15.4718 6.31093 14.8186 6.96413C14.1654 7.61733 13.798 8.50295 13.7969 9.42672V11.1689H38.1872V9.42672C38.1861 8.50295 37.8187 7.61733 37.1655 6.96413C36.5123 6.31093 35.6267 5.94348 34.7029 5.94238ZM13.7969 44.2703C13.798 45.1941 14.1654 46.0797 14.8186 46.7329C15.4718 47.3861 16.3574 47.7535 17.2812 47.7546H34.7029C35.6267 47.7535 36.5123 47.3861 37.1655 46.7329C37.8187 46.0797 38.1861 45.1941 38.1872 44.2703V42.7459H13.7969V44.2703ZM38.2161 40.7573H13.8257V12.8826H38.2161V40.7573ZM25.7176 35.033C25.5372 35.033 25.391 34.8868 25.391 34.7064V33.795C25.391 33.63 25.2678 33.4918 25.105 33.4654C22.9611 33.118 20.9141 31.8234 20.7789 29.1167C20.77 28.9374 20.917 28.7916 21.0966 28.7916H22.383C22.5595 28.7916 22.7024 28.9324 22.7219 29.1078C22.8855 30.5838 23.8587 31.3725 25.0105 31.6843C25.2067 31.7374 25.391 31.5825 25.391 31.3792V27.6713C25.391 27.5219 25.2897 27.3919 25.1453 27.3534C23.1196 26.8125 21.0392 25.9166 21.0392 23.7336C21.0392 21.791 22.6932 20.218 25.0889 19.9267C25.2586 19.9061 25.391 19.7649 25.391 19.594V18.9259C25.391 18.7455 25.5372 18.5992 25.7176 18.5992H26.3241C26.5045 18.5992 26.6507 18.7455 26.6507 18.9259V19.6219C26.6507 19.7892 26.7775 19.9286 26.943 19.953C29.2343 20.2912 30.9135 21.7341 31.1168 23.9305C31.1338 24.1143 30.9832 24.2665 30.7986 24.2647L29.4869 24.2519C29.3182 24.2502 29.1804 24.1199 29.1523 23.9536C28.9393 22.6958 28.0769 22.0038 27.0263 21.7316C26.8315 21.6812 26.6507 21.8357 26.6507 22.0369V25.6457C26.6507 25.7996 26.7585 25.9323 26.9085 25.9671C29.7513 26.6266 31.1552 27.7835 31.1552 29.8223C31.1552 31.8797 29.5995 33.336 26.9643 33.5446C26.7896 33.5585 26.6507 33.7018 26.6507 33.877V34.7064C26.6507 34.8868 26.5045 35.033 26.3241 35.033H25.7176ZM24.9774 25.4997C25.1838 25.5653 25.391 25.4082 25.391 25.1917V21.9502C25.391 21.7593 25.2272 21.6078 25.0389 21.6385C23.6269 21.8685 22.8906 22.7383 22.8906 23.6573C22.8906 24.5894 23.718 25.1 24.9774 25.4997ZM26.6507 31.5025C26.6507 31.6892 26.8074 31.8391 26.9928 31.8173C28.3669 31.6557 29.2656 30.9392 29.2656 29.8796C29.2656 28.7506 28.3964 28.2223 27.0605 27.8199C26.8548 27.7579 26.6507 27.9147 26.6507 28.1295V31.5025Z" fill="#FCFCFC"/>
</svg>
