<svg width="50" height="50" viewBox="0 0 50 50" fill="none" xmlns="http://www.w3.org/2000/svg">
<path d="M39.0547 12.8086C38.4075 12.8086 37.8828 13.3333 37.8828 13.9805C37.8828 14.6277 38.4075 15.1523 39.0547 15.1523H41.3984C42.0456 15.1523 42.5703 14.6277 42.5703 13.9805C42.5703 13.3333 42.0456 12.8086 41.3984 12.8086H39.0547Z" fill="#FCFCFC"/>
<path d="M38.8595 9.91735L40.8892 8.74547C41.4497 8.42188 41.6417 7.70516 41.3181 7.14469C40.9945 6.58422 40.2778 6.39219 39.7174 6.71579L37.6877 7.88766C37.1272 8.21126 36.9352 8.92797 37.2588 9.48844C37.5823 10.0489 38.2991 10.2409 38.8595 9.91735Z" fill="#FCFCFC"/>
<path d="M37.6877 20.0736L39.7174 21.2455C40.2778 21.5691 40.9945 21.377 41.3181 20.8166C41.6417 20.2561 41.4497 19.5394 40.8892 19.2158L38.8595 18.0439C38.2991 17.7203 37.5823 17.9123 37.2588 18.4728C36.9352 19.0333 37.1272 19.75 37.6877 20.0736Z" fill="#FCFCFC"/>
<path d="M14.0547 15.1523C14.7019 15.1523 15.2266 14.6277 15.2266 13.9805C15.2266 13.3333 14.7019 12.8086 14.0547 12.8086H11.7109C11.0637 12.8086 10.5391 13.3333 10.5391 13.9805C10.5391 14.6277 11.0637 15.1523 11.7109 15.1523H14.0547Z" fill="#FCFCFC"/>
<path d="M12.2189 8.74547L14.2486 9.91735C14.8091 10.2409 15.5258 10.0489 15.8494 9.48844C16.173 8.92797 15.981 8.21126 15.4205 7.88766L13.3908 6.71579C12.8303 6.39219 12.1136 6.58422 11.79 7.14469C11.4664 7.70516 11.6584 8.42188 12.2189 8.74547Z" fill="#FCFCFC"/>
<path d="M13.3908 21.2455L15.4205 20.0736C15.9809 19.75 16.173 19.0333 15.8494 18.4728C15.5258 17.9123 14.8091 17.7203 14.2486 18.0439L12.2189 19.2158C11.6584 19.5394 11.4664 20.2561 11.79 20.8166C12.1136 21.377 12.8302 21.5691 13.3908 21.2455Z" fill="#FCFCFC"/>
<path fill-rule="evenodd" clip-rule="evenodd" d="M21.9591 23.1315C21.9591 22.3069 21.5491 21.496 20.8345 20.9068C18.7564 19.1935 17.5645 16.6689 17.5645 13.9805C17.5645 9.02648 21.5949 4.99609 26.5489 4.99609C31.5029 4.99609 35.5333 9.02648 35.5333 13.9805C35.5333 16.6689 34.3414 19.1935 32.2633 20.9068C31.5487 21.496 31.1387 22.3069 31.1387 23.1315V23.3555H27.7208V16.0284L29.7213 14.0279C30.179 13.5702 30.179 12.8283 29.7213 12.3706C29.2637 11.913 28.5216 11.913 28.0641 12.3706L26.5489 13.8857L25.0338 12.3706C24.5762 11.913 23.8341 11.913 23.3766 12.3706C22.9189 12.8283 22.9189 13.5702 23.3766 14.0279L25.377 16.0284V23.3555H21.9591V23.1315ZM21.9627 26.4805C21.9627 27.9906 23.1869 29.2148 24.697 29.2148H28.408C29.9181 29.2148 31.1424 27.9906 31.1424 26.4805V25.6992H21.9627V26.4805ZM6.16406 28.5891H8.66406C9.31125 28.5891 9.83594 29.1138 9.83594 29.761V44.9954H6.16406C5.51687 44.9954 4.99219 44.4707 4.99219 43.8235V29.761C4.99219 29.1138 5.51687 28.5891 6.16406 28.5891ZM35.1081 32.958L40.2299 29.3717C42.237 27.9664 44.9951 29.4022 44.9951 31.8523C44.9951 32.6796 44.6566 33.4709 44.0583 34.0423L35.6452 42.0767C33.6738 43.9593 31.087 44.9961 28.361 44.9961H12.1826V30.8855L13.4795 30.2634C15.8626 29.1201 18.637 29.2466 20.9057 30.6006C21.7656 31.1138 22.741 31.4013 23.7423 31.4013H30.1687C31.6789 31.4013 32.9032 32.6257 32.9032 34.1359C32.9031 35.6462 31.6788 36.8705 30.1685 36.8705L30.1684 36.8706L22.9919 36.8701C22.3447 36.87 21.82 37.3947 21.8199 38.0419C21.8198 38.6891 22.3445 39.2137 22.9917 39.2138L30.1682 39.2144C32.973 39.2146 35.247 36.9409 35.247 34.136C35.247 33.7303 35.198 33.3362 35.1081 32.958Z" fill="#FCFCFC"/>
</svg>
