<svg width="53" height="53" viewBox="0 0 53 53" fill="none" xmlns="http://www.w3.org/2000/svg">
<path d="M19.3335 39.6628C19.9044 38.9475 19.7928 37.8976 19.0776 37.3268C18.7364 37.0512 18.3689 36.9199 17.9883 36.9199C17.9227 36.9199 17.8571 36.9265 17.7914 36.933C17.3452 36.9855 16.9515 37.2086 16.6825 37.563L14.4843 40.4043C14.2349 40.7192 14.1103 41.0736 14.1103 41.441C14.1103 41.9463 14.3399 42.4187 14.7336 42.7403C15.4423 43.3111 16.4922 43.193 17.0696 42.4844L19.3335 39.6628Z" fill="#A182ED"/>
<path d="M13.5332 39.485L15.7445 36.6372C15.9939 36.3091 16.1317 35.9219 16.1317 35.5151C16.1317 34.9508 15.8757 34.4258 15.4295 34.0715C15.1146 33.8221 14.7274 33.6909 14.3272 33.6909C14.2484 33.6909 14.1697 33.6974 14.0909 33.704C13.6053 33.7631 13.1788 34.0124 12.8835 34.393L10.6722 37.2408C10.062 38.0348 10.1998 39.1766 10.9872 39.7868C11.3743 40.0887 11.8468 40.2199 12.3258 40.1609C12.8114 40.1084 13.2379 39.8656 13.5332 39.485Z" fill="#A182ED"/>
<path d="M22.3744 42.6081L22.4007 42.5687C22.4072 42.5622 22.4138 42.5556 22.4138 42.5491C22.4204 42.5359 22.4335 42.5162 22.4401 42.5031C22.6041 42.2669 22.6894 41.9847 22.6894 41.696C22.6894 41.2367 22.4794 40.8167 22.1185 40.5477C21.8626 40.3574 21.5673 40.2655 21.2655 40.2655C20.8455 40.2655 20.4256 40.4493 20.15 40.797L18.4767 42.8706C18.2274 43.179 18.1224 43.5661 18.1749 43.9598C18.2274 44.347 18.4242 44.6816 18.7392 44.9179L18.8573 45.0163C19.1198 45.2132 19.5004 45.305 19.8809 45.2525C20.2615 45.2 20.5896 44.9966 20.8193 44.6948L22.3744 42.6081Z" fill="#A182ED"/>
<path d="M38.1528 25.4035L36.7223 21.8732L35.8758 22.3457C35.2853 22.6803 34.57 22.8181 33.8745 22.7197L26.4727 21.6239C25.5672 21.4927 24.6288 21.7945 23.9727 22.4244L23.2705 23.1003C23.2705 23.1003 23.2705 23.1003 23.264 23.1069L20.5474 25.7119C20.3702 25.8825 20.3308 26.0794 20.3308 26.2172C20.3308 26.4337 20.4358 26.7224 20.7311 26.8602C22.0697 27.5033 23.6446 27.4705 24.9569 26.7815L25.6722 26.4075C26.1315 26.1647 26.6368 26.0466 27.142 26.0466C27.8507 26.0466 28.5528 26.2828 29.1237 26.7487L29.478 27.0308L36.0858 32.3262C36.4073 32.5756 36.742 32.7856 37.0832 32.9299C37.1947 32.9759 37.326 33.0284 37.4507 33.0743C37.536 33.1071 37.6278 33.1399 37.7197 33.1596C37.8444 33.199 37.9362 33.2186 38.0281 33.2318C38.1725 33.258 38.3037 33.2843 38.4349 33.2908C38.5924 33.3105 38.704 33.3171 38.8155 33.3171C39.0977 33.3236 39.3405 33.3171 39.5636 33.2843L41.2434 33.048L38.1528 25.4035Z" fill="#A182ED"/>
<path d="M42.1347 18.4415C42.0953 18.3431 42.0297 18.2972 41.9772 18.2775C41.9378 18.2578 41.846 18.2381 41.7475 18.284L37.7251 20.0689C37.5742 20.1345 37.502 20.3051 37.5611 20.4495L37.8433 21.145L38.4338 22.5952L42.7187 33.1728C42.8171 33.3435 42.9746 33.3828 43.0993 33.3238L47.1283 31.5455C47.2726 31.4799 47.3382 31.3158 47.2792 31.1649L42.1347 18.4415Z" fill="#A182ED"/>
<path fill-rule="evenodd" clip-rule="evenodd" d="M11.2903 28.087L9.31522 30.7642C9.30866 30.7642 9.30866 30.7707 9.30866 30.7707L8.93463 31.276C8.86901 31.3613 8.79027 31.3876 8.73778 31.3941C8.65247 31.4072 8.57373 31.3876 8.50811 31.3351L5.42405 28.9006C5.29938 28.7956 5.27313 28.6185 5.37156 28.4872L12.8455 18.3426C12.9111 18.2573 12.9964 18.2376 13.0423 18.2311H13.0817C13.1276 18.2311 13.1933 18.2376 13.2589 18.2901L16.3692 20.7443C16.4939 20.8361 16.5135 21.0199 16.4282 21.1314L16.3298 21.2626L16.3101 21.2823L12.0187 27.1027L12.0056 27.1158L11.2903 28.087ZM37.8289 34.5109C38.006 34.5437 38.1832 34.5765 38.321 34.5831C38.3283 34.5855 38.3366 34.5871 38.3454 34.5887C38.3602 34.5915 38.3767 34.5945 38.3932 34.6028C38.5704 35.154 38.4326 35.7708 38.0192 36.1842C37.4745 36.7157 36.5953 36.7813 35.9981 36.3417L30.5124 32.2865C30.2893 32.129 30.0072 32.1224 29.7841 32.2536L29.7775 32.2602C29.7119 32.2996 29.6463 32.3521 29.5938 32.4243C29.3772 32.7195 29.4429 33.1264 29.7316 33.3429L32.4285 35.3443L34.6989 37.0307C35.086 37.3128 35.3288 37.7328 35.3879 38.2052C35.4469 38.6777 35.3091 39.1436 35.0007 39.511C34.4298 40.1869 33.4259 40.3116 32.7041 39.7998L27.973 36.4139C27.6712 36.2039 27.2643 36.2695 27.0543 36.5648C26.8444 36.8601 26.91 37.2735 27.2053 37.4834L31.7264 40.7184C31.7307 40.7184 31.5809 40.6137 31.581 40.6134C31.5811 40.6133 31.6189 40.6395 31.7329 40.7184C32.0742 40.9546 32.2841 41.3287 32.3169 41.7421C32.3497 42.1555 32.2054 42.5557 31.9101 42.851C31.4114 43.3497 30.624 43.4022 30.0662 42.9757L25.6042 39.4979C25.322 39.2748 24.9086 39.3273 24.6855 39.6095C24.4624 39.8916 24.5149 40.305 24.7971 40.5281L28.7014 43.5728C29.0623 43.8484 29.2854 44.2618 29.3116 44.708C29.3444 45.1608 29.1804 45.5939 28.8589 45.9154C28.3273 46.4535 27.4153 46.5059 26.8181 46.0532L26.7984 46.0401C27.0872 45.5939 27.2446 45.0689 27.2446 44.5177C27.2446 43.5597 26.7656 42.6804 25.9651 42.162C25.3811 41.788 24.679 41.6568 24.0097 41.7617C24.0097 41.7477 24.0115 41.7355 24.0133 41.7242C24.0148 41.7144 24.0162 41.7053 24.0162 41.6961C24.0162 40.8168 23.6094 40.0163 22.9138 39.4979C22.3364 39.0648 21.6474 38.8942 20.9847 38.9664C21.0896 37.9821 20.7091 36.9585 19.8626 36.2695C19.2326 35.7577 18.4452 35.5346 17.6447 35.6264C17.6014 35.6304 17.5581 35.6414 17.5148 35.6524C17.4859 35.6598 17.457 35.6671 17.4281 35.6724C17.4281 35.6461 17.4314 35.6199 17.4347 35.5936C17.438 35.5674 17.4413 35.5411 17.4413 35.5149C17.4413 34.5437 17.0082 33.6448 16.2405 33.0411C15.5843 32.5292 14.764 32.3061 13.9307 32.4111C13.2154 32.503 12.5724 32.8377 12.0803 33.3495V33.1592C12.0803 32.4243 11.7325 31.7353 11.1616 31.3219L10.7613 31.02L11.5947 29.8914L12.6708 28.4281L13.0186 27.9557C13.0284 27.9458 13.0366 27.9343 13.0448 27.9228C13.053 27.9114 13.0612 27.8999 13.0711 27.89L16.9491 22.6209L17.1394 22.7981C17.5003 23.1196 17.9728 23.2967 18.4649 23.2967H21.1749L19.646 24.76C19.2458 25.1472 19.0292 25.659 19.0292 26.2102C19.0292 26.9976 19.4754 27.6997 20.1841 28.0344C21.8902 28.8481 23.9112 28.8087 25.5779 27.9294L26.2932 27.5554C26.9494 27.2142 27.7433 27.2929 28.3208 27.7588L35.2894 33.3364C35.7028 33.6579 36.1294 33.9204 36.5756 34.1172C36.7265 34.1828 36.8774 34.2419 37.0218 34.2944C37.0572 34.3056 37.0932 34.3173 37.129 34.3289C37.219 34.3583 37.3075 34.3871 37.3827 34.4059C37.5402 34.4584 37.6976 34.4912 37.8289 34.5109Z" fill="url(#paint0_linear_1640_787)"/>
<path d="M25.386 45.803L25.6944 45.324C25.8519 45.0877 25.9307 44.8056 25.9307 44.5103C25.9307 43.9985 25.6748 43.526 25.2548 43.257C24.7758 42.9486 24.1524 42.9486 23.6603 43.2439C23.6078 43.2701 23.5881 43.2964 23.5553 43.3226C23.5487 43.3292 23.5356 43.3357 23.529 43.3423C23.5225 43.3423 23.5225 43.3489 23.5159 43.3554C23.4897 43.3751 23.4569 43.4145 23.4306 43.4407C23.2469 43.6704 22.781 44.2741 22.3676 44.8187C22.1314 45.1534 22.0395 45.5536 22.1117 45.9539C22.1904 46.3607 22.4201 46.702 22.7679 46.9251L22.8597 46.9841C23.1813 47.1941 23.5815 47.2728 23.9621 47.1875C24.3558 47.1022 24.6905 46.8726 24.907 46.5379L25.386 45.803C25.3795 45.8095 25.3795 45.8095 25.386 45.803Z" fill="#A182ED"/>
<path fill-rule="evenodd" clip-rule="evenodd" d="M26.2984 17.5921C29.5218 17.5921 32.1348 14.979 32.1348 11.7556C32.1348 8.53225 29.5218 5.91919 26.2984 5.91919C23.075 5.91919 20.4619 8.53225 20.4619 11.7556C20.4619 14.979 23.075 17.5921 26.2984 17.5921ZM29.817 10.166C30.0601 9.92061 30.0601 9.52281 29.817 9.27745C29.574 9.0321 29.1799 9.0321 28.9369 9.27745L25.2722 12.9769L23.6599 11.3493C23.4169 11.1039 23.0228 11.1039 22.7797 11.3493C22.5367 11.5946 22.5367 11.9924 22.7797 12.2378L24.5387 14.0135C24.9438 14.4224 25.6006 14.4224 26.0057 14.0135L29.817 10.166Z" fill="#A182ED"/>
<defs>
<linearGradient id="paint0_linear_1640_787" x1="38.4688" y1="18.2311" x2="9.60209" y2="38.5638" gradientUnits="userSpaceOnUse">
<stop stop-color="#FF8950"/>
<stop offset="1" stop-color="#A182ED"/>
</linearGradient>
</defs>
</svg>
