<svg width="42" height="42" viewBox="0 0 42 42" fill="none" xmlns="http://www.w3.org/2000/svg">
<path d="M32.8047 10.7617C32.261 10.7617 31.8203 11.2025 31.8203 11.7461C31.8203 12.2897 32.261 12.7305 32.8047 12.7305H34.7734C35.3171 12.7305 35.7578 12.2897 35.7578 11.7461C35.7578 11.2025 35.3171 10.7617 34.7734 10.7617H32.8047Z" fill="#A182ED"/>
<path d="M32.6408 8.33307L34.3457 7.3487C34.8165 7.07688 34.9778 6.47484 34.706 6.00404C34.4342 5.53325 33.8321 5.37194 33.3613 5.64376L31.6564 6.62814C31.1856 6.89995 31.0243 7.502 31.2961 7.97279C31.5679 8.44359 32.17 8.60489 32.6408 8.33307Z" fill="#A182ED"/>
<path d="M31.6564 16.8643L33.3613 17.8487C33.8321 18.1205 34.4342 17.9592 34.706 17.4884C34.9778 17.0176 34.8165 16.4156 34.3457 16.1438L32.6408 15.1594C32.17 14.8876 31.5679 15.0489 31.2961 15.5197C31.0243 15.9905 31.1856 16.5925 31.6564 16.8643Z" fill="#A182ED"/>
<path d="M11.8047 12.7305C12.3483 12.7305 12.7891 12.2897 12.7891 11.7461C12.7891 11.2025 12.3483 10.7617 11.8047 10.7617H9.83594C9.2923 10.7617 8.85156 11.2025 8.85156 11.7461C8.85156 12.2897 9.2923 12.7305 9.83594 12.7305H11.8047Z" fill="#A182ED"/>
<path d="M10.258 7.3487L11.9629 8.33307C12.4337 8.60489 13.0357 8.44359 13.3076 7.97279C13.5794 7.502 13.4181 6.89995 12.9473 6.62814L11.2423 5.64376C10.7715 5.37194 10.1695 5.53325 9.89768 6.00404C9.62586 6.47484 9.7871 7.07688 10.258 7.3487Z" fill="#A182ED"/>
<path d="M11.2423 17.8487L12.9473 16.8643C13.4181 16.5925 13.5794 15.9905 13.3075 15.5197C13.0357 15.0489 12.4337 14.8876 11.9629 15.1594L10.2579 16.1438C9.78715 16.4156 9.62585 17.0176 9.89767 17.4884C10.1695 17.9592 10.7715 18.1205 11.2423 17.8487Z" fill="#A182ED"/>
<path fill-rule="evenodd" clip-rule="evenodd" d="M18.4445 19.4329C18.4445 18.7403 18.1002 18.0592 17.4999 17.5642C15.7543 16.1251 14.7531 14.0044 14.7531 11.7461C14.7531 7.58475 18.1387 4.19922 22.3 4.19922C26.4613 4.19922 29.8469 7.58475 29.8469 11.7461C29.8469 14.0044 28.8457 16.1251 27.1001 17.5642C26.4998 18.0592 26.1555 18.7403 26.1555 19.4329V19.6211H23.2844V13.4663L24.9648 11.7859C25.3493 11.4015 25.3493 10.7783 24.9648 10.3938C24.5804 10.0094 23.9571 10.0094 23.5727 10.3938L22.3 11.6665L21.0273 10.3938C20.6429 10.0094 20.0196 10.0094 19.6352 10.3938C19.2508 10.7783 19.2508 11.4015 19.6352 11.7859L21.3156 13.4663V19.6211H18.4445V19.4329ZM18.4445 22.2461C18.4445 23.5146 19.4729 24.543 20.7414 24.543H23.8586C25.1271 24.543 26.1555 23.5146 26.1555 22.2461V21.5898H18.4445V22.2461ZM5.17187 24.018H7.27187C7.81551 24.018 8.25625 24.4587 8.25625 25.0023V37.7992H5.17187C4.62824 37.7992 4.1875 37.3585 4.1875 36.8148V25.0023C4.1875 24.4587 4.62824 24.018 5.17187 24.018ZM29.4825 27.6873L33.7848 24.6748C35.4707 23.4943 37.7875 24.7004 37.7875 26.7585C37.7875 27.4534 37.5031 28.1181 37.0006 28.5981L29.9336 35.347C28.2776 36.9283 26.1047 37.7993 23.8149 37.7993H10.225V25.9464L11.3144 25.4238C13.3162 24.4635 15.6467 24.5697 17.5524 25.7071C18.2747 26.1382 19.0941 26.3797 19.9352 26.3797H25.3333C26.6019 26.3797 27.6303 27.4081 27.6303 28.6767C27.6303 29.9454 26.6018 30.9738 25.3332 30.9737L25.3331 30.9739L19.3048 30.9734C18.7612 30.9733 18.3204 31.4141 18.3204 31.9577C18.3203 32.5014 18.761 32.9421 19.3047 32.9422L25.3329 32.9426C27.689 32.9428 29.5991 31.0329 29.5991 28.6768C29.5991 28.336 29.5579 28.005 29.4825 27.6873Z" fill="url(#paint0_linear_1632_673)"/>
<defs>
<linearGradient id="paint0_linear_1632_673" x1="37.7875" y1="4.19922" x2="5.5372" y2="23.4698" gradientUnits="userSpaceOnUse">
<stop stop-color="#FF8950"/>
<stop offset="1" stop-color="#A182ED"/>
</linearGradient>
</defs>
</svg>
