<svg width="52" height="52" viewBox="0 0 52 52" fill="none" xmlns="http://www.w3.org/2000/svg">
<path d="M37.0176 8.84082H14.973C9.58238 8.84082 5.19531 13.117 5.19531 18.3742C5.19531 23.6314 9.58238 27.9075 14.973 27.9075C17.8001 27.9075 20.5162 26.6872 22.364 24.6142H29.6249C31.4726 26.6872 34.1888 27.9075 37.0158 27.9075C42.4082 27.9075 46.7953 23.6314 46.7953 18.3742C46.7953 13.117 42.4082 8.84082 37.0176 8.84082ZM18.1953 20.1075H16.462V21.8408C16.462 22.7976 15.6854 23.5742 14.7286 23.5742C13.7718 23.5742 12.9953 22.7976 12.9953 21.8408V20.1075H11.262C10.3052 20.1075 9.52865 19.331 9.52865 18.3742C9.52865 17.4174 10.3052 16.6408 11.262 16.6408H12.9953V14.9075C12.9953 13.9507 13.7718 13.1742 14.7286 13.1742C15.6854 13.1742 16.462 13.9507 16.462 14.9075V16.6408H18.1953C19.1521 16.6408 19.9286 17.4174 19.9286 18.3742C19.9286 19.331 19.1521 20.1075 18.1953 20.1075ZM37.262 13.1742C38.217 13.1742 38.9953 13.9524 38.9953 14.9075C38.9953 15.8626 38.217 16.6408 37.262 16.6408C36.3069 16.6408 35.5286 15.8626 35.5286 14.9075C35.5286 13.9524 36.3069 13.1742 37.262 13.1742ZM33.7953 20.1075C32.8402 20.1075 32.062 19.3292 32.062 18.3742C32.062 17.4191 32.8402 16.6408 33.7953 16.6408C34.7504 16.6408 35.5286 17.4191 35.5286 18.3742C35.5286 19.3292 34.7504 20.1075 33.7953 20.1075ZM37.262 23.5742C36.3069 23.5742 35.5286 22.7959 35.5286 21.8408C35.5286 20.8858 36.3069 20.1075 37.262 20.1075C38.217 20.1075 38.9953 20.8858 38.9953 21.8408C38.9953 22.7959 38.217 23.5742 37.262 23.5742ZM40.7286 20.1075C39.7736 20.1075 38.9953 19.3292 38.9953 18.3742C38.9953 17.4191 39.7736 16.6408 40.7286 16.6408C41.6837 16.6408 42.462 17.4191 42.462 18.3742C42.462 19.3292 41.6837 20.1075 40.7286 20.1075Z" fill="#FCFCFC"/>
<path d="M24.1753 35.9677C23.3225 35.3281 22.0953 35.9365 22.0953 37.0077V38.1968C21.031 38.1378 19.991 38.0598 19.0048 37.9506C10.5548 37.0805 7.79531 35.0213 7.79531 34.4077C7.79531 34.2205 8.36558 33.3382 11.1372 32.4161C11.7126 32.2826 12.1373 31.7661 12.1373 31.149C12.1373 30.2945 11.2377 29.6497 10.4248 29.9132C6.95465 31.0485 5.19531 32.56 5.19531 34.4077C5.19531 38.6821 14.6662 40.1173 18.7292 40.5368C19.8038 40.6546 20.9322 40.7413 22.0953 40.8037V42.2077C22.0953 43.2824 23.326 43.8838 24.1753 43.2477L27.642 40.6477C28.3319 40.1294 28.3353 39.0877 27.642 38.5677L24.1753 35.9677Z" fill="#FCFCFC"/>
<path d="M41.5607 29.9134C40.8761 29.6898 40.1446 30.0642 39.921 30.7471C39.6991 31.43 40.0718 32.1632 40.7547 32.3868C43.5662 33.302 44.1989 34.1756 44.1989 34.4096C44.1989 35.1775 40.6334 37.3182 31.809 38.0548C31.0931 38.1155 30.5627 38.743 30.6217 39.4588C30.6789 40.1435 31.2647 40.6982 32.0257 40.6462C36.4665 40.2718 46.7989 38.9215 46.7989 34.4079C46.7989 32.5584 45.0361 31.0452 41.5607 29.9134Z" fill="#FCFCFC"/>
</svg>
