<svg width="48" height="49" viewBox="0 0 48 49" fill="none" xmlns="http://www.w3.org/2000/svg">
<path d="M39.7598 41.609V42.8711C39.7598 43.0384 39.6933 43.1989 39.5749 43.3173C39.4566 43.4356 39.2961 43.5021 39.1287 43.5021H27.1393C26.972 43.5021 26.8115 43.4356 26.6931 43.3173C26.5748 43.1989 26.5083 43.0384 26.5083 42.8711V41.609C26.5088 41.1071 26.7085 40.6259 27.0634 40.271C27.4183 39.9161 27.8995 39.7165 28.4014 39.7159H37.8667C38.3686 39.7165 38.8498 39.9161 39.2047 40.271C39.5596 40.6259 39.7592 41.1071 39.7598 41.609ZM39.0404 25.2151C38.7324 25.1833 38.4212 25.2163 38.1267 25.3119C37.8322 25.4076 37.5609 25.5637 37.3303 25.7704L37.2357 25.865C37.03 25.6552 36.7845 25.4886 36.5136 25.3748C36.2428 25.261 35.9519 25.2024 35.6581 25.2024C35.3643 25.2024 35.0735 25.261 34.8026 25.3748C34.5317 25.4886 34.2862 25.6552 34.0806 25.865C33.8751 25.6549 33.6297 25.488 33.3588 25.3742C33.0878 25.2604 32.7969 25.202 32.503 25.2024C32.1753 25.2015 31.8517 25.2749 31.5565 25.417V20.5581C31.5635 20.0007 31.3656 19.4601 31.0003 19.039C30.6351 18.6179 30.1279 18.3456 29.5751 18.2738C29.2674 18.2409 28.9562 18.2731 28.6618 18.3686C28.3674 18.464 28.0965 18.6204 27.8666 18.8277C27.6368 19.0349 27.4532 19.2882 27.3279 19.5712C27.2026 19.8541 27.1383 20.1603 27.1393 20.4698V28.9128L25.8836 27.1523C25.5907 26.7446 25.205 26.4125 24.7585 26.1831C24.312 25.9538 23.8173 25.834 23.3153 25.8335C23.0105 25.8339 22.7107 25.9111 22.4437 26.0581C22.1766 26.205 21.9509 26.4169 21.7874 26.6741C21.6239 26.9313 21.5278 27.2256 21.5081 27.5298C21.4884 27.8339 21.5457 28.1382 21.6747 28.4143L25.2778 36.157C25.7338 37.1405 26.4199 37.9998 27.2781 38.6621C27.6367 38.5247 28.0174 38.4541 28.4014 38.4539H37.8667C38.2891 38.4538 38.7073 38.5374 39.0972 38.7C40.2453 37.4065 40.9234 35.7635 41.0218 34.0367V27.4994C41.0288 26.9419 40.8309 26.4014 40.4657 25.9803C40.1004 25.5591 39.5932 25.2868 39.0404 25.2151Z" fill="#A182ED"/>
<path d="M42.9122 8.69726V18.9914C42.9113 19.8017 42.589 20.5785 42.016 21.1514C41.4431 21.7244 40.6663 22.0467 39.856 22.0476H32.8159V20.5585C32.8141 19.6667 32.4827 18.8071 31.8852 18.145C31.9805 18.2125 32.0926 18.2522 32.2091 18.2597C32.3256 18.2672 32.4419 18.2422 32.545 18.1875L34.709 17.0355L36.8729 18.1875C36.9773 18.2431 37.0953 18.2682 37.2133 18.26C37.3313 18.2518 37.4446 18.2105 37.5403 18.141C37.636 18.0714 37.7103 17.9763 37.7545 17.8666C37.7988 17.7569 37.8114 17.637 37.7907 17.5205L37.364 15.1067L39.128 13.4047C39.2131 13.3225 39.2735 13.2181 39.3022 13.1033C39.3308 12.9885 39.3266 12.868 39.2901 12.7555C39.2535 12.643 39.186 12.543 39.0954 12.467C39.0047 12.391 38.8945 12.342 38.7773 12.3256L36.35 11.9855L35.2762 9.78182C35.2183 9.68279 35.1354 9.60065 35.0359 9.54357C34.9364 9.48648 34.8237 9.45645 34.709 9.45645C34.5942 9.45645 34.4815 9.48648 34.382 9.54357C34.2825 9.60065 34.1996 9.68279 34.1417 9.78182L33.0679 11.9855L30.6406 12.3256C30.5234 12.342 30.4132 12.391 30.3225 12.467C30.2319 12.543 30.1644 12.643 30.1278 12.7555C30.0913 12.868 30.0871 12.9886 30.1157 13.1034C30.1444 13.2181 30.2048 13.3226 30.2899 13.4047L32.0539 15.1067L31.6272 17.5205C31.6119 17.607 31.6149 17.6957 31.6359 17.781C31.6569 17.8663 31.6955 17.9462 31.7491 18.0157C31.203 17.4546 30.4779 17.1018 29.6993 17.0186C29.2142 16.9693 28.7241 17.0222 28.2607 17.174C27.7973 17.3257 27.3708 17.5728 27.0088 17.8995L27.0074 17.901C27.0655 17.7831 27.085 17.6501 27.0634 17.5205L26.6366 15.1067L28.4006 13.4047C28.4857 13.3226 28.5461 13.2181 28.5748 13.1034C28.6034 12.9886 28.5993 12.868 28.5627 12.7555C28.5261 12.643 28.4587 12.543 28.368 12.467C28.2773 12.391 28.1671 12.342 28.0499 12.3256L25.6226 11.9855L24.5488 9.78182C24.4909 9.68279 24.4081 9.60065 24.3085 9.54357C24.209 9.48648 24.0963 9.45645 23.9816 9.45645C23.8668 9.45645 23.7541 9.48648 23.6546 9.54357C23.5551 9.60065 23.4722 9.68279 23.4143 9.78182L22.3405 11.9855L19.9132 12.3256C19.796 12.342 19.6858 12.391 19.5951 12.467C19.5045 12.543 19.437 12.643 19.4005 12.7555C19.3639 12.868 19.3597 12.9886 19.3884 13.1034C19.417 13.2181 19.4774 13.3226 19.5626 13.4047L21.3265 15.1067L20.8998 17.5205C20.8792 17.637 20.8917 17.7569 20.936 17.8667C20.9803 17.9764 21.0545 18.0714 21.1502 18.141C21.2459 18.2105 21.3592 18.2518 21.4772 18.26C21.5953 18.2683 21.7132 18.2432 21.8177 18.1876L23.9816 17.0355L26.1455 18.1875C26.2365 18.2375 26.339 18.263 26.4429 18.2615C26.5467 18.26 26.6484 18.2315 26.738 18.179C26.1835 18.8136 25.8769 19.6273 25.8746 20.4701V22.0476H8.10711C7.29685 22.0467 6.52005 21.7244 5.9471 21.1514C5.37416 20.5785 5.05186 19.8017 5.0509 18.9914V8.69726C5.05186 7.887 5.37416 7.11019 5.9471 6.53725C6.52005 5.96431 7.29685 5.64201 8.10711 5.64105H39.856C40.6663 5.64201 41.4431 5.96431 42.016 6.53725C42.589 7.11019 42.9113 7.887 42.9122 8.69726ZM17.8353 12.7555C17.7987 12.6429 17.7313 12.543 17.6406 12.4669C17.55 12.3909 17.4397 12.342 17.3226 12.3256L14.8952 11.9855L13.8214 9.78182C13.7635 9.68279 13.6807 9.60065 13.5812 9.54357C13.4816 9.48648 13.3689 9.45645 13.2542 9.45645C13.1395 9.45645 13.0267 9.48648 12.9272 9.54357C12.8277 9.60065 12.7449 9.68279 12.6869 9.78182L11.6132 11.9855L9.18582 12.3256C9.06865 12.342 8.95843 12.391 8.86777 12.467C8.7771 12.543 8.70964 12.643 8.67307 12.7555C8.63651 12.868 8.63232 12.9886 8.66099 13.1034C8.68965 13.2181 8.75002 13.3226 8.83519 13.4047L10.5992 15.1067L10.1724 17.5205C10.1518 17.637 10.1643 17.7569 10.2086 17.8667C10.2529 17.9764 10.3271 18.0714 10.4228 18.141C10.5185 18.2105 10.6318 18.2518 10.7499 18.26C10.8679 18.2683 10.9859 18.2432 11.0903 18.1876L13.2542 17.0355L15.4181 18.1875C15.5225 18.2431 15.6405 18.2682 15.7585 18.26C15.8765 18.2518 15.9899 18.2105 16.0856 18.141C16.1813 18.0714 16.2555 17.9763 16.2998 17.8666C16.3441 17.7569 16.3566 17.637 16.336 17.5205L15.9092 15.1067L17.6732 13.4047C17.7583 13.3225 17.8187 13.2181 17.8474 13.1033C17.876 12.9885 17.8718 12.868 17.8353 12.7555Z" fill="url(#paint0_linear_1640_803)"/>
<defs>
<linearGradient id="paint0_linear_1640_803" x1="42.9122" y1="5.64105" x2="25.9152" y2="29.0786" gradientUnits="userSpaceOnUse">
<stop stop-color="#FF8950"/>
<stop offset="1" stop-color="#A182ED"/>
</linearGradient>
</defs>
</svg>
