<svg width="42" height="42" viewBox="0 0 42 42" fill="none" xmlns="http://www.w3.org/2000/svg">
<path d="M29.8979 7.14062H12.0927C7.73871 7.14062 4.19531 10.5944 4.19531 14.8406C4.19531 19.0868 7.73871 22.5406 12.0927 22.5406C14.3761 22.5406 16.5699 21.555 18.0623 19.8806H23.9269C25.4193 21.555 27.6131 22.5406 29.8965 22.5406C34.2519 22.5406 37.7953 19.0868 37.7953 14.8406C37.7953 10.5944 34.2519 7.14062 29.8979 7.14062ZM14.6953 16.2406H13.2953V17.6406C13.2953 18.4134 12.6681 19.0406 11.8953 19.0406C11.1225 19.0406 10.4953 18.4134 10.4953 17.6406V16.2406H9.09531C8.32251 16.2406 7.69531 15.6134 7.69531 14.8406C7.69531 14.0678 8.32251 13.4406 9.09531 13.4406H10.4953V12.0406C10.4953 11.2678 11.1225 10.6406 11.8953 10.6406C12.6681 10.6406 13.2953 11.2678 13.2953 12.0406V13.4406H14.6953C15.4681 13.4406 16.0953 14.0678 16.0953 14.8406C16.0953 15.6134 15.4681 16.2406 14.6953 16.2406ZM30.0953 10.6406C30.8667 10.6406 31.4953 11.2692 31.4953 12.0406C31.4953 12.812 30.8667 13.4406 30.0953 13.4406C29.3239 13.4406 28.6953 12.812 28.6953 12.0406C28.6953 11.2692 29.3239 10.6406 30.0953 10.6406ZM27.2953 16.2406C26.5239 16.2406 25.8953 15.612 25.8953 14.8406C25.8953 14.0692 26.5239 13.4406 27.2953 13.4406C28.0667 13.4406 28.6953 14.0692 28.6953 14.8406C28.6953 15.612 28.0667 16.2406 27.2953 16.2406ZM30.0953 19.0406C29.3239 19.0406 28.6953 18.412 28.6953 17.6406C28.6953 16.8692 29.3239 16.2406 30.0953 16.2406C30.8667 16.2406 31.4953 16.8692 31.4953 17.6406C31.4953 18.412 30.8667 19.0406 30.0953 19.0406ZM32.8953 16.2406C32.1239 16.2406 31.4953 15.612 31.4953 14.8406C31.4953 14.0692 32.1239 13.4406 32.8953 13.4406C33.6667 13.4406 34.2953 14.0692 34.2953 14.8406C34.2953 15.612 33.6667 16.2406 32.8953 16.2406Z" fill="url(#paint0_linear_1632_674)"/>
<path d="M19.5253 29.0507C18.8365 28.5341 17.8453 29.0255 17.8453 29.8907V30.8511C16.9857 30.8035 16.1457 30.7405 15.3491 30.6523C8.52411 29.9495 6.29531 28.2863 6.29531 27.7907C6.29531 27.6395 6.75591 26.9269 8.99451 26.1821C9.45931 26.0743 9.80231 25.6571 9.80231 25.1587C9.80231 24.4685 9.07571 23.9477 8.41911 24.1605C5.61631 25.0775 4.19531 26.2983 4.19531 27.7907C4.19531 31.2431 11.8449 32.4023 15.1265 32.7411C15.9945 32.8363 16.9059 32.9063 17.8453 32.9567V34.0907C17.8453 34.9587 18.8393 35.4445 19.5253 34.9307L22.3253 32.8307C22.8825 32.4121 22.8853 31.5707 22.3253 31.1507L19.5253 29.0507Z" fill="#A182ED"/>
<path d="M33.5656 24.1607C33.0126 23.9801 32.4218 24.2825 32.2412 24.8341C32.062 25.3857 32.363 25.9779 32.9146 26.1585C35.1854 26.8977 35.6964 27.6033 35.6964 27.7923C35.6964 28.4125 32.8166 30.1415 25.6892 30.7365C25.111 30.7855 24.6826 31.2923 24.7302 31.8705C24.7764 32.4235 25.2496 32.8715 25.8642 32.8295C29.451 32.5271 37.7964 31.4365 37.7964 27.7909C37.7964 26.2971 36.3726 25.0749 33.5656 24.1607Z" fill="#A182ED"/>
<defs>
<linearGradient id="paint0_linear_1632_674" x1="37.7953" y1="7.14062" x2="21.584" y2="28.2755" gradientUnits="userSpaceOnUse">
<stop stop-color="#FF8950"/>
<stop offset="1" stop-color="#A182ED"/>
</linearGradient>
</defs>
</svg>
