<svg width="48" height="48" viewBox="0 0 48 48" fill="none" xmlns="http://www.w3.org/2000/svg">
<path d="M17.3483 36.1711C17.879 35.5062 17.7753 34.5301 17.1103 33.9993C16.7931 33.7431 16.4515 33.6211 16.0976 33.6211C16.0366 33.6211 15.9756 33.6272 15.9146 33.6333C15.4998 33.6821 15.1337 33.8895 14.8836 34.219L12.8399 36.8605C12.6081 37.1533 12.4922 37.4828 12.4922 37.8244C12.4922 38.2941 12.7057 38.7334 13.0717 39.0323C13.7306 39.5631 14.7067 39.4533 15.2436 38.7944L17.3483 36.1711Z" fill="#A182ED"/>
<path d="M11.9588 36.006L14.0147 33.3583C14.2465 33.0533 14.3746 32.6933 14.3746 32.3151C14.3746 31.7905 14.1367 31.3024 13.7218 30.973C13.429 30.7412 13.0691 30.6191 12.6969 30.6191C12.6237 30.6191 12.5505 30.6252 12.4773 30.6313C12.0259 30.6862 11.6293 30.9181 11.3548 31.2719L9.29892 33.9196C8.73156 34.6577 8.85968 35.7192 9.59175 36.2866C9.95168 36.5672 10.3909 36.6892 10.8363 36.6343C11.2877 36.5855 11.6842 36.3598 11.9588 36.006Z" fill="#A182ED"/>
<path d="M20.1744 38.9094L20.1988 38.8728C20.205 38.8667 20.211 38.8605 20.211 38.8544C20.2172 38.8422 20.2294 38.8239 20.2355 38.8117C20.388 38.5921 20.4673 38.3298 20.4673 38.0614C20.4673 37.6343 20.2721 37.2439 19.9365 36.9938C19.6986 36.8169 19.4241 36.7314 19.1434 36.7314C18.753 36.7314 18.3626 36.9023 18.1063 37.2256L16.5507 39.1534C16.3189 39.4401 16.2213 39.8 16.2701 40.1661C16.3189 40.526 16.5019 40.8371 16.7947 41.0568L16.9045 41.1483C17.1486 41.3313 17.5024 41.4167 17.8562 41.3679C18.2101 41.3191 18.5151 41.13 18.7286 40.8493L20.1744 38.9094Z" fill="#A182ED"/>
<path d="M34.8426 22.9141L33.5127 19.632L32.7257 20.0712C32.1767 20.3823 31.5117 20.5105 30.865 20.4189L23.9836 19.4001C23.1417 19.2781 22.2693 19.5588 21.6593 20.1444L21.0065 20.7728C21.0065 20.7728 21.0065 20.7728 21.0004 20.7789L18.4748 23.2008C18.31 23.3594 18.2734 23.5424 18.2734 23.6706C18.2734 23.8719 18.371 24.1403 18.6456 24.2684C19.8901 24.8663 21.3542 24.8358 22.5744 24.1952L23.2393 23.8475C23.6664 23.6218 24.1361 23.5119 24.6058 23.5119C25.2647 23.5119 25.9175 23.7316 26.4482 24.1647L26.7777 24.427L32.9209 29.3502C33.2199 29.582 33.531 29.7772 33.8482 29.9115C33.9519 29.9542 34.074 30.003 34.1899 30.0457C34.2692 30.0762 34.3546 30.1067 34.44 30.125C34.5559 30.1616 34.6413 30.1799 34.7267 30.1921C34.8609 30.2165 34.9829 30.2409 35.105 30.247C35.2514 30.2653 35.3551 30.2714 35.4588 30.2714C35.7211 30.2775 35.9468 30.2714 36.1543 30.2409L37.716 30.0213L34.8426 22.9141Z" fill="#A182ED"/>
<path d="M38.5447 16.4421C38.5081 16.3506 38.4471 16.3079 38.3983 16.2896C38.3617 16.2713 38.2762 16.253 38.1847 16.2957L34.4451 17.955C34.3048 18.016 34.2377 18.1747 34.2926 18.3089L34.5549 18.9555L35.1039 20.3038L39.0876 30.1379C39.1791 30.2965 39.3255 30.3331 39.4415 30.2782L43.1872 28.625C43.3214 28.564 43.3824 28.4114 43.3275 28.2711L38.5447 16.4421Z" fill="#A182ED"/>
<path fill-rule="evenodd" clip-rule="evenodd" d="M9.87102 25.4092L8.03474 27.8982C8.02864 27.8982 8.02864 27.9043 8.02864 27.9043L7.68091 28.3741C7.6199 28.4534 7.54669 28.4778 7.49789 28.4839C7.41858 28.4961 7.34537 28.4778 7.28437 28.429L4.41709 26.1656C4.30118 26.068 4.27678 25.9033 4.36829 25.7813L11.3169 16.3498C11.3779 16.2705 11.4572 16.2522 11.4999 16.2461H11.5365C11.5792 16.2461 11.6402 16.2522 11.7012 16.301L14.5929 18.5826C14.7088 18.668 14.7271 18.8388 14.6478 18.9426L14.5563 19.0646L14.538 19.0829L10.5482 24.4941L10.536 24.5063L9.87102 25.4092ZM34.5441 31.3816C34.7088 31.4121 34.8735 31.4426 35.0016 31.4487C35.0084 31.451 35.0161 31.4524 35.0243 31.4539C35.0381 31.4565 35.0534 31.4594 35.0687 31.467C35.2335 31.9795 35.1053 32.5529 34.721 32.9373C34.2147 33.4314 33.3972 33.4924 32.842 33.0837L27.7419 29.3135C27.5345 29.1671 27.2722 29.161 27.0648 29.283L27.0587 29.2891C26.9977 29.3257 26.9367 29.3745 26.8879 29.4416C26.6865 29.7161 26.7475 30.0944 27.016 30.2957L29.5233 32.1564L31.6341 33.7242C31.994 33.9866 32.2198 34.377 32.2747 34.8162C32.3296 35.2555 32.2015 35.6886 31.9147 36.0303C31.384 36.6586 30.4506 36.7745 29.7795 36.2987L25.381 33.1508C25.1004 32.9556 24.7221 33.0166 24.5269 33.2911C24.3317 33.5656 24.3927 33.95 24.6672 34.1452L28.8705 37.1528C28.8746 37.1528 28.7353 37.0554 28.7354 37.0552C28.7355 37.055 28.7707 37.0794 28.8766 37.1528C29.1939 37.3724 29.3891 37.7201 29.4196 38.1045C29.4501 38.4888 29.3159 38.8609 29.0414 39.1355C28.5777 39.5991 27.8456 39.6479 27.3271 39.2514L23.1787 36.0181C22.9164 35.8106 22.532 35.8594 22.3246 36.1218C22.1172 36.3841 22.166 36.7684 22.4283 36.9758L26.0582 39.8065C26.3937 40.0627 26.6011 40.4471 26.6255 40.8619C26.656 41.2829 26.5035 41.6855 26.2046 41.9844C25.7104 42.4847 24.8625 42.5335 24.3073 42.1125L24.289 42.1003C24.5574 41.6855 24.7038 41.1975 24.7038 40.685C24.7038 39.7943 24.2585 38.9768 23.5142 38.4949C22.9713 38.1472 22.3185 38.0251 21.6963 38.1228C21.6963 38.1097 21.698 38.0984 21.6996 38.0878C21.701 38.0787 21.7024 38.0702 21.7024 38.0618C21.7024 37.2443 21.3241 36.5 20.6775 36.0181C20.1406 35.6154 19.5 35.4568 18.8839 35.5239C18.9815 34.6088 18.6277 33.6571 17.8407 33.0166C17.255 32.5407 16.523 32.3333 15.7787 32.4187C15.7384 32.4224 15.6982 32.4326 15.6579 32.4429C15.631 32.4497 15.6042 32.4565 15.5774 32.4614C15.5774 32.437 15.5804 32.4126 15.5835 32.3882C15.5865 32.3638 15.5896 32.3394 15.5896 32.315C15.5896 31.4121 15.1869 30.5763 14.4732 30.0151C13.8631 29.5392 13.1005 29.3318 12.3258 29.4294C11.6608 29.5148 11.0629 29.826 10.6054 30.3018V30.1249C10.6054 29.4416 10.2821 28.8011 9.7513 28.4167L9.37917 28.1361L10.1539 27.0868L11.1544 25.7264L11.4778 25.2871C11.4869 25.278 11.4945 25.2673 11.5022 25.2566C11.5098 25.2459 11.5174 25.2353 11.5266 25.2261L15.132 20.3273L15.3089 20.4921C15.6445 20.791 16.0837 20.9557 16.5413 20.9557H19.0608L17.6394 22.3161C17.2672 22.6761 17.0659 23.1519 17.0659 23.6644C17.0659 24.3964 17.4807 25.0492 18.1396 25.3603C19.7258 26.1168 21.6047 26.0802 23.1543 25.2627L23.8193 24.915C24.4293 24.5978 25.1675 24.671 25.7043 25.1041L32.1832 30.2896C32.5675 30.5885 32.964 30.8326 33.3789 31.0156C33.5192 31.0766 33.6595 31.1315 33.7937 31.1803C33.8267 31.1907 33.8601 31.2016 33.8934 31.2124C33.977 31.2397 34.0594 31.2665 34.1292 31.284C34.2757 31.3328 34.4221 31.3633 34.5441 31.3816Z" fill="url(#paint0_linear_1632_675)"/>
<path d="M22.9728 41.8795L23.2595 41.4342C23.4059 41.2146 23.4791 40.9522 23.4791 40.6777C23.4791 40.2019 23.2412 39.7626 22.8508 39.5125C22.4054 39.2258 21.8259 39.2258 21.3683 39.5003C21.3195 39.5247 21.3012 39.5491 21.2707 39.5735C21.2646 39.5796 21.2524 39.5857 21.2463 39.5918C21.2402 39.5918 21.2402 39.5979 21.2341 39.604C21.2097 39.6223 21.1792 39.6589 21.1548 39.6833C20.984 39.8968 20.5509 40.4581 20.1665 40.9644C19.9469 41.2756 19.8615 41.6477 19.9286 42.0198C20.0018 42.3981 20.2153 42.7153 20.5387 42.9227L20.6241 42.9776C20.923 43.1728 21.2951 43.2461 21.649 43.1667C22.015 43.0874 22.3261 42.8739 22.5274 42.5628L22.9728 41.8795C22.9667 41.8856 22.9667 41.8856 22.9728 41.8795Z" fill="#A182ED"/>
<path fill-rule="evenodd" clip-rule="evenodd" d="M23.8246 15.6522C26.8214 15.6522 29.2508 13.2228 29.2508 10.226C29.2508 7.22919 26.8214 4.7998 23.8246 4.7998C20.8278 4.7998 18.3984 7.22919 18.3984 10.226C18.3984 13.2228 20.8278 15.6522 23.8246 15.6522ZM27.0959 8.74807C27.3219 8.51996 27.3219 8.15012 27.0959 7.92201C26.87 7.6939 26.5036 7.6939 26.2776 7.92201L22.8706 11.3614L21.3716 9.84821C21.1456 9.6201 20.7793 9.6201 20.5533 9.84821C20.3273 10.0763 20.3273 10.4462 20.5533 10.6743L22.1886 12.3251C22.5653 12.7053 23.1759 12.7053 23.5525 12.3251L27.0959 8.74807Z" fill="#A182ED"/>
<defs>
<linearGradient id="paint0_linear_1632_675" x1="35.1391" y1="16.2461" x2="8.30145" y2="35.1496" gradientUnits="userSpaceOnUse">
<stop stop-color="#FF8950"/>
<stop offset="1" stop-color="#A182ED"/>
</linearGradient>
</defs>
</svg>
