<svg width="58" height="58" viewBox="0 0 58 58" fill="none" xmlns="http://www.w3.org/2000/svg">
<path d="M20.9693 43.7044C21.6106 42.9009 21.4853 41.7214 20.6818 41.0801C20.2985 40.7705 19.8857 40.623 19.4581 40.623C19.3844 40.623 19.3107 40.6304 19.237 40.6378C18.7357 40.6968 18.2934 40.9474 17.9912 41.3455L15.5217 44.5373C15.2416 44.8912 15.1016 45.2892 15.1016 45.702C15.1016 46.2696 15.3596 46.8004 15.8019 47.1616C16.598 47.8029 17.7774 47.6702 18.4261 46.8741L20.9693 43.7044Z" fill="#FCFCFC"/>
<path d="M14.4538 43.5052L16.938 40.3059C17.2181 39.9373 17.3729 39.5024 17.3729 39.0454C17.3729 38.4114 17.0854 37.8217 16.5841 37.4236C16.2303 37.1435 15.7954 36.9961 15.3457 36.9961C15.2573 36.9961 15.1688 37.0035 15.0803 37.0108C14.5349 37.0772 14.0557 37.3573 13.724 37.7848L11.2398 40.9841C10.5542 41.8761 10.709 43.1587 11.5936 43.8443C12.0285 44.1833 12.5593 44.3308 13.0974 44.2644C13.6429 44.2055 14.122 43.9327 14.4538 43.5052Z" fill="#FCFCFC"/>
<path d="M24.381 47.0145L24.4105 46.9702C24.4179 46.9629 24.4253 46.9555 24.4253 46.9481C24.4326 46.9334 24.4474 46.9113 24.4548 46.8965C24.639 46.6311 24.7349 46.3142 24.7349 45.9898C24.7349 45.4738 24.499 45.002 24.0935 44.6998C23.8061 44.486 23.4743 44.3828 23.1352 44.3828C22.6635 44.3828 22.1917 44.5892 21.8821 44.9799L20.0023 47.3093C19.7222 47.6558 19.6043 48.0907 19.6632 48.533C19.7222 48.9679 19.9434 49.3439 20.2972 49.6092L20.4299 49.7198C20.7248 49.941 21.1523 50.0442 21.5799 49.9852C22.0074 49.9262 22.376 49.6977 22.634 49.3586L24.381 47.0145Z" fill="#FCFCFC"/>
<path d="M42.0914 27.6881L40.4844 23.7223L39.5335 24.253C38.8701 24.629 38.0666 24.7838 37.2852 24.6732L28.9701 23.4421C27.9528 23.2947 26.8987 23.6338 26.1615 24.3415L25.3728 25.1007C25.3728 25.1007 25.3728 25.1007 25.3654 25.1081L22.3136 28.0346C22.1145 28.2263 22.0703 28.4474 22.0703 28.6022C22.0703 28.8455 22.1883 29.1698 22.52 29.3246C24.0238 30.047 25.7929 30.0102 27.2673 29.2362L28.0707 28.816C28.5868 28.5432 29.1544 28.4106 29.722 28.4106C30.5181 28.4106 31.3069 28.6759 31.9482 29.1993L32.3462 29.5163L39.7694 35.4651C40.1306 35.7452 40.5065 35.9811 40.8899 36.1433C41.0152 36.1949 41.1626 36.2539 41.3027 36.3055C41.3985 36.3423 41.5017 36.3792 41.6049 36.4013C41.745 36.4455 41.8482 36.4677 41.9514 36.4824C42.1135 36.5119 42.261 36.5414 42.4084 36.5487C42.5853 36.5709 42.7106 36.5782 42.8359 36.5782C43.1529 36.5856 43.4257 36.5782 43.6763 36.5414L45.5634 36.276L42.0914 27.6881Z" fill="#FCFCFC"/>
<path d="M46.583 19.8667C46.5387 19.7561 46.465 19.7045 46.406 19.6824C46.3618 19.6603 46.2586 19.6382 46.148 19.6898L41.6293 21.6949C41.4597 21.7686 41.3786 21.9602 41.445 22.1224L41.762 22.9038L42.4254 24.5329L47.239 36.4158C47.3496 36.6075 47.5265 36.6517 47.6666 36.5854L52.1927 34.5877C52.3549 34.514 52.4286 34.3297 52.3622 34.1601L46.583 19.8667Z" fill="#FCFCFC"/>
<path fill-rule="evenodd" clip-rule="evenodd" d="M11.9275 30.7019L9.70864 33.7095C9.70127 33.7095 9.70127 33.7169 9.70127 33.7169L9.28109 34.2845C9.20738 34.3803 9.11892 34.4098 9.05995 34.4172C8.96412 34.4319 8.87566 34.4098 8.80194 34.3509L5.33732 31.616C5.19726 31.4981 5.16777 31.299 5.27835 31.1516L13.6745 19.7552C13.7483 19.6594 13.8441 19.6373 13.8957 19.6299H13.9399C13.9915 19.6299 14.0652 19.6373 14.1389 19.6962L17.6331 22.4532C17.7731 22.5564 17.7952 22.7628 17.6994 22.8881L17.5888 23.0355L17.5667 23.0577L12.7457 29.5962L12.731 29.611L11.9275 30.7019ZM41.7438 37.918C41.9429 37.9549 42.1419 37.9917 42.2967 37.9991C42.3049 38.0019 42.3142 38.0036 42.3241 38.0054C42.3408 38.0085 42.3593 38.012 42.3778 38.0212C42.5768 38.6404 42.422 39.3334 41.9576 39.7978C41.3458 40.3949 40.358 40.4686 39.6872 39.9747L33.5246 35.4191C33.2739 35.2422 32.957 35.2348 32.7063 35.3822L32.6989 35.3896C32.6252 35.4338 32.5515 35.4928 32.4925 35.5739C32.2493 35.9056 32.323 36.3626 32.6473 36.6059L35.6771 38.8542L38.2276 40.7487C38.6625 41.0657 38.9353 41.5375 39.0016 42.0682C39.068 42.599 38.9132 43.1223 38.5667 43.5351C37.9254 44.2944 36.7975 44.4345 35.9867 43.8595L30.6718 40.0558C30.3327 39.8199 29.8757 39.8936 29.6398 40.2253C29.4039 40.557 29.4776 41.0214 29.8093 41.2573L34.8883 44.8915C34.8932 44.8915 34.7249 44.7738 34.725 44.7736C34.7251 44.7734 34.7676 44.8029 34.8957 44.8915C35.279 45.1569 35.5149 45.5771 35.5517 46.0415C35.5886 46.5059 35.4264 46.9555 35.0947 47.2873C34.5345 47.8475 33.6499 47.9065 33.0233 47.4273L28.0106 43.5204C27.6937 43.2698 27.2293 43.3287 26.9786 43.6457C26.728 43.9627 26.787 44.4271 27.1039 44.6777L31.49 48.0981C31.8955 48.4077 32.1461 48.8721 32.1756 49.3734C32.2124 49.882 32.0281 50.3686 31.6669 50.7298C31.0698 51.3342 30.0452 51.3932 29.3744 50.8846L29.3523 50.8698C29.6766 50.3686 29.8535 49.7788 29.8535 49.1596C29.8535 48.0834 29.3154 47.0956 28.4161 46.5132C27.76 46.0931 26.9713 45.9456 26.2194 46.0636C26.2194 46.0478 26.2215 46.0341 26.2234 46.0214C26.2251 46.0104 26.2267 46.0001 26.2267 45.9899C26.2267 45.0021 25.7697 44.1028 24.9883 43.5204C24.3396 43.0339 23.5656 42.8422 22.8211 42.9233C22.939 41.8176 22.5115 40.6676 21.5605 39.8936C20.8529 39.3186 19.9683 39.068 19.069 39.1712C19.0203 39.1756 18.9717 39.188 18.923 39.2004C18.8906 39.2086 18.8581 39.2169 18.8257 39.2228C18.8257 39.1933 18.8294 39.1638 18.8331 39.1343C18.8368 39.1048 18.8404 39.0754 18.8404 39.0459C18.8404 37.9549 18.3539 36.945 17.4915 36.2668C16.7543 35.6918 15.8329 35.4412 14.8967 35.5591C14.0932 35.6623 13.3708 36.0383 12.8179 36.6133V36.3995C12.8179 35.5739 12.4272 34.7999 11.7859 34.3355L11.3362 33.9964L12.2724 32.7285L13.4813 31.0846L13.872 30.5539C13.8831 30.5428 13.8923 30.5299 13.9015 30.517C13.9107 30.5041 13.9199 30.4912 13.931 30.4801L18.2876 24.5608L18.5014 24.7598C18.9068 25.121 19.4375 25.3201 19.9904 25.3201H23.0349L21.3173 26.9639C20.8676 27.3988 20.6244 27.9738 20.6244 28.593C20.6244 29.4776 21.1256 30.2664 21.9218 30.6423C23.8384 31.5564 26.1088 31.5122 27.9812 30.5244L28.7847 30.1042C29.5218 29.7209 30.4138 29.8093 31.0625 30.3327L38.891 36.5985C39.3555 36.9597 39.8346 37.2546 40.3359 37.4757C40.5054 37.5494 40.675 37.6158 40.8371 37.6748C40.877 37.6873 40.9174 37.7005 40.9576 37.7136C41.0587 37.7466 41.1582 37.779 41.2426 37.8001C41.4195 37.8591 41.5964 37.8959 41.7438 37.918Z" fill="#FCFCFC"/>
<path d="M27.7523 50.6053L28.0987 50.0672C28.2757 49.8018 28.3641 49.4848 28.3641 49.1531C28.3641 48.5781 28.0766 48.0474 27.6048 47.7451C27.0667 47.3987 26.3664 47.3987 25.8136 47.7304C25.7546 47.7599 25.7325 47.7893 25.6956 47.8188C25.6882 47.8262 25.6735 47.8336 25.6661 47.8409C25.6588 47.8409 25.6588 47.8483 25.6514 47.8557C25.6219 47.8778 25.585 47.922 25.5556 47.9515C25.3492 48.2095 24.8258 48.8877 24.3614 49.4995C24.096 49.8755 23.9928 50.3252 24.0739 50.7748C24.1623 51.2319 24.4203 51.6152 24.811 51.8658L24.9142 51.9322C25.2754 52.168 25.7251 52.2565 26.1526 52.1607C26.5949 52.0648 26.9709 51.8068 27.2142 51.4309L27.7523 50.6053C27.7449 50.6126 27.7449 50.6126 27.7523 50.6053Z" fill="#FCFCFC"/>
<path fill-rule="evenodd" clip-rule="evenodd" d="M28.7832 18.9131C32.4043 18.9131 35.3398 15.9776 35.3398 12.3564C35.3398 8.73531 32.4043 5.7998 28.7832 5.7998C25.1621 5.7998 22.2266 8.73531 22.2266 12.3564C22.2266 15.9776 25.1621 18.9131 28.7832 18.9131ZM32.736 10.5706C33.0091 10.295 33.0091 9.8481 32.736 9.57247C32.463 9.29683 32.0203 9.29683 31.7473 9.57247L27.6304 13.7284L25.8191 11.9C25.5461 11.6243 25.1034 11.6243 24.8304 11.9C24.5573 12.1756 24.5573 12.6225 24.8304 12.8981L26.8064 14.8929C27.2615 15.3523 27.9993 15.3523 28.4544 14.8929L32.736 10.5706Z" fill="#FCFCFC"/>
</svg>
