<svg width="44" height="44" viewBox="0 0 44 44" fill="none" xmlns="http://www.w3.org/2000/svg">
<path d="M36.6597 37.8413V39.0147C36.6597 39.1703 36.5979 39.3195 36.4879 39.4295C36.3779 39.5395 36.2286 39.6013 36.0731 39.6013H24.9264C24.7708 39.6013 24.6216 39.5395 24.5116 39.4295C24.4015 39.3195 24.3397 39.1703 24.3397 39.0147V37.8413C24.3402 37.3747 24.5258 36.9273 24.8558 36.5974C25.1857 36.2674 25.6331 36.0818 26.0997 36.0813H34.8997C35.3663 36.0818 35.8137 36.2674 36.1437 36.5974C36.4736 36.9273 36.6592 37.3747 36.6597 37.8413ZM35.9909 22.5997C35.7046 22.5702 35.4152 22.6009 35.1414 22.6898C34.8676 22.7787 34.6154 22.9239 34.4011 23.116L34.3131 23.204C34.1218 23.009 33.8936 22.854 33.6418 22.7483C33.3899 22.6425 33.1195 22.588 32.8464 22.588C32.5732 22.588 32.3028 22.6425 32.051 22.7483C31.7992 22.854 31.571 23.009 31.3797 23.204C31.1887 23.0086 30.9606 22.8535 30.7087 22.7477C30.4568 22.6419 30.1863 22.5876 29.9131 22.588C29.6084 22.5872 29.3076 22.6554 29.0331 22.7875V18.2701C29.0396 17.7519 28.8556 17.2493 28.516 16.8578C28.1764 16.4663 27.7049 16.2131 27.1909 16.1464C26.9048 16.1158 26.6155 16.1458 26.3418 16.2345C26.0682 16.3232 25.8163 16.4687 25.6026 16.6613C25.3889 16.854 25.2182 17.0895 25.1017 17.3526C24.9852 17.6156 24.9255 17.9003 24.9264 18.188V26.0376L23.7589 24.4008C23.4866 24.0218 23.1281 23.713 22.7129 23.4998C22.2978 23.2866 21.8379 23.1752 21.3712 23.1747C21.0878 23.1751 20.8091 23.2469 20.5608 23.3835C20.3125 23.5201 20.1027 23.7171 19.9507 23.9562C19.7986 24.1954 19.7093 24.469 19.691 24.7517C19.6727 25.0345 19.726 25.3174 19.8459 25.5741L23.1957 32.7725C23.6196 33.687 24.2575 34.4858 25.0555 35.1016C25.3888 34.9738 25.7427 34.9082 26.0997 34.908H34.8997C35.2924 34.9079 35.6813 34.9857 36.0437 35.1368C37.1111 33.9342 37.7416 32.4067 37.8331 30.8013V24.7235C37.8396 24.2052 37.6556 23.7027 37.316 23.3111C36.9764 22.9196 36.5049 22.6665 35.9909 22.5997Z" fill="#A182ED"/>
<path d="M39.5906 7.24275V16.8133C39.5897 17.5666 39.2901 18.2888 38.7574 18.8215C38.2247 19.3542 37.5025 19.6538 36.7492 19.6547H30.2039V18.2702C30.2023 17.4412 29.8941 16.642 29.3387 16.0264C29.4273 16.0891 29.5315 16.1261 29.6398 16.133C29.7481 16.14 29.8563 16.1168 29.9522 16.0659L31.9639 14.9949L33.9757 16.0659C34.0728 16.1176 34.1825 16.141 34.2922 16.1333C34.402 16.1256 34.5073 16.0873 34.5963 16.0226C34.6853 15.958 34.7543 15.8696 34.7955 15.7676C34.8366 15.6656 34.8483 15.5541 34.8291 15.4458L34.4324 13.2017L36.0723 11.6193C36.1515 11.5429 36.2076 11.4458 36.2343 11.3391C36.2609 11.2324 36.257 11.1203 36.2231 11.0157C36.1891 10.9111 36.1263 10.8182 36.042 10.7475C35.9578 10.6768 35.8553 10.6313 35.7463 10.6161L33.4896 10.2998L32.4913 8.25107C32.4375 8.159 32.3605 8.08264 32.2679 8.02957C32.1754 7.9765 32.0706 7.94857 31.9639 7.94857C31.8573 7.94857 31.7525 7.9765 31.66 8.02957C31.5674 8.08264 31.4904 8.159 31.4366 8.25107L30.4383 10.2998L28.1816 10.6161C28.0726 10.6313 27.9701 10.6768 27.8859 10.7475C27.8016 10.8182 27.7388 10.9111 27.7048 11.0157C27.6709 11.1204 27.667 11.2324 27.6936 11.3391C27.7203 11.4459 27.7764 11.5429 27.8556 11.6193L29.4955 13.2017L29.0988 15.4458C29.0846 15.5262 29.0874 15.6087 29.1069 15.688C29.1265 15.7672 29.1623 15.8416 29.2122 15.9062C28.7044 15.3845 28.0303 15.0566 27.3064 14.9791C26.8554 14.9333 26.3998 14.9825 25.969 15.1236C25.5381 15.2647 25.1416 15.4944 24.8051 15.7981L24.8037 15.7995C24.8577 15.69 24.8759 15.5662 24.8558 15.4458L24.459 13.2017L26.099 11.6193C26.1782 11.5429 26.2343 11.4459 26.261 11.3391C26.2876 11.2324 26.2837 11.1204 26.2497 11.0157C26.2157 10.9111 26.153 10.8182 26.0687 10.7475C25.9844 10.6768 25.882 10.6313 25.773 10.6161L23.5163 10.2998L22.518 8.25107C22.4641 8.159 22.3871 8.08264 22.2946 8.02957C22.2021 7.9765 22.0973 7.94857 21.9906 7.94857C21.884 7.94857 21.7792 7.9765 21.6866 8.02957C21.5941 8.08264 21.5171 8.159 21.4632 8.25107L20.4649 10.2998L18.2082 10.6161C18.0993 10.6313 17.9968 10.6768 17.9125 10.7475C17.8282 10.8182 17.7655 10.9111 17.7315 11.0157C17.6975 11.1204 17.6936 11.2324 17.7203 11.3391C17.7469 11.4459 17.8031 11.5429 17.8822 11.6193L19.5222 13.2017L19.1255 15.4458C19.1063 15.5541 19.118 15.6656 19.1591 15.7676C19.2003 15.8696 19.2693 15.958 19.3583 16.0227C19.4472 16.0873 19.5526 16.1257 19.6623 16.1333C19.7721 16.141 19.8817 16.1176 19.9788 16.066L21.9906 14.9949L24.0024 16.0659C24.0871 16.1124 24.1824 16.1361 24.2789 16.1347C24.3755 16.1333 24.47 16.1068 24.5533 16.058C24.0377 16.648 23.7527 17.4045 23.7506 18.188V19.6547H7.232C6.4787 19.6538 5.7565 19.3542 5.22383 18.8215C4.69116 18.2888 4.39152 17.5666 4.39062 16.8133V7.24275C4.39152 6.48944 4.69116 5.76724 5.22383 5.23457C5.7565 4.7019 6.4787 4.40226 7.232 4.40137H36.7492C37.5025 4.40226 38.2247 4.7019 38.7574 5.23457C39.2901 5.76724 39.5897 6.48944 39.5906 7.24275ZM16.2764 11.0157C16.2424 10.9111 16.1797 10.8181 16.0954 10.7475C16.0111 10.6768 15.9086 10.6313 15.7997 10.6161L13.543 10.2998L12.5447 8.25107C12.4908 8.159 12.4138 8.08264 12.3213 8.02957C12.2288 7.9765 12.124 7.94857 12.0173 7.94857C11.9106 7.94857 11.8058 7.9765 11.7133 8.02957C11.6208 8.08264 11.5438 8.159 11.4899 8.25107L10.4916 10.2998L8.23489 10.6161C8.12595 10.6313 8.02349 10.6768 7.9392 10.7475C7.8549 10.8182 7.79218 10.9111 7.75819 11.0157C7.72419 11.1204 7.7203 11.2324 7.74695 11.3391C7.7736 11.4459 7.82972 11.5429 7.9089 11.6193L9.54888 13.2017L9.15213 15.4458C9.13296 15.5541 9.14462 15.6656 9.18579 15.7676C9.22695 15.8696 9.29596 15.958 9.38493 16.0227C9.47391 16.0873 9.57927 16.1257 9.689 16.1333C9.79873 16.141 9.90839 16.1176 10.0055 16.066L12.0173 14.9949L14.0291 16.0659C14.1262 16.1176 14.2359 16.141 14.3456 16.1333C14.4553 16.1256 14.5607 16.0873 14.6496 16.0226C14.7386 15.958 14.8076 15.8696 14.8488 15.7676C14.89 15.6656 14.9016 15.5541 14.8824 15.4458L14.4857 13.2017L16.1257 11.6193C16.2048 11.5429 16.2609 11.4458 16.2876 11.3391C16.3142 11.2324 16.3103 11.1203 16.2764 11.0157Z" fill="url(#paint0_linear_1632_676)"/>
<defs>
<linearGradient id="paint0_linear_1632_676" x1="39.5906" y1="4.40137" x2="23.7884" y2="26.1915" gradientUnits="userSpaceOnUse">
<stop stop-color="#FF8950"/>
<stop offset="1" stop-color="#A182ED"/>
</linearGradient>
</defs>
</svg>
