<svg width="52" height="52" viewBox="0 0 52 52" fill="none" xmlns="http://www.w3.org/2000/svg">
<path d="M43.3237 44.7225V46.1092C43.3237 46.2931 43.2507 46.4694 43.1206 46.5995C42.9906 46.7295 42.8143 46.8025 42.6304 46.8025H29.457C29.2732 46.8025 29.0968 46.7295 28.9668 46.5995C28.8368 46.4694 28.7637 46.2931 28.7637 46.1092V44.7225C28.7643 44.1711 28.9836 43.6424 29.3736 43.2524C29.7635 42.8625 30.2922 42.6431 30.8437 42.6425H41.2437C41.7952 42.6431 42.3239 42.8625 42.7138 43.2524C43.1038 43.6424 43.3231 44.1711 43.3237 44.7225ZM42.5333 26.7098C42.1949 26.6749 41.8529 26.7111 41.5293 26.8162C41.2058 26.9213 40.9077 27.0928 40.6544 27.3199L40.5504 27.4239C40.3244 27.1934 40.0547 27.0103 39.757 26.8853C39.4594 26.7603 39.1398 26.6959 38.817 26.6959C38.4942 26.6959 38.1747 26.7603 37.877 26.8853C37.5794 27.0103 37.3097 27.1934 37.0837 27.4239C36.858 27.193 36.5883 27.0097 36.2906 26.8846C35.993 26.7596 35.6732 26.6954 35.3504 26.6959C34.9903 26.6949 34.6348 26.7755 34.3104 26.9316V21.593C34.3181 20.9805 34.1007 20.3865 33.6993 19.9239C33.298 19.4612 32.7407 19.162 32.1333 19.0831C31.7952 19.0469 31.4533 19.0824 31.1299 19.1872C30.8064 19.2921 30.5087 19.4639 30.2562 19.6916C30.0036 19.9193 29.8019 20.1977 29.6642 20.5086C29.5265 20.8194 29.4559 21.1559 29.457 21.4959V30.7727L28.0773 28.8383C27.7555 28.3904 27.3318 28.0254 26.8411 27.7734C26.3505 27.5215 25.807 27.3898 25.2554 27.3892C24.9205 27.3897 24.5912 27.4746 24.2977 27.636C24.0043 27.7974 23.7563 28.0302 23.5766 28.3129C23.397 28.5955 23.2914 28.9188 23.2698 29.253C23.2481 29.5872 23.3111 29.9215 23.4528 30.225L27.4117 38.7322C27.9127 39.8128 28.6666 40.757 29.6096 41.4847C30.0035 41.3337 30.4218 41.2561 30.8437 41.2559H41.2437C41.7078 41.2558 42.1673 41.3477 42.5957 41.5263C43.8572 40.1051 44.6022 38.2998 44.7104 36.4026V29.2196C44.7181 28.6072 44.5007 28.0132 44.0993 27.5505C43.698 27.0878 43.1407 26.7886 42.5333 26.7098Z" fill="#FCFCFC"/>
<path d="M46.7875 8.56014V19.8708C46.7864 20.7611 46.4323 21.6146 45.8028 22.2441C45.1733 22.8736 44.3198 23.2278 43.4295 23.2288H35.6942V21.5926C35.6922 20.6128 35.328 19.6683 34.6716 18.9408C34.7763 19.015 34.8995 19.0586 35.0275 19.0668C35.1555 19.0751 35.2833 19.0476 35.3966 18.9876L37.7742 17.7218L40.1517 18.9876C40.2665 19.0486 40.3961 19.0762 40.5258 19.0672C40.6554 19.0581 40.78 19.0128 40.8851 18.9364C40.9903 18.8599 41.0718 18.7555 41.1205 18.635C41.1691 18.5144 41.1829 18.3826 41.1602 18.2546L40.6914 15.6025L42.6295 13.7324C42.7231 13.6421 42.7894 13.5274 42.8209 13.4013C42.8524 13.2752 42.8478 13.1427 42.8076 13.0191C42.7675 12.8955 42.6933 12.7856 42.5937 12.7021C42.4941 12.6186 42.373 12.5648 42.2443 12.5468L39.5772 12.173L38.3974 9.7518C38.3338 9.64299 38.2428 9.55274 38.1334 9.49002C38.0241 9.4273 37.9002 9.3943 37.7742 9.3943C37.6481 9.3943 37.5242 9.4273 37.4149 9.49002C37.3056 9.55274 37.2145 9.64299 37.1509 9.7518L35.9711 12.1731L33.3041 12.5468C33.1753 12.5648 33.0542 12.6186 32.9546 12.7021C32.855 12.7857 32.7808 12.8955 32.7407 13.0191C32.7005 13.1428 32.6959 13.2752 32.7274 13.4013C32.7589 13.5274 32.8252 13.6422 32.9188 13.7324L34.8569 15.6025L34.3881 18.2546C34.3713 18.3497 34.3746 18.4472 34.3977 18.5408C34.4207 18.6345 34.4631 18.7224 34.5221 18.7988C33.922 18.1822 33.1253 17.7946 32.2698 17.7032C31.7368 17.649 31.1983 17.7072 30.6892 17.8739C30.18 18.0406 29.7114 18.3121 29.3137 18.6711L29.3121 18.6727C29.3759 18.5432 29.3974 18.397 29.3736 18.2546L28.9047 15.6025L30.8429 13.7324C30.9364 13.6422 31.0028 13.5274 31.0343 13.4013C31.0658 13.2752 31.0611 13.1428 31.021 13.0191C30.9808 12.8955 30.9067 12.7857 30.8071 12.7021C30.7074 12.6186 30.5863 12.5648 30.4576 12.5468L27.7906 12.1731L26.6108 9.7518C26.5471 9.64299 26.4561 9.55274 26.3467 9.49002C26.2374 9.4273 26.1135 9.3943 25.9875 9.3943C25.8614 9.3943 25.7376 9.4273 25.6282 9.49002C25.5189 9.55274 25.4279 9.64299 25.3642 9.7518L24.1844 12.1731L21.5174 12.5468C21.3886 12.5648 21.2675 12.6186 21.1679 12.7021C21.0683 12.7857 20.9942 12.8955 20.954 13.0191C20.9138 13.1428 20.9092 13.2752 20.9407 13.4013C20.9722 13.5274 21.0385 13.6422 21.1321 13.7324L23.0703 15.6025L22.6014 18.2546C22.5787 18.3826 22.5925 18.5144 22.6412 18.635C22.6898 18.7555 22.7714 18.86 22.8765 18.9364C22.9817 19.0128 23.1062 19.0581 23.2359 19.0672C23.3656 19.0762 23.4952 19.0487 23.6099 18.9876L25.9875 17.7218L28.3651 18.9876C28.4651 19.0425 28.5777 19.0704 28.6918 19.0688C28.806 19.0671 28.9177 19.0359 29.0161 18.9781C28.4068 19.6755 28.0699 20.5694 28.0675 21.4955V23.2288H8.54549C7.65522 23.2278 6.80171 22.8736 6.1722 22.2441C5.54268 21.6146 5.18855 20.7611 5.1875 19.8708V8.56014C5.18855 7.66987 5.54268 6.81636 6.1722 6.18684C6.80171 5.55733 7.65522 5.2032 8.54549 5.20215H43.4295C44.3198 5.2032 45.1733 5.55733 45.8028 6.18684C46.4323 6.81636 46.7864 7.66987 46.7875 8.56014ZM19.2343 13.0191C19.1941 12.8954 19.12 12.7856 19.0204 12.7021C18.9208 12.6186 18.7997 12.5648 18.6709 12.5468L16.0039 12.1731L14.8241 9.7518C14.7604 9.64299 14.6694 9.55274 14.5601 9.49002C14.4507 9.4273 14.3269 9.3943 14.2008 9.3943C14.0748 9.3943 13.9509 9.4273 13.8416 9.49002C13.7322 9.55274 13.6412 9.64299 13.5776 9.7518L12.3978 12.1731L9.73072 12.5468C9.60198 12.5648 9.48088 12.6186 9.38127 12.7021C9.28165 12.7857 9.20752 12.8955 9.16735 13.0191C9.12717 13.1428 9.12257 13.2752 9.15407 13.4013C9.18556 13.5274 9.25189 13.6422 9.34547 13.7324L11.2836 15.6025L10.8147 18.2546C10.7921 18.3826 10.8059 18.5144 10.8545 18.635C10.9032 18.7555 10.9847 18.86 11.0899 18.9364C11.195 19.0128 11.3195 19.0581 11.4492 19.0672C11.5789 19.0762 11.7085 19.0487 11.8233 18.9876L14.2008 17.7218L16.5784 18.9876C16.6932 19.0486 16.8228 19.0762 16.9524 19.0672C17.0821 19.0581 17.2066 19.0128 17.3118 18.9364C17.417 18.8599 17.4985 18.7555 17.5472 18.635C17.5958 18.5144 17.6096 18.3826 17.5869 18.2546L17.118 15.6025L19.0562 13.7324C19.1498 13.6421 19.2161 13.5274 19.2475 13.4013C19.279 13.2751 19.2744 13.1427 19.2343 13.0191Z" fill="#FCFCFC"/>
</svg>
