<svg width="46" height="46" viewBox="0 0 46 46" fill="none" xmlns="http://www.w3.org/2000/svg">
<path d="M33.4911 25.1412C29.7213 25.1412 26.6542 28.2083 26.6542 31.9782C26.9979 41.0358 39.9856 41.0333 40.328 31.9781C40.328 28.2083 37.2609 25.1412 33.4911 25.1412ZM37.3421 30.6401L33.1391 34.843C32.7176 35.2646 32.0339 35.2646 31.6123 34.843L29.64 32.8706C29.2183 32.449 29.2183 31.7654 29.64 31.3437C30.0616 30.9221 30.7453 30.9221 31.1668 31.3437L32.3758 32.5527L35.8153 29.1133C36.237 28.6917 36.9206 28.6917 37.3421 29.1133C37.7638 29.5349 37.7638 30.2185 37.3421 30.6401Z" fill="#A182ED"/>
<path d="M24.4959 31.8403C24.546 24.4719 33.3641 20.3117 39.048 24.9082C40.4354 22.2433 41.4 19.158 41.4 15.9564C41.3782 6.68458 29.4043 2.99162 24.1163 10.4319C23.5611 11.2084 22.4134 11.2084 21.8582 10.4318C20.1307 8.0154 17.3001 6.44004 14.1011 6.44004C8.5783 6.42531 4.60151 11.1338 4.60151 16.6753H4.6C4.6 28.7145 19.064 37.4818 22.3397 39.313C22.7516 39.5433 23.2522 39.5484 23.6679 39.325C24.2927 38.9892 25.3052 38.4155 26.5096 37.6448C25.2238 36.0637 24.4628 34.0397 24.4959 31.8403Z" fill="url(#paint0_linear_1640_911)"/>
<defs>
<linearGradient id="paint0_linear_1640_911" x1="41.4" y1="6.44" x2="8.17509" y2="28.5462" gradientUnits="userSpaceOnUse">
<stop stop-color="#FF8950"/>
<stop offset="1" stop-color="#A182ED"/>
</linearGradient>
</defs>
</svg>
