<svg width="48" height="48" viewBox="0 0 48 48" fill="none" xmlns="http://www.w3.org/2000/svg">
<path fill-rule="evenodd" clip-rule="evenodd" d="M28.5771 18.9907C28.5771 21.5253 26.5224 23.58 23.9877 23.58C21.4531 23.58 19.3984 21.5253 19.3984 18.9907C19.3984 16.4561 21.4531 14.4014 23.9877 14.4014C26.5224 14.4014 28.5771 16.4561 28.5771 18.9907ZM31.1353 33.7483H16.8362C16.1635 33.7483 15.6412 33.1618 15.7186 32.4937L16.0138 29.9488C16.0987 29.2168 16.27 28.5259 16.5228 27.8953C17.117 26.4129 18.1305 25.1518 19.4535 24.2484C19.4716 24.2361 19.4898 24.2243 19.5081 24.2125C19.5206 24.2044 19.533 24.1964 19.5453 24.1882C20.7411 25.2112 22.2924 25.83 23.9857 25.83C25.679 25.83 27.2303 25.2112 28.426 24.1882C28.4383 24.1964 28.4508 24.2044 28.4632 24.2125C28.4815 24.2243 28.4998 24.2361 28.5178 24.2484C29.8409 25.1518 30.8543 26.4129 31.4486 27.8953C31.7014 28.5259 31.8726 29.2168 31.9575 29.9488L32.2528 32.4937C32.3303 33.1619 31.808 33.7483 31.1353 33.7483Z" fill="url(#paint0_linear_1632_677)"/>
<path d="M5.91425 33.7476H13.659C13.4892 33.2675 13.4271 32.7501 13.487 32.2337L13.7823 29.6888C13.8901 28.7587 14.1107 27.8734 14.4378 27.0574C14.4954 26.9137 14.5563 26.7719 14.6201 26.6316C13.7733 27.0636 12.8161 27.309 11.8021 27.309C10.2161 27.309 8.76754 26.7117 7.66737 25.7314C6.66748 26.4952 5.87473 27.5338 5.41918 28.7587C5.23993 29.2408 5.11543 29.7722 5.04913 30.3382L4.79683 32.4918C4.71861 33.1603 5.24106 33.7476 5.91425 33.7476Z" fill="#A182ED"/>
<path d="M11.8012 25.0585C13.9955 25.0585 15.7743 23.2797 15.7743 21.0854C15.7743 18.8911 13.9955 17.1123 11.8012 17.1123C9.60695 17.1123 7.82812 18.8911 7.82812 21.0854C7.82812 23.2797 9.60695 25.0585 11.8012 25.0585Z" fill="#A182ED"/>
<path d="M33.3594 26.6316C33.4231 26.7719 33.4841 26.9138 33.5417 27.0575C33.8688 27.8734 34.0893 28.7588 34.1972 29.689L34.4925 32.2338C34.5524 32.7502 34.4903 33.2676 34.3205 33.7477H42.0652C42.7384 33.7477 43.2608 33.1605 43.1825 32.4918L42.9302 30.3382C42.8639 29.7722 42.7395 29.2408 42.5602 28.7587C42.1047 27.5338 41.312 26.4952 40.3121 25.7314C39.2119 26.7118 37.7634 27.309 36.1773 27.309C35.1633 27.309 34.2061 27.0637 33.3594 26.6316Z" fill="#A182ED"/>
<path d="M36.1762 25.0585C38.3705 25.0585 40.1493 23.2797 40.1493 21.0854C40.1493 18.8911 38.3705 17.1123 36.1762 17.1123C33.9819 17.1123 32.2031 18.8911 32.2031 21.0854C32.2031 23.2797 33.9819 25.0585 36.1762 25.0585Z" fill="#A182ED"/>
<defs>
<linearGradient id="paint0_linear_1632_677" x1="32.2604" y1="14.4014" x2="15.1693" y2="23.1372" gradientUnits="userSpaceOnUse">
<stop stop-color="#FF8950"/>
<stop offset="1" stop-color="#A182ED"/>
</linearGradient>
</defs>
</svg>
