<svg width="50" height="50" viewBox="0 0 50 50" fill="none" xmlns="http://www.w3.org/2000/svg">
<path fill-rule="evenodd" clip-rule="evenodd" d="M25.8403 10.4929V5.5C30.3269 5.74521 34.595 7.51632 37.937 10.5197L34.4069 14.0492C32.0088 11.9723 29.0043 10.7251 25.8403 10.4929ZM13.5492 15.593C11.4723 17.9912 10.2251 20.9957 9.99295 24.1597H5C5.24479 19.6724 7.01593 15.4036 10.0197 12.0611L13.5492 15.593ZM9.99295 26.3403H5C5.24479 30.8275 7.01593 35.0963 10.0197 38.4388L13.5492 34.9069C11.4723 32.5087 10.2251 29.5042 9.99295 26.3403ZM35.9508 34.9069C38.0277 32.5087 39.2749 29.5042 39.507 26.3403H44.5C44.2548 30.8269 42.4836 35.0949 39.4802 38.437L35.9508 34.9069ZM35.9508 15.593C38.0277 17.9912 39.2749 20.9957 39.507 24.1597H44.5C44.2548 19.6723 42.4832 15.4034 39.479 12.0611L35.9508 15.593ZM23.6597 10.4929C20.4957 10.7251 17.4912 11.9723 15.093 14.0492L11.5611 10.5197C14.9036 7.51593 19.1724 5.74479 23.6597 5.5V10.4929ZM34.4069 36.4508C32.0088 38.5277 29.0043 39.7749 25.8403 40.007V45C30.3277 44.7549 34.5965 42.9833 37.9389 39.979L34.4069 36.4508ZM15.0931 36.4508C17.4912 38.5277 20.4957 39.7749 23.6597 40.007V45C19.1731 44.7548 14.905 42.9837 11.563 39.9803L15.0931 36.4508ZM24.75 12.6337C22.2547 12.6337 19.8155 13.3736 17.7407 14.7599C15.666 16.1462 14.0489 18.1166 13.094 20.4219C12.1391 22.7273 11.8893 25.264 12.3761 27.7113C12.8629 30.1586 14.0645 32.4067 15.8289 34.1711C17.5933 35.9355 19.8413 37.1371 22.2887 37.6239C24.736 38.1107 27.2727 37.8609 29.5781 36.906C31.8834 35.9511 33.8538 34.334 35.2401 32.2593C36.6264 30.1845 37.3663 27.7453 37.3663 25.25C37.3625 21.9051 36.0321 18.6983 33.6669 16.3331C31.3017 13.9679 28.0949 12.6375 24.75 12.6337ZM30.5367 28.1203C29.9332 28.7217 29.1654 29.1313 28.3298 29.2975C27.4942 29.4638 26.6281 29.3794 25.8403 29.0548V31.636H27.2421C27.5313 31.636 27.8086 31.7509 28.0131 31.9554C28.2175 32.1599 28.3324 32.4372 28.3324 32.7263C28.3324 33.0155 28.2175 33.2928 28.0131 33.4973C27.8086 33.7018 27.5313 33.8166 27.2421 33.8166H22.2579C21.9687 33.8166 21.6914 33.7018 21.4869 33.4973C21.2825 33.2928 21.1676 33.0155 21.1676 32.7263C21.1676 32.4372 21.2825 32.1599 21.4869 31.9554C21.6914 31.7509 21.9687 31.636 22.2579 31.636H23.6597V29.0573C22.7373 29.4384 21.7112 29.488 20.7564 29.1974C19.8015 28.9069 18.9769 28.2943 18.423 27.4641C17.8692 26.6338 17.6203 25.6371 17.7188 24.6439C17.8173 23.6507 18.2571 22.7224 18.9633 22.0171L23.9793 17.0011C24.1839 16.7968 24.4612 16.682 24.7503 16.682C25.0394 16.682 25.3168 16.7968 25.5213 17.0011L30.5367 22.0171C31.3449 22.827 31.7988 23.9245 31.7988 25.0687C31.7988 26.2129 31.3449 27.3104 30.5367 28.1203ZM20.5053 23.5603L24.75 19.3157L28.9947 23.5603C29.1957 23.7578 29.3556 23.9932 29.4651 24.2528C29.5747 24.5124 29.6317 24.7912 29.6329 25.0729C29.6342 25.3547 29.5796 25.6339 29.4724 25.8945C29.3651 26.1551 29.2074 26.3918 29.0081 26.5911C28.8089 26.7904 28.5722 26.9482 28.3116 27.0555C28.0511 27.1628 27.7719 27.2174 27.4901 27.2162C27.2083 27.215 26.9296 27.1581 26.6699 27.0486C26.4103 26.9391 26.1749 26.7792 25.9774 26.5783L25.5213 26.1222C25.4201 26.0209 25.2999 25.9405 25.1676 25.8857C25.0353 25.8308 24.8935 25.8026 24.7503 25.8026C24.6071 25.8026 24.4653 25.8308 24.333 25.8857C24.2007 25.9405 24.0805 26.0209 23.9793 26.1222L23.5233 26.5783C23.1231 26.9785 22.5803 27.2033 22.0143 27.2033C21.4483 27.2033 20.9055 26.9785 20.5053 26.5783C20.1051 26.1781 19.8803 25.6353 19.8803 25.0693C19.8803 24.5033 20.1051 23.9606 20.5053 23.5603Z" fill="url(#paint0_linear_1640_912)"/>
<defs>
<linearGradient id="paint0_linear_1640_912" x1="44.5" y1="5.5" x2="6.58671" y2="28.1544" gradientUnits="userSpaceOnUse">
<stop stop-color="#FF8950"/>
<stop offset="1" stop-color="#A182ED"/>
</linearGradient>
</defs>
</svg>
