<svg width="56" height="56" viewBox="0 0 56 56" fill="none" xmlns="http://www.w3.org/2000/svg">
<path fill-rule="evenodd" clip-rule="evenodd" d="M33.3386 22.155C33.3386 25.112 30.9414 27.5092 27.9844 27.5092C25.0274 27.5092 22.6302 25.112 22.6302 22.155C22.6302 19.1979 25.0274 16.8008 27.9844 16.8008C30.9414 16.8008 33.3386 19.1979 33.3386 22.155ZM36.3232 39.3726H19.6409C18.8561 39.3726 18.2467 38.6883 18.337 37.9088L18.6815 34.9398C18.7805 34.0858 18.9803 33.2797 19.2753 32.544C19.9685 30.8146 21.1509 29.3433 22.6945 28.2893C22.7155 28.275 22.7369 28.2612 22.7582 28.2474C22.7727 28.238 22.7872 28.2286 22.8016 28.2191C24.1966 29.4126 26.0065 30.1345 27.982 30.1345C29.9575 30.1345 31.7673 29.4126 33.1624 28.2191C33.1768 28.2286 33.1913 28.238 33.2058 28.2474C33.2271 28.2612 33.2484 28.275 33.2695 28.2893C34.813 29.3433 35.9954 30.8146 36.6887 32.544C36.9836 33.2797 37.1834 34.0858 37.2824 34.9398L37.6269 37.9088C37.7174 38.6884 37.108 39.3726 36.3232 39.3726Z" fill="#FCFCFC"/>
<path d="M6.89866 39.3718H15.9341C15.736 38.8116 15.6636 38.2079 15.7335 37.6055L16.078 34.6365C16.2038 33.5514 16.4612 32.5184 16.8427 31.5665C16.9099 31.3989 16.9811 31.2334 17.0555 31.0697C16.0676 31.5737 14.9508 31.86 13.7678 31.86C11.9175 31.86 10.2275 31.1632 8.94397 30.0195C7.77742 30.9106 6.85255 32.1223 6.32107 33.5514C6.11195 34.1138 5.9667 34.7338 5.88935 35.394L5.595 37.9067C5.50374 38.6866 6.11326 39.3718 6.89866 39.3718Z" fill="#FCFCFC"/>
<path d="M13.7681 29.2345C16.3281 29.2345 18.4034 27.1592 18.4034 24.5992C18.4034 22.0392 16.3281 19.9639 13.7681 19.9639C11.2081 19.9639 9.13281 22.0392 9.13281 24.5992C9.13281 27.1592 11.2081 29.2345 13.7681 29.2345Z" fill="#FCFCFC"/>
<path d="M38.9219 31.0697C38.9962 31.2334 39.0674 31.399 39.1346 31.5666C39.5162 32.5185 39.7734 33.5515 39.8993 34.6366L40.2438 37.6056C40.3137 38.2081 40.2413 38.8117 40.0432 39.3718H49.0787C49.8641 39.3718 50.4736 38.6867 50.3822 37.9067L50.0879 35.394C50.0105 34.7338 49.8654 34.1137 49.6562 33.5513C49.1248 32.1222 48.1999 30.9106 47.0334 30.0195C45.7498 31.1632 44.0599 31.86 42.2095 31.86C41.0265 31.86 39.9097 31.5738 38.9219 31.0697Z" fill="#FCFCFC"/>
<path d="M42.2056 29.2345C44.7656 29.2345 46.8409 27.1592 46.8409 24.5992C46.8409 22.0392 44.7656 19.9639 42.2056 19.9639C39.6456 19.9639 37.5703 22.0392 37.5703 24.5992C37.5703 27.1592 39.6456 29.2345 42.2056 29.2345Z" fill="#FCFCFC"/>
</svg>
