<svg width="50" height="50" viewBox="0 0 50 50" fill="none" xmlns="http://www.w3.org/2000/svg">
<path fill-rule="evenodd" clip-rule="evenodd" d="M45.4708 23.0569V40.6124C45.4708 41.7764 45.0084 42.8928 44.1853 43.7158C43.3622 44.5389 42.2459 45.0013 41.0819 45.0013H8.8967C7.7327 45.0013 6.61636 44.5389 5.79329 43.7158C4.97021 42.8928 4.50781 41.7764 4.50781 40.6124V23.0569C4.50781 21.8929 4.97021 20.7765 5.79329 19.9534C6.61636 19.1304 7.7327 18.668 8.8967 18.668H41.0819C42.2459 18.668 43.3622 19.1304 44.1853 19.9534C45.0084 20.7765 45.4708 21.8929 45.4708 23.0569ZM24.3061 40.6593C24.3061 41.0488 24.6219 41.3645 25.0114 41.3645C25.4008 41.3645 25.7166 41.0488 25.7166 40.6593V40.4214C25.7166 40.029 26.0278 39.7103 26.4175 39.6632C29.1553 39.3324 30.76 37.7414 30.76 35.5304C30.76 33.3174 29.2828 32.0324 26.2925 31.2832C25.9582 31.1994 25.7166 30.9033 25.7166 30.5586V27.2431C25.7166 26.7925 26.1248 26.4426 26.5468 26.6006C27.4432 26.9361 28.1651 27.5858 28.4466 28.6338C28.5446 28.9986 28.8476 29.293 29.2253 29.2967L29.9828 29.3041C30.3962 29.3082 30.7367 28.9672 30.6686 28.5594C30.3103 26.4121 28.6375 24.9734 26.3688 24.5355C26.001 24.4645 25.7166 24.1546 25.7166 23.78V23.6697C25.7166 23.2802 25.4008 22.9645 25.0114 22.9645C24.6219 22.9645 24.3061 23.2802 24.3061 23.6697V23.7387C24.3061 24.1216 24.0093 24.4354 23.6319 24.4998C21.1321 24.9267 19.4336 26.6302 19.4336 28.7132C19.4336 31.0589 21.5791 32.0773 23.7569 32.6908C24.0788 32.7815 24.3061 33.0718 24.3061 33.4063V36.8369C24.3061 37.2922 23.8905 37.6423 23.4647 37.481C22.4533 37.0978 21.6271 36.3406 21.3721 35.0806C21.2937 34.6933 20.9789 34.3764 20.5837 34.3764H19.8614C19.4592 34.3764 19.1269 34.7033 19.1713 35.1031C19.4663 37.7587 21.4839 39.1085 23.6676 39.5513C24.0297 39.6247 24.3061 39.9325 24.3061 40.302V40.6593ZM24.3061 29.8625C24.3061 30.3475 23.8405 30.7027 23.3857 30.5342C22.236 30.1083 21.5066 29.5538 21.5066 28.6277C21.5066 27.6865 22.1964 26.7914 23.524 26.4485C23.9378 26.3416 24.3061 26.6857 24.3061 27.1131V29.8625ZM26.4787 37.7049C26.0686 37.7856 25.7166 37.4456 25.7166 37.0276V34.1118C25.7166 33.6308 26.1751 33.2759 26.6288 33.4356C27.8648 33.8705 28.6444 34.4632 28.6444 35.5945C28.6444 36.6804 27.8013 37.4445 26.4787 37.7049Z" fill="#FCFCFC"/>
<path d="M11.8166 11.3519C11.8166 10.9639 11.9707 10.5917 12.245 10.3174C12.5194 10.043 12.8915 9.88889 13.2795 9.88889H36.6869C37.0749 9.88889 37.447 10.043 37.7214 10.3174C37.9958 10.5917 38.1499 10.9639 38.1499 11.3519C38.1499 11.7399 37.9958 12.112 37.7214 12.3863C37.447 12.6607 37.0749 12.8148 36.6869 12.8148H13.2795C12.8915 12.8148 12.5194 12.6607 12.245 12.3863C11.9707 12.112 11.8166 11.7399 11.8166 11.3519ZM16.2054 8.42593H33.761C34.149 8.42593 34.5211 8.27179 34.7955 7.99743C35.0698 7.72307 35.224 7.35096 35.224 6.96296C35.224 6.57496 35.0698 6.20285 34.7955 5.92849C34.5211 5.65413 34.149 5.5 33.761 5.5H16.2054C15.8174 5.5 15.4453 5.65413 15.171 5.92849C14.8966 6.20285 14.7425 6.57496 14.7425 6.96296C14.7425 7.35096 14.8966 7.72307 15.171 7.99743C15.4453 8.27179 15.8174 8.42593 16.2054 8.42593ZM10.3536 17.2037H39.6128C40.0008 17.2037 40.373 17.0496 40.6473 16.7752C40.9217 16.5009 41.0758 16.1287 41.0758 15.7407C41.0758 15.3527 40.9217 14.9806 40.6473 14.7063C40.373 14.4319 40.0008 14.2778 39.6128 14.2778H10.3536C9.96559 14.2778 9.59348 14.4319 9.31912 14.7063C9.04476 14.9806 8.89062 15.3527 8.89062 15.7407C8.89062 16.1287 9.04476 16.5009 9.31912 16.7752C9.59348 17.0496 9.96559 17.2037 10.3536 17.2037Z" fill="#FCFCFC"/>
</svg>
