<svg width="42" height="42" viewBox="0 0 42 42" fill="none" xmlns="http://www.w3.org/2000/svg">
<path fill-rule="evenodd" clip-rule="evenodd" d="M38.1901 19.3673V34.114C38.1901 35.0918 37.8017 36.0295 37.1103 36.7209C36.419 37.4122 35.4812 37.8007 34.5035 37.8007H7.46792C6.49015 37.8007 5.55243 37.4122 4.86105 36.7209C4.16967 36.0295 3.78125 35.0918 3.78125 34.114V19.3673C3.78125 18.3896 4.16967 17.4518 4.86105 16.7605C5.55243 16.0691 6.49015 15.6807 7.46792 15.6807H34.5035C35.4812 15.6807 36.419 16.0691 37.1103 16.7605C37.8017 17.4518 38.1901 18.3896 38.1901 19.3673ZM20.4151 34.1539C20.4151 34.4811 20.6803 34.7463 21.0075 34.7463C21.3347 34.7463 21.5999 34.4811 21.5999 34.1539V34.0412C21.5999 33.6629 21.8998 33.3564 22.2748 33.3063C24.522 33.0057 25.8364 31.6796 25.8364 29.8456C25.8364 28.0095 24.6257 26.9339 22.1756 26.3014C21.8418 26.2152 21.5999 25.9195 21.5999 25.5748V23.0218C21.5999 22.5712 22.0102 22.2195 22.425 22.3955C23.0895 22.6777 23.6239 23.1785 23.8635 23.9503C23.9755 24.311 24.2762 24.6067 24.6539 24.6104L25.0625 24.6144C25.4759 24.6185 25.8178 24.2763 25.7379 23.8706C25.3979 22.1432 24.0274 20.9833 22.1806 20.6164C21.8533 20.5513 21.5999 20.2755 21.5999 19.9419V19.8827C21.5999 19.5555 21.3347 19.2903 21.0075 19.2903C20.6803 19.2903 20.4151 19.5555 20.4151 19.8827V19.9234C20.4151 20.2547 20.1582 20.5261 19.8317 20.5829C17.7412 20.9463 16.3222 22.3742 16.3222 24.1192C16.3222 26.0581 18.0673 26.9175 19.8662 27.4355C20.1876 27.5281 20.4151 27.8179 20.4151 28.1524V30.8034C20.4151 31.2587 19.9976 31.6104 19.5787 31.432C18.8182 31.1084 18.2014 30.5181 17.9751 29.5788C17.8825 29.1946 17.5699 28.8763 17.1748 28.8763H16.7978C16.3956 28.8763 16.0619 29.2032 16.116 29.6018C16.403 31.7161 18.0141 32.816 19.7774 33.2019C20.1383 33.2808 20.4151 33.5878 20.4151 33.9573V34.1539ZM20.4151 24.93C20.4151 25.415 19.9482 25.7726 19.4976 25.5935C18.6156 25.243 18.0635 24.7858 18.0635 24.0474C18.0635 23.2862 18.6006 22.5609 19.6358 22.2509C20.0452 22.1283 20.4151 22.4747 20.4151 22.9021V24.93ZM22.3603 31.6465C21.953 31.7405 21.5999 31.3984 21.5999 30.9804V28.8066C21.5999 28.3256 22.0596 27.9682 22.5096 28.1383C23.4643 28.499 24.0592 28.9938 24.0592 29.8995C24.0592 30.7783 23.4019 31.4062 22.3603 31.6465Z" fill="url(#paint0_linear_1632_678)"/>
<path d="M9.92653 9.53567C9.92653 9.20975 10.056 8.89718 10.2865 8.66672C10.5169 8.43626 10.8295 8.30678 11.1554 8.30678H30.8176C31.1436 8.30678 31.4561 8.43626 31.6866 8.66672C31.9171 8.89718 32.0465 9.20975 32.0465 9.53567C32.0465 9.86159 31.9171 10.1742 31.6866 10.4046C31.4561 10.6351 31.1436 10.7646 30.8176 10.7646H11.1554C10.8295 10.7646 10.5169 10.6351 10.2865 10.4046C10.056 10.1742 9.92653 9.86159 9.92653 9.53567ZM13.6132 7.07789H28.3599C28.6858 7.07789 28.9984 6.94842 29.2288 6.71796C29.4593 6.4875 29.5887 6.17493 29.5887 5.84901C29.5887 5.52308 29.4593 5.21051 29.2288 4.98005C28.9984 4.74959 28.6858 4.62012 28.3599 4.62012H13.6132C13.2873 4.62012 12.9747 4.74959 12.7442 4.98005C12.5138 5.21051 12.3843 5.52308 12.3843 5.84901C12.3843 6.17493 12.5138 6.4875 12.7442 6.71796C12.9747 6.94842 13.2873 7.07789 13.6132 7.07789ZM8.69764 14.4512H33.2754C33.6013 14.4512 33.9139 14.3218 34.1444 14.0913C34.3748 13.8608 34.5043 13.5483 34.5043 13.2223C34.5043 12.8964 34.3748 12.5838 34.1444 12.3534C33.9139 12.1229 33.6013 11.9935 33.2754 11.9935H8.69764C8.37172 11.9935 8.05915 12.1229 7.82868 12.3534C7.59822 12.5838 7.46875 12.8964 7.46875 13.2223C7.46875 13.5483 7.59822 13.8608 7.82868 14.0913C8.05915 14.3218 8.37172 14.4512 8.69764 14.4512Z" fill="#A182ED"/>
<defs>
<linearGradient id="paint0_linear_1632_678" x1="38.1901" y1="15.6807" x2="14.1453" y2="38.0303" gradientUnits="userSpaceOnUse">
<stop stop-color="#FF8950"/>
<stop offset="1" stop-color="#A182ED"/>
</linearGradient>
</defs>
</svg>
