<svg width="42" height="42" viewBox="0 0 42 42" fill="none" xmlns="http://www.w3.org/2000/svg">
<path fill-rule="evenodd" clip-rule="evenodd" d="M29.8053 4.48165L37.0942 11.7705C37.3722 12.0486 37.4553 12.4667 37.3049 12.8299C37.1545 13.1932 36.8 13.4301 36.4068 13.4301H33.2138V36.4071C33.2138 36.9439 32.7786 37.3792 32.2417 37.3792H25.9941C25.4572 37.3792 25.022 36.9439 25.022 36.4071V13.4301H21.829C21.4359 13.4301 21.0814 13.1932 20.9309 12.8299C20.7805 12.4667 20.8636 12.0485 21.1416 11.7705L28.4305 4.48165C28.7924 4.10511 29.4432 4.10504 29.8053 4.48165ZM15.5815 17.7336H21.8291C22.366 17.7336 22.8013 18.1688 22.8013 18.7057V36.4072C22.8013 36.9441 22.366 37.3794 21.8291 37.3794H15.5815C15.0446 37.3794 14.6094 36.9441 14.6094 36.4072V18.7057C14.6094 18.1688 15.0446 17.7336 15.5815 17.7336Z" fill="url(#paint0_linear_1632_679)"/>
<path d="M11.4151 26.0635H5.16745C4.63057 26.0635 4.19531 26.4987 4.19531 27.0356V36.407C4.19531 36.9439 4.63057 37.3792 5.16745 37.3792H11.4151C11.9519 37.3792 12.3872 36.9439 12.3872 36.407V27.0356C12.3872 26.4987 11.9519 26.0635 11.4151 26.0635Z" fill="#A182ED"/>
<defs>
<linearGradient id="paint0_linear_1632_679" x1="37.3789" y1="4.19922" x2="11.9898" y2="14.6101" gradientUnits="userSpaceOnUse">
<stop stop-color="#FF8950"/>
<stop offset="1" stop-color="#A182ED"/>
</linearGradient>
</defs>
</svg>
