<svg width="50" height="50" viewBox="0 0 50 50" fill="none" xmlns="http://www.w3.org/2000/svg">
<path fill-rule="evenodd" clip-rule="evenodd" d="M35.4918 5.33525L44.169 14.0124C44.5 14.3435 44.599 14.8412 44.4199 15.2737C44.2409 15.7061 43.8188 15.9881 43.3507 15.9881H39.5496V43.3417C39.5496 43.9808 39.0314 44.499 38.3923 44.499H30.9547C30.3155 44.499 29.7973 43.9808 29.7973 43.3417V15.9881H25.9962C25.5282 15.9881 25.1062 15.7061 24.927 15.2737C24.7479 14.8412 24.8469 14.3434 25.1779 14.0124L33.8551 5.33525C34.286 4.88699 35.0608 4.88691 35.4918 5.33525ZM18.5557 21.1111H25.9934C26.6325 21.1111 27.1507 21.6293 27.1507 22.2684V43.3417C27.1507 43.9808 26.6325 44.499 25.9934 44.499H18.5557C17.9166 44.499 17.3984 43.9808 17.3984 43.3417V22.2684C17.3984 21.6293 17.9166 21.1111 18.5557 21.1111Z" fill="#FCFCFC"/>
<path d="M13.5949 31.0283H6.15731C5.51817 31.0283 5 31.5465 5 32.1856V43.3421C5 43.9812 5.51817 44.4994 6.15731 44.4994H13.5949C14.2341 44.4994 14.7522 43.9812 14.7522 43.3421V32.1856C14.7522 31.5465 14.2341 31.0283 13.5949 31.0283Z" fill="#FCFCFC"/>
</svg>
