<svg width="358" height="100" viewBox="0 0 358 100" fill="none" xmlns="http://www.w3.org/2000/svg">
<g clip-path="url(#clip0_1980_448)">
<path d="M23.328 58.3829L36.7451 38.2508H2.16329C0.438042 38.2508 -0.594539 40.1749 0.361079 41.6179L38.0214 98.1277C38.7975 99.2949 40.1122 100 41.5168 100H92.6712C94.3965 100 95.4291 98.0763 94.4734 96.6333L71.2243 61.75H25.1302C23.4049 61.75 22.3724 59.826 23.328 58.3829Z" fill="#211F21"/>
<path d="M79.7785 59.8771L117.439 3.36736C118.394 1.93072 117.368 0.000244141 115.637 0.000244141H64.4886C63.084 0.000244141 61.7692 0.705734 60.9932 1.873L36.75 38.2506H53.3162C54.7208 38.2506 56.0355 38.9561 56.8116 40.1234L71.2228 61.7499H76.2831C77.6877 61.7499 79.0024 61.0444 79.7785 59.8771Z" fill="#A182ED"/>
<path d="M53.3208 38.2508H36.7546L23.3375 58.3829C22.3754 59.8195 23.408 61.75 25.1397 61.75H71.2338L56.8226 40.1236C56.0466 38.9563 54.7318 38.2508 53.3272 38.2508" fill="#5634A6"/>
<path d="M140.402 29.0084C140.402 27.8219 141.313 26.8214 142.589 26.8214H153.255C154.442 26.8214 155.442 27.8219 155.442 29.0084V52.9822L175.677 27.7385C176.042 27.2831 176.863 26.8278 177.409 26.8278H188.895C190.627 26.8278 191.538 28.8352 190.537 30.2013L169.206 56.9073L192.448 87.1664C193.449 88.5325 192.448 90.5399 190.717 90.5399H178.14C177.505 90.5399 176.684 90.1744 176.498 89.8986L155.442 61.2813V88.4427C155.442 89.6292 154.442 90.6297 153.255 90.6297H142.589C141.313 90.6297 140.402 89.6292 140.402 88.4427V29.0084Z" fill="#211F21"/>
<path d="M228.55 76.9503C238.574 76.9503 246.777 68.7473 246.777 58.8127C246.777 48.8782 238.574 40.4892 228.55 40.4892C218.526 40.4892 210.413 48.782 210.413 58.8127C210.413 68.8435 218.615 76.9503 228.55 76.9503ZM228.55 25.9113C246.777 25.9113 261.362 40.5854 261.362 58.8127C261.362 77.04 246.777 91.5347 228.55 91.5347C210.323 91.5347 195.828 77.04 195.828 58.8127C195.828 40.5854 210.323 25.9113 228.55 25.9113Z" fill="#211F21"/>
<path d="M274.13 26.8214H285.065C286.021 26.8214 286.797 27.5974 286.797 28.553V88.8916C286.797 89.8473 286.021 90.6233 285.065 90.6233H274.13C273.174 90.6233 272.398 89.8473 272.398 88.8916V28.553C272.398 27.5974 273.174 26.8214 274.13 26.8214Z" fill="#211F21"/>
<path d="M302.381 27.5465C302.381 26.6358 303.202 25.9047 304.113 25.9047H306.39L342.755 60.9034H342.844V28.547C342.844 27.6363 343.576 26.8154 344.576 26.8154H355.511C356.422 26.8154 357.243 27.6363 357.243 28.547V89.8862C357.243 90.7969 356.422 91.5281 355.511 91.5281H354.055C353.78 91.5281 353.055 91.2523 352.869 91.0727L316.863 54.8875H316.773V88.8857C316.773 89.7964 316.042 90.6173 315.042 90.6173H304.196C303.286 90.6173 302.465 89.7964 302.465 88.8857L302.375 27.5465H302.381Z" fill="#211F21"/>
</g>
<defs>
<clipPath id="clip0_1980_448">
<rect width="357.254" height="100" fill="white"/>
</clipPath>
</defs>
</svg>
