<svg width="44" height="37" viewBox="0 0 44 37" fill="none" xmlns="http://www.w3.org/2000/svg">
<path d="M8.83816 21.7062L13.7623 14.3164H1.06919C0.435713 14.3164 0.0565672 15.0229 0.407454 15.5528L14.231 36.2951C14.5183 36.7237 14.9987 36.9828 15.5144 36.9828H34.2904C34.9239 36.9828 35.303 36.2763 34.9521 35.7488L26.4178 22.9426H9.4999C8.86642 22.9426 8.48727 22.2361 8.83816 21.7086" fill="white"/>
<path d="M29.5626 22.2551L43.3861 1.51271C43.737 0.985206 43.3602 0.276367 42.7244 0.276367H23.9484C23.4327 0.276367 22.9499 0.535411 22.665 0.964011L13.7656 14.3166H19.8484C20.3642 14.3166 20.8469 14.5756 21.1319 15.0042L26.4211 22.9427H28.2792C28.7949 22.9427 29.2776 22.6837 29.5626 22.2551Z" fill="#A182ED"/>
</svg>
