<svg width="339" height="95" viewBox="0 0 339 95" fill="none" xmlns="http://www.w3.org/2000/svg">
<path d="M22.1216 55.3429L34.8444 36.2709H2.0522C1.68073 36.2715 1.31637 36.3727 0.997851 36.5639C0.679334 36.755 0.418566 37.0289 0.24327 37.3564C0.067975 37.684 -0.0152958 38.0528 0.0023106 38.4239C0.019917 38.7949 0.137743 39.1543 0.343261 39.4637L36.0547 93.0491C36.4195 93.5952 36.9134 94.0429 37.4926 94.3527C38.0718 94.6624 38.7184 94.8246 39.3752 94.8249H87.8763C88.2478 94.8243 88.6121 94.723 88.9306 94.5319C89.2492 94.3407 89.5099 94.0668 89.6852 93.7393C89.8605 93.4118 89.9438 93.0429 89.9262 92.6719C89.9086 92.3008 89.7908 91.9415 89.5852 91.632L67.5393 58.554H23.8306C23.4562 58.5556 23.0885 58.455 22.7671 58.2629C22.4458 58.0708 22.1829 57.7947 22.0071 57.4642C21.8312 57.1337 21.7489 56.7614 21.7691 56.3876C21.7893 56.0138 21.9112 55.6525 22.1216 55.3429Z" fill="#FCFCFC"/>
<path d="M75.6522 56.7782L111.364 3.19288C111.571 2.88389 111.691 2.52417 111.71 2.15233C111.728 1.7805 111.645 1.4106 111.47 1.08236C111.294 0.754115 111.032 0.479927 110.712 0.289239C110.393 0.0985502 110.027 -0.0014365 109.655 1.55939e-05H61.1535C60.4967 0.00029753 59.8501 0.162489 59.2709 0.472236C58.6917 0.781983 58.1979 1.22973 57.833 1.77585L34.8444 36.2709H50.5593C51.2154 36.2706 51.8614 36.4326 52.4397 36.7424C53.018 37.0523 53.5107 37.5003 53.8738 38.0468L67.5393 58.554H72.3681C73.0239 58.5528 73.6692 58.3901 74.2473 58.0804C74.8253 57.7707 75.3182 57.3235 75.6826 56.7782" fill="#A182ED"/>
<path d="M133.142 27.5073C133.138 27.2339 133.189 26.9623 133.291 26.7089C133.394 26.4554 133.547 26.2252 133.74 26.0318C133.934 25.8384 134.164 25.6858 134.417 25.583C134.671 25.4802 134.942 25.4294 135.216 25.4335H145.348C145.895 25.4413 146.418 25.6624 146.806 26.0496C147.193 26.4368 147.414 26.9598 147.422 27.5073V50.2344L166.609 26.2971C167.03 25.815 167.616 25.5071 168.251 25.4335H179.137C179.506 25.4396 179.865 25.5477 180.176 25.7456C180.487 25.9436 180.737 26.2238 180.898 26.555C181.059 26.8863 181.125 27.2558 181.089 27.6225C181.054 27.9892 180.917 28.3387 180.694 28.6324L160.455 53.9564L182.494 82.6496C182.707 82.9525 182.833 83.3077 182.859 83.677C182.884 84.0463 182.809 84.4156 182.64 84.7449C182.47 85.0743 182.215 85.3511 181.9 85.5456C181.585 85.7401 181.223 85.8449 180.852 85.8485H168.92C168.346 85.8428 167.794 85.6263 167.369 85.2403L147.403 58.1041V83.8598C147.394 84.4038 147.175 84.9232 146.792 85.3097C146.409 85.6961 145.892 85.9196 145.348 85.9337H135.216C134.943 85.9369 134.671 85.8855 134.418 85.7824C134.165 85.6794 133.935 85.5267 133.742 85.3335C133.549 85.1403 133.396 84.9104 133.293 84.6573C133.19 84.4042 133.139 84.1331 133.142 83.8598V27.5073Z" fill="#FCFCFC"/>
<path d="M216.722 72.9796C220.149 72.9977 223.504 71.997 226.361 70.1046C229.218 68.2123 231.448 65.5136 232.768 62.3513C234.089 59.1889 234.439 55.7056 233.776 52.3435C233.113 48.9814 231.466 45.8922 229.043 43.4681C226.621 41.0441 223.533 39.3946 220.171 38.7289C216.81 38.0633 213.326 38.4117 210.163 39.7297C206.999 41.0478 204.299 43.2762 202.405 46.1318C200.51 48.9875 199.507 52.3417 199.523 55.7686C199.552 60.3223 201.373 64.6815 204.591 67.9027C207.81 71.1238 212.168 72.9478 216.722 72.9796ZM216.722 24.5819C222.876 24.5627 228.898 26.369 234.025 29.7723C239.153 33.1757 243.156 38.0232 245.528 43.7018C247.901 49.3804 248.536 55.635 247.353 61.6745C246.17 67.714 243.223 73.2671 238.884 77.6315C234.545 81.996 229.01 84.9756 222.977 86.1937C216.945 87.4117 210.686 86.8134 204.994 84.4744C199.302 82.1354 194.431 78.1609 190.997 73.0534C187.564 67.9459 185.722 61.9349 185.706 55.7808C185.687 51.6939 186.475 47.6435 188.025 43.8619C189.575 40.0803 191.856 36.6417 194.738 33.7434C197.619 30.845 201.044 28.5438 204.817 26.9717C208.589 25.3996 212.635 24.5875 216.722 24.5819Z" fill="#FCFCFC"/>
<path d="M270.307 25.4335H259.938C259.031 25.4335 258.296 26.1687 258.296 27.0755V84.2916C258.296 85.1985 259.031 85.9337 259.938 85.9337H270.307C271.214 85.9337 271.949 85.1985 271.949 84.2916V27.0755C271.949 26.1687 271.214 25.4335 270.307 25.4335Z" fill="#FCFCFC"/>
<path d="M286.734 26.1511C286.753 25.73 286.935 25.3328 287.241 25.0434C287.547 24.754 287.954 24.5951 288.376 24.6003H290.535L325.024 57.7756H325.109V27.0755C325.109 26.8599 325.151 26.6463 325.234 26.4471C325.316 26.2479 325.437 26.0669 325.59 25.9144C325.742 25.7619 325.923 25.641 326.123 25.5585C326.322 25.4759 326.535 25.4335 326.751 25.4335H337.12C337.551 25.4486 337.96 25.6264 338.264 25.9312C338.569 26.2359 338.747 26.6448 338.762 27.0755V85.2403C338.745 85.6624 338.564 86.0612 338.257 86.3519C337.95 86.6426 337.543 86.8023 337.12 86.7972H335.74C335.336 86.7437 334.95 86.5958 334.615 86.3654L300.478 52.0528H300.393V84.2855C300.393 84.721 300.22 85.1387 299.912 85.4466C299.604 85.7545 299.187 85.9275 298.751 85.9275H288.461C288.03 85.9124 287.621 85.7346 287.317 85.4298C287.012 85.1251 286.834 84.7162 286.819 84.2855L286.734 26.1511Z" fill="#FCFCFC"/>
</svg>
