<svg width="680" height="191" viewBox="0 0 680 191" fill="none" xmlns="http://www.w3.org/2000/svg">
<g clip-path="url(#clip0_1671_280)">
<path d="M44.4101 111.127L69.9484 72.8069H4.12505C0.841208 72.8069 -1.12422 76.4692 0.694717 79.2159L72.3777 186.777C73.8549 188.999 76.3574 190.342 79.0309 190.342H176.399C179.683 190.342 181.648 186.679 179.829 183.933L135.576 117.536H47.8405C44.5566 117.536 42.5912 113.873 44.4101 111.127Z" fill="#211F21"/>
<path d="M151.861 113.971L223.544 6.40943C225.363 3.67493 223.41 0.000442505 220.114 0.000442505H122.758C120.085 0.000442505 117.582 1.34328 116.105 3.56506L69.9601 72.8066H101.492C104.166 72.8066 106.668 74.1494 108.146 76.3712L135.576 117.535H145.208C147.881 117.535 150.384 116.192 151.861 113.971Z" fill="#A182ED"/>
<path d="M101.5 72.8069H69.9675L44.4292 111.127C42.598 113.861 44.5635 117.536 47.8595 117.536H135.596L108.165 76.3715C106.688 74.1497 104.185 72.8069 101.512 72.8069" fill="#5634A6"/>
<path d="M267.255 55.2147C267.255 52.9563 268.989 51.052 271.418 51.052H291.719C293.978 51.052 295.882 52.9563 295.882 55.2147V100.847L334.397 52.7976C335.093 51.9309 336.656 51.0642 337.693 51.0642H359.557C362.853 51.0642 364.587 54.8851 362.682 57.4854L322.08 108.318L366.32 165.913C368.224 168.513 366.32 172.334 363.024 172.334H339.085C337.876 172.334 336.314 171.639 335.96 171.114L295.882 116.643V168.343C295.882 170.601 293.978 172.505 291.719 172.505H271.418C268.989 172.505 267.255 170.601 267.255 168.343V55.2147Z" fill="#211F21"/>
<path d="M435.028 146.468C454.109 146.468 469.722 130.854 469.722 111.945C469.722 93.0351 454.109 77.0675 435.028 77.0675C415.948 77.0675 400.505 92.852 400.505 111.945C400.505 131.037 416.119 146.468 435.028 146.468ZM435.028 49.3197C469.722 49.3197 497.482 77.2507 497.482 111.945C497.482 146.639 469.722 174.228 435.028 174.228C400.334 174.228 372.745 146.639 372.745 111.945C372.745 77.2507 400.334 49.3197 435.028 49.3197Z" fill="#211F21"/>
<path d="M521.787 51.052H542.601C544.42 51.052 545.897 52.5291 545.897 54.348V169.197C545.897 171.016 544.42 172.493 542.601 172.493H521.787C519.968 172.493 518.491 171.016 518.491 169.197V54.348C518.491 52.5291 519.968 51.052 521.787 51.052Z" fill="#211F21"/>
<path d="M575.558 52.4322C575.558 50.6988 577.12 49.3071 578.854 49.3071H583.187L652.404 115.924H652.575V54.3366C652.575 52.6031 653.967 51.0406 655.871 51.0406H676.685C678.419 51.0406 679.981 52.6031 679.981 54.3366V171.09C679.981 172.824 678.419 174.215 676.685 174.215H673.914C673.389 174.215 672.01 173.69 671.656 173.349L603.122 104.473H602.951V169.186C602.951 170.919 601.56 172.482 599.655 172.482H579.012C577.279 172.482 575.716 170.919 575.716 169.186L575.545 52.4322H575.558Z" fill="#211F21"/>
</g>
<defs>
<clipPath id="clip0_1671_280">
<rect width="680" height="190.341" fill="white"/>
</clipPath>
</defs>
</svg>
