<svg width="48" height="48" viewBox="0 0 48 48" fill="none" xmlns="http://www.w3.org/2000/svg">
<path fill-rule="evenodd" clip-rule="evenodd" d="M41.8604 4.80117C42.2154 4.80117 42.5559 4.94207 42.8071 5.19293C43.0579 5.4441 43.1988 5.78458 43.1988 6.13956C43.1988 6.49455 43.0579 6.83503 42.8071 7.0862L37.7703 12.123L23.0171 26.8762L20.7308 29.1624L10.8894 39.0038L7.08503 42.8082C6.83386 43.0591 6.49339 43.2 6.1384 43.2C5.78341 43.2 5.44294 43.0591 5.19177 42.8082C4.94091 42.5571 4.8 42.2166 4.8 41.8616C4.8 41.5066 4.94091 41.1661 5.19177 40.915L8.99616 37.1106C8.58552 36.3798 8.37021 35.5555 8.37103 34.7172V26.2511C8.84774 26.4656 9.34425 26.6331 9.85349 26.7512L14.5331 27.7871L17.623 28.4837L19.9628 26.2332L16.855 25.5545L10.425 24.1435C9.33505 23.9031 8.35996 23.2974 7.6615 22.4268C6.96304 21.5561 6.58318 20.4729 6.58493 19.3567V16.8562C6.58493 15.5535 7.10242 14.3042 8.02355 13.383C8.94469 12.4619 10.194 11.9444 11.4967 11.9444H17.3015V9.71177C17.3015 8.40908 17.819 7.15975 18.7402 6.23861C19.6613 5.31748 20.9106 4.79999 22.2133 4.79999H25.7855C27.0882 4.79999 28.3375 5.31748 29.2587 6.23861C30.1798 7.15975 30.6973 8.40908 30.6973 9.71177V11.9444H34.1623L40.9138 5.19293C41.165 4.94207 41.5054 4.80117 41.8604 4.80117ZM20.6346 8.13306C20.2159 8.55176 19.9807 9.11964 19.9807 9.71177V11.9444H28.0181V9.71177C28.0181 9.11964 27.7829 8.55176 27.3642 8.13306C26.9455 7.71436 26.3776 7.47914 25.7855 7.47914H22.2133C21.6212 7.47914 21.0533 7.71436 20.6346 8.13306ZM27.2323 26.4475L37.5738 24.1434C38.6638 23.9031 39.6389 23.2974 40.3373 22.4267C41.0358 21.5561 41.4156 20.4729 41.4139 19.3567V16.8561C41.4077 15.6237 40.9281 14.4407 40.0743 13.5519L27.2323 26.4475ZM26.4285 29.3588C25.6489 29.535 24.8523 29.6249 24.053 29.6268L14.0508 39.6289H34.716C36.0187 39.6289 37.268 39.1114 38.1892 38.1903C39.1103 37.2692 39.6278 36.0198 39.6278 34.7171V26.251C39.1511 26.4655 38.6546 26.633 38.1453 26.7511L26.4285 29.3588Z" fill="url(#paint0_linear_1640_914)"/>
<defs>
<linearGradient id="paint0_linear_1640_914" x1="43.1988" y1="4.79998" x2="6.3419" y2="26.8226" gradientUnits="userSpaceOnUse">
<stop stop-color="#FF8950"/>
<stop offset="1" stop-color="#A182ED"/>
</linearGradient>
</defs>
</svg>
