<svg width="52" height="52" viewBox="0 0 52 52" fill="none" xmlns="http://www.w3.org/2000/svg">
<path fill-rule="evenodd" clip-rule="evenodd" d="M45.3489 5.20126C45.7334 5.20126 46.1023 5.35391 46.3744 5.62567C46.6462 5.89777 46.7988 6.26662 46.7988 6.65119C46.7988 7.03576 46.6462 7.40461 46.3744 7.67671L40.9178 13.1332L24.9352 29.1159L22.4585 31.5926L11.797 42.2541L7.67552 46.3756C7.40342 46.6473 7.03457 46.8 6.65 46.8C6.26543 46.8 5.89659 46.6473 5.62448 46.3756C5.35272 46.1035 5.20007 45.7346 5.20007 45.3501C5.20007 44.9655 5.35272 44.5966 5.62448 44.3245L9.74591 40.2031C9.30105 39.4114 9.0678 38.5184 9.06868 37.6103V28.4387C9.58512 28.671 10.123 28.8525 10.6747 28.9804L15.7442 30.1027L19.0917 30.8573L21.6265 28.4193L18.2597 27.684L11.2939 26.1554C10.113 25.895 9.05669 25.2388 8.30003 24.2957C7.54337 23.3525 7.13185 22.179 7.13374 20.9698V18.2608C7.13374 16.8496 7.69435 15.4962 8.69225 14.4983C9.69015 13.5004 11.0436 12.9398 12.4548 12.9398H18.7434V10.5211C18.7434 9.10983 19.304 7.75639 20.3019 6.75849C21.2998 5.7606 22.6533 5.19998 24.0645 5.19998H27.9344C29.3456 5.19998 30.6991 5.7606 31.697 6.75849C32.6949 7.75639 33.2555 9.10983 33.2555 10.5211V12.9398H37.0093L44.3233 5.62567C44.5954 5.35391 44.9643 5.20126 45.3489 5.20126ZM22.3542 8.81081C21.9006 9.2644 21.6458 9.8796 21.6458 10.5211V12.9398H30.3531V10.5211C30.3531 9.8796 30.0982 9.2644 29.6446 8.81081C29.1911 8.35722 28.5759 8.1024 27.9344 8.1024H24.0645C23.423 8.1024 22.8078 8.35722 22.3542 8.81081ZM29.5017 28.6515L40.705 26.1554C41.8858 25.895 42.9422 25.2388 43.6988 24.2956C44.4555 23.3524 44.867 22.1789 44.8651 20.9697V18.2608C44.8584 16.9256 44.3389 15.6441 43.4139 14.6812L29.5017 28.6515ZM28.631 31.8054C27.7864 31.9963 26.9234 32.0936 26.0575 32.0957L15.2218 42.9313H37.6091C39.0203 42.9313 40.3738 42.3707 41.3717 41.3728C42.3696 40.3749 42.9302 39.0215 42.9302 37.6103V28.4386C42.4138 28.671 41.8759 28.8525 41.3242 28.9804L28.631 31.8054Z" fill="#FCFCFC"/>
</svg>
