<svg width="48" height="48" viewBox="0 0 48 48" fill="none" xmlns="http://www.w3.org/2000/svg">
<path fill-rule="evenodd" clip-rule="evenodd" d="M42.8772 13.9329L34.5471 5.60278C34.1333 5.17237 33.3895 5.17244 32.9759 5.60278L24.6458 13.9329C24.328 14.2506 24.233 14.7285 24.4049 15.1437C24.5769 15.5588 24.982 15.8295 25.4313 15.8295H29.0804V42.089C29.0804 42.7026 29.5779 43.2 30.1914 43.2H37.3316C37.9451 43.2 38.4426 42.7026 38.4426 42.089V15.8295H42.0917C42.541 15.8295 42.9462 15.5588 43.1181 15.1437C43.29 14.7285 43.195 14.2507 42.8772 13.9329ZM25.4314 20.7476H18.2913C17.6777 20.7476 17.1802 21.2451 17.1802 21.8586V42.089C17.1802 42.7026 17.6777 43.2 18.2913 43.2H25.4314C26.045 43.2 26.5424 42.7026 26.5424 42.089V21.8586C26.5424 21.2451 26.045 20.7476 25.4314 20.7476ZM6.39102 30.2678H13.5311C14.1447 30.2678 14.6422 30.7652 14.6422 31.3788V42.089C14.6422 42.7025 14.1447 43.2 13.5311 43.2H6.39102C5.77744 43.2 5.28 42.7025 5.28 42.089V31.3788C5.28 30.7652 5.77744 30.2678 6.39102 30.2678Z" fill="url(#paint0_linear_1640_913)"/>
<path fill-rule="evenodd" clip-rule="evenodd" d="M12.2424 19.2047C16.0876 19.2047 19.2047 16.0876 19.2047 12.2424C19.2047 8.39716 16.0876 5.28 12.2424 5.28C8.39716 5.28 5.28 8.39716 5.28 12.2424C5.28 16.0876 8.39716 19.2047 12.2424 19.2047ZM11.9324 16.2691C11.9324 16.4574 12.0851 16.6101 12.2734 16.6101C12.4618 16.6101 12.6144 16.4574 12.6144 16.2691V16.2117C12.6144 15.9979 12.7841 15.8246 12.9961 15.7971C14.294 15.629 15.0533 14.8787 15.0533 13.8404C15.0533 12.8622 14.434 12.2659 13.1816 11.9013C12.8545 11.806 12.6144 11.5168 12.6144 11.1761V10.3423C12.6144 9.89912 13.0332 9.54301 13.3963 9.79707C13.605 9.94307 13.7733 10.1412 13.878 10.3987C13.9833 10.6579 14.2026 10.8799 14.4823 10.8826C14.7889 10.8855 15.0444 10.6302 14.9666 10.3336C14.7289 9.42742 13.9612 8.82004 12.9431 8.6231C12.7579 8.58727 12.6144 8.43132 12.6144 8.24265V8.21575C12.6144 8.0274 12.4618 7.87472 12.2734 7.87472C12.0851 7.87472 11.9324 8.0274 11.9324 8.21575V8.23229C11.9324 8.41964 11.787 8.57311 11.6023 8.60431C10.3957 8.80809 9.57622 9.61612 9.57622 10.6039C9.57622 11.6197 10.4394 12.1112 11.3904 12.4108C11.7058 12.5102 11.9324 12.794 11.9324 13.1248V14.0175C11.9324 14.4652 11.5087 14.82 11.1379 14.5691C10.8758 14.3918 10.6681 14.1401 10.5588 13.7994C10.471 13.526 10.2472 13.2925 9.95997 13.2925C9.66759 13.2925 9.42298 13.5312 9.4763 13.8187C9.68327 14.9346 10.5782 15.5227 11.5564 15.7353C11.7691 15.7815 11.9324 15.9622 11.9324 16.1799V16.2691ZM11.9324 10.6609C11.9324 11.1373 11.4609 11.5111 11.0503 11.2695C10.7532 11.0946 10.5786 10.8726 10.5786 10.5633C10.5786 10.2126 10.7841 9.87534 11.183 9.66777C11.5562 9.47356 11.9324 9.82753 11.9324 10.2482V10.6609ZM13.3518 14.7647C12.971 14.9211 12.6144 14.5713 12.6144 14.1597V13.6494C12.6144 13.1767 13.078 12.8038 13.4906 13.0343C13.8302 13.2241 14.0302 13.4796 14.0302 13.8708C14.0302 14.2787 13.775 14.5909 13.3518 14.7647Z" fill="#A182ED"/>
<defs>
<linearGradient id="paint0_linear_1640_913" x1="43.2027" y1="5.28" x2="6.80471" y2="27.0305" gradientUnits="userSpaceOnUse">
<stop stop-color="#FF8950"/>
<stop offset="1" stop-color="#A182ED"/>
</linearGradient>
</defs>
</svg>
