<svg width="52" height="52" viewBox="0 0 52 52" fill="none" xmlns="http://www.w3.org/2000/svg">
<path fill-rule="evenodd" clip-rule="evenodd" d="M46.4503 15.094L37.4259 6.06968C36.9777 5.6034 36.1719 5.60348 35.7238 6.06968L26.6995 15.094C26.3553 15.4382 26.2523 15.9559 26.4386 16.4056C26.6249 16.8554 27.0638 17.1487 27.5505 17.1487H31.5037V45.5964C31.5037 46.2611 32.0426 46.8 32.7073 46.8H40.4424C41.1072 46.8 41.646 46.2611 41.646 45.5964V17.1487H45.5992C46.086 17.1487 46.525 16.8554 46.7112 16.4056C46.8974 15.9559 46.7945 15.4383 46.4503 15.094ZM27.5507 22.4766H19.8155C19.1508 22.4766 18.6119 23.0155 18.6119 23.6802V45.5964C18.6119 46.2611 19.1508 46.8 19.8155 46.8H27.5507C28.2154 46.8 28.7543 46.2611 28.7543 45.5964V23.6802C28.7543 23.0155 28.2154 22.4766 27.5507 22.4766ZM6.92357 32.7901H14.6587C15.3234 32.7901 15.8623 33.329 15.8623 33.9937V45.5964C15.8623 46.2611 15.3234 46.8 14.6587 46.8H6.92357C6.25886 46.8 5.71997 46.2611 5.71997 45.5964V33.9937C5.71997 33.329 6.25886 32.7901 6.92357 32.7901Z" fill="#FCFCFC"/>
<path fill-rule="evenodd" clip-rule="evenodd" d="M13.2625 20.8051C17.4282 20.8051 20.8051 17.4282 20.8051 13.2626C20.8051 9.09692 17.4282 5.72 13.2625 5.72C9.09689 5.72 5.71997 9.09692 5.71997 13.2626C5.71997 17.4282 9.09689 20.8051 13.2625 20.8051ZM12.9268 17.6249C12.9268 17.8289 13.0922 17.9943 13.2962 17.9943C13.5002 17.9943 13.6656 17.8289 13.6656 17.6249V17.5627C13.6656 17.3311 13.8494 17.1433 14.0791 17.1135C15.4851 16.9314 16.3077 16.1186 16.3077 14.9937C16.3077 13.922 15.6216 13.2735 14.2336 12.8797C13.9059 12.7867 13.6656 12.4968 13.6656 12.1562V11.1338C13.6656 10.6906 14.0804 10.3363 14.4542 10.5744C14.7072 10.7357 14.9115 10.9626 15.0345 11.2653C15.1486 11.546 15.3861 11.7866 15.6892 11.7895C16.0213 11.7927 16.2981 11.516 16.2138 11.1948C15.9563 10.2131 15.1247 9.55506 14.0217 9.34171C13.8211 9.3029 13.6656 9.13394 13.6656 8.92955V8.90041C13.6656 8.69637 13.5002 8.53096 13.2962 8.53096C13.0922 8.53096 12.9268 8.69637 12.9268 8.90041V8.91833C12.9268 9.12129 12.7693 9.28755 12.5692 9.32135C11.262 9.54211 10.3742 10.4175 10.3742 11.4876C10.3742 12.604 11.3367 13.1358 12.3843 13.459C12.7004 13.5565 12.9268 13.8409 12.9268 14.1716V15.2571C12.9268 15.7048 12.5065 16.058 12.126 15.8221C11.8139 15.6286 11.5653 15.3441 11.4387 14.9494C11.3436 14.6531 11.1011 14.4002 10.79 14.4002C10.4732 14.4002 10.2082 14.6588 10.266 14.9703C10.4902 16.1791 11.4597 16.8163 12.5194 17.0466C12.7498 17.0966 12.9268 17.2924 12.9268 17.5282V17.6249ZM12.9268 11.6282C12.9268 12.1046 12.4596 12.4726 12.0399 12.2472C11.6764 12.052 11.4602 11.8019 11.4602 11.4436C11.4602 11.0469 11.7029 10.6661 12.1732 10.4445C12.5538 10.2653 12.9268 10.6165 12.9268 11.0372V11.6282ZM14.4057 16.018C14.0198 16.1612 13.6656 15.8143 13.6656 15.4027V14.7089C13.6656 14.2363 14.1253 13.8688 14.5462 14.0839C14.9556 14.293 15.1994 14.5772 15.1994 15.0267C15.1994 15.4871 14.8993 15.835 14.4057 16.018Z" fill="#FCFCFC"/>
</svg>
