<svg width="48" height="48" viewBox="0 0 48 48" fill="none" xmlns="http://www.w3.org/2000/svg">
<path d="M30.4743 13.2935C30.4614 12.9185 30.3049 12.5628 30.0371 12.3C29.7693 12.0371 29.4108 11.8872 29.0356 11.8812H27.0425C26.9109 10.0631 26.0865 8.3648 24.7393 7.13677C23.3922 5.90873 21.6251 5.24462 19.8026 5.28145C17.98 5.24462 16.2129 5.90873 14.8658 7.13677C13.5186 8.3648 12.6942 10.0631 12.5626 11.8812H10.1669C9.79175 11.8872 9.43323 12.0371 9.16546 12.3C8.89769 12.5628 8.74115 12.9185 8.72819 13.2935L5.28312 39.3559C5.27017 39.5542 5.29758 39.753 5.36369 39.9403C5.4298 40.1277 5.53324 40.2997 5.66774 40.4459C5.80224 40.5921 5.96501 40.7096 6.1462 40.791C6.32738 40.8726 6.52322 40.9164 6.72187 40.9201H21.1489L23.5116 23.2724C23.5539 22.6884 23.8156 22.142 24.244 21.7429C24.6725 21.3438 25.236 21.1216 25.8215 21.1208H31.5105L30.4743 13.2935ZM14.5228 17.821C14.2617 17.821 14.0065 17.7436 13.7894 17.5985C13.5724 17.4535 13.4032 17.2473 13.3033 17.0061C13.2034 16.7649 13.1772 16.4996 13.2282 16.2435C13.2791 15.9875 13.4048 15.7523 13.5894 15.5677C13.774 15.3831 14.0092 15.2574 14.2653 15.2064C14.5213 15.1555 14.7867 15.1816 15.0279 15.2815C15.2691 15.3814 15.4752 15.5506 15.6203 15.7677C15.7653 15.9848 15.8427 16.24 15.8427 16.501C15.8417 16.8508 15.7023 17.1859 15.455 17.4332C15.2077 17.6805 14.8725 17.8199 14.5228 17.821ZM14.5426 11.8812C14.6754 10.5899 15.2912 9.39639 16.2666 8.53973C17.2419 7.68308 18.5049 7.22649 19.8026 7.26138C21.1002 7.22649 22.3632 7.68308 23.3386 8.53973C24.3139 9.39639 24.9297 10.5899 25.0626 11.8812H14.5426ZM25.0824 17.821C24.8213 17.821 24.5661 17.7436 24.349 17.5985C24.132 17.4535 23.9628 17.2473 23.8629 17.0061C23.763 16.7649 23.7368 16.4996 23.7878 16.2435C23.8387 15.9875 23.9644 15.7523 24.149 15.5677C24.3336 15.3831 24.5688 15.2574 24.8248 15.2064C25.0809 15.1555 25.3463 15.1816 25.5875 15.2815C25.8287 15.3814 26.0348 15.5506 26.1799 15.7677C26.3249 15.9848 26.4023 16.24 26.4023 16.501C26.4013 16.8508 26.2619 17.1859 26.0146 17.4332C25.7672 17.6805 25.4321 17.8199 25.0824 17.821Z" fill="url(#paint0_linear_1640_910)"/>
<path d="M39.8592 23.4043C39.8493 23.1462 39.7401 22.902 39.5544 22.7224C39.3688 22.5429 39.1209 22.442 38.8627 22.4408H25.8216C25.5633 22.442 25.3155 22.5429 25.1298 22.7224C24.9441 22.902 24.8349 23.1462 24.825 23.4043L22.4425 41.1708C22.4349 41.3071 22.455 41.4436 22.5014 41.5719C22.5479 41.7003 22.6199 41.8179 22.7129 41.9178C22.806 42.0176 22.9183 42.0977 23.0431 42.153C23.1679 42.2084 23.3026 42.238 23.4391 42.24H41.2452C41.3817 42.238 41.5163 42.2084 41.6411 42.153C41.7659 42.0977 41.8782 42.0176 41.9713 41.9178C42.0644 41.8179 42.1363 41.7003 42.1828 41.5719C42.2292 41.4436 42.2493 41.3071 42.2417 41.1708L39.8592 23.4043ZM32.3421 31.5154C29.7946 31.5154 27.7223 29.0009 27.7223 25.9056C27.7244 25.6445 27.8297 25.3947 28.0151 25.2108C28.2005 25.0269 28.4511 24.9237 28.7123 24.9237C28.9734 24.9237 29.224 25.0269 29.4094 25.2108C29.5948 25.3947 29.7001 25.6445 29.7022 25.9056C29.7022 27.8724 30.91 29.5355 32.3421 29.5355C33.7743 29.5355 34.982 27.8724 34.982 25.9056C34.9841 25.6445 35.0894 25.3947 35.2748 25.2108C35.4602 25.0269 35.7108 24.9237 35.972 24.9237C36.2331 24.9237 36.4837 25.0269 36.6691 25.2108C36.8546 25.3947 36.9598 25.6445 36.9619 25.9056C36.9619 29.0009 34.8896 31.5154 32.3421 31.5154Z" fill="#A182ED"/>
<defs>
<linearGradient id="paint0_linear_1640_910" x1="31.5105" y1="5.28" x2="2.88133" y2="17.8704" gradientUnits="userSpaceOnUse">
<stop stop-color="#FF8950"/>
<stop offset="1" stop-color="#A182ED"/>
</linearGradient>
</defs>
</svg>
