<svg width="54" height="54" viewBox="0 0 54 54" fill="none" xmlns="http://www.w3.org/2000/svg">
<path d="M39.3156 29.5136C34.8902 29.5136 31.2897 33.114 31.2897 37.5396C31.6932 48.1724 46.9397 48.1695 47.3416 37.5395C47.3416 33.114 43.7411 29.5136 39.3156 29.5136ZM43.8364 35.9688L38.9025 40.9026C38.4076 41.3975 37.605 41.3975 37.1102 40.9026L34.7948 38.5872C34.2998 38.0923 34.2998 37.2898 34.7948 36.7948C35.2898 36.2998 36.0923 36.2999 36.5871 36.7948L38.0064 38.2141L42.0441 34.1765C42.5391 33.6815 43.3416 33.6815 43.8364 34.1765C44.3314 34.6714 44.3314 35.4739 43.8364 35.9688Z" fill="#FCFCFC"/>
<path d="M28.7561 37.3777C28.815 28.7278 39.1666 23.8441 45.839 29.2401C47.4677 26.1117 48.6 22.4898 48.6 18.7314C48.5744 7.84711 34.5181 3.51189 28.3105 12.2462C27.6587 13.1577 26.3114 13.1577 25.6596 12.246C23.6317 9.40937 20.3089 7.56004 16.5535 7.56004C10.0702 7.54275 5.4018 13.0701 5.4018 19.5754H5.40002C5.40002 33.7084 22.3795 44.0003 26.2248 46.15C26.7084 46.4204 27.296 46.4263 27.7841 46.1641C28.5175 45.7699 29.7062 45.0965 31.1199 44.1917C29.6105 42.3357 28.7172 39.9596 28.7561 37.3777Z" fill="#FCFCFC"/>
</svg>
