<svg width="56" height="56" viewBox="0 0 56 56" fill="none" xmlns="http://www.w3.org/2000/svg">
<path d="M35.5533 15.5091C35.5382 15.0716 35.3556 14.6566 35.0432 14.35C34.7308 14.0433 34.3125 13.8684 33.8748 13.8614H31.5495C31.396 11.7403 30.4342 9.75894 28.8625 8.32623C27.2908 6.89353 25.2292 6.11873 23.1029 6.1617C20.9766 6.11873 18.915 6.89353 17.3433 8.32623C15.7716 9.75894 14.8098 11.7403 14.6563 13.8614H11.8613C11.4236 13.8684 11.0053 14.0433 10.6929 14.35C10.3805 14.6567 10.1979 15.0716 10.1828 15.5091L6.16355 45.9153C6.14845 46.1465 6.18043 46.3785 6.25756 46.5971C6.33468 46.8157 6.45536 47.0163 6.61227 47.1869C6.76919 47.3575 6.95909 47.4945 7.17048 47.5896C7.38186 47.6847 7.61034 47.7359 7.84209 47.7401H24.6736L27.4301 27.1511C27.4795 26.4698 27.7847 25.8323 28.2846 25.3667C28.7844 24.9012 29.4419 24.6419 30.125 24.641H36.7622L35.5533 15.5091ZM16.9431 20.7911C16.6386 20.7911 16.3408 20.7008 16.0876 20.5316C15.8343 20.3624 15.637 20.1219 15.5204 19.8405C15.4039 19.5591 15.3734 19.2495 15.4328 18.9508C15.4922 18.652 15.6389 18.3777 15.8542 18.1623C16.0696 17.9469 16.344 17.8003 16.6427 17.7408C16.9414 17.6814 17.2511 17.7119 17.5324 17.8285C17.8138 17.945 18.0543 18.1424 18.2235 18.3956C18.3928 18.6489 18.4831 18.9466 18.4831 19.2512C18.4819 19.6592 18.3192 20.0502 18.0307 20.3388C17.7422 20.6273 17.3512 20.7899 16.9431 20.7911ZM16.9662 13.8614C17.1212 12.3548 17.8396 10.9625 18.9776 9.96303C20.1155 8.9636 21.5889 8.43091 23.1029 8.47161C24.6169 8.43091 26.0903 8.9636 27.2282 9.96303C28.3662 10.9625 29.0845 12.3548 29.2396 13.8614H16.9662ZM29.2627 20.7911C28.9581 20.7911 28.6604 20.7008 28.4071 20.5316C28.1539 20.3624 27.9565 20.1219 27.8399 19.8405C27.7234 19.5591 27.6929 19.2495 27.7523 18.9508C27.8117 18.652 27.9584 18.3777 28.1738 18.1623C28.3891 17.9469 28.6635 17.8003 28.9622 17.7408C29.2609 17.6814 29.5706 17.7119 29.852 17.8285C30.1334 17.945 30.3739 18.1424 30.5431 18.3956C30.7123 18.6489 30.8026 18.9466 30.8026 19.2512C30.8014 19.6592 30.6388 20.0502 30.3502 20.3388C30.0617 20.6273 29.6707 20.7899 29.2627 20.7911Z" fill="#FCFCFC"/>
<path d="M46.5025 27.305C46.4909 27.0039 46.3635 26.7189 46.1469 26.5095C45.9303 26.3 45.6411 26.1823 45.3398 26.1809H30.1252C29.8239 26.1823 29.5348 26.3 29.3182 26.5095C29.1015 26.7189 28.9741 27.0039 28.9626 27.305L26.183 48.0326C26.1741 48.1917 26.1975 48.3508 26.2517 48.5006C26.306 48.6503 26.3899 48.7876 26.4985 48.9041C26.6071 49.0206 26.7381 49.1139 26.8837 49.1785C27.0292 49.2431 27.1864 49.2776 27.3456 49.28H48.1194C48.2787 49.2776 48.4358 49.2431 48.5814 49.1785C48.727 49.1139 48.858 49.0206 48.9666 48.9041C49.0752 48.7876 49.1591 48.6503 49.2133 48.5006C49.2675 48.3508 49.2909 48.1917 49.2821 48.0326L46.5025 27.305ZM37.7325 36.768C34.7604 36.768 32.3427 33.8344 32.3427 30.2232C32.3452 29.9185 32.468 29.6272 32.6843 29.4126C32.9007 29.1981 33.193 29.0777 33.4977 29.0777C33.8024 29.0777 34.0947 29.1981 34.3111 29.4126C34.5274 29.6272 34.6502 29.9185 34.6526 30.2232C34.6526 32.5177 36.0617 34.4581 37.7325 34.4581C39.4034 34.4581 40.8124 32.5177 40.8124 30.2232C40.8149 29.9185 40.9377 29.6272 41.154 29.4126C41.3703 29.1981 41.6627 29.0777 41.9674 29.0777C42.2721 29.0777 42.5644 29.1981 42.7807 29.4126C42.9971 29.6272 43.1198 29.9185 43.1223 30.2232C43.1223 33.8344 40.7046 36.768 37.7325 36.768Z" fill="#FCFCFC"/>
</svg>
