<svg width="56" height="56" viewBox="0 0 56 56" fill="none" xmlns="http://www.w3.org/2000/svg">
<path fill-rule="evenodd" clip-rule="evenodd" d="M28.9412 11.7521V6.16C33.9662 6.43464 38.7464 8.41829 42.4895 11.7821L38.5358 15.7351C35.8499 13.409 32.4848 12.0121 28.9412 11.7521ZM15.1751 17.4642C12.849 20.1501 11.452 23.5152 11.1921 27.0588H5.59998C5.87415 22.0331 7.85782 17.252 11.2221 13.5084L15.1751 17.4642ZM11.1921 29.5011H5.59998C5.87415 34.5268 7.85782 39.3079 11.2221 43.0515L15.1751 39.0957C12.849 36.4098 11.452 33.0447 11.1921 29.5011ZM40.2649 39.0957C42.591 36.4098 43.9879 33.0447 44.2479 29.5011H49.84C49.5653 34.5261 47.5817 39.3063 44.2179 43.0494L40.2649 39.0957ZM40.2649 17.4642C42.591 20.1501 43.9879 23.5152 44.2479 27.0588H49.84C49.5654 22.0329 47.5813 17.2519 44.2165 13.5084L40.2649 17.4642ZM26.4988 11.7521C22.9551 12.0121 19.5901 13.409 16.9041 15.7351L12.9484 11.7821C16.692 8.41785 21.473 6.43417 26.4988 6.16V11.7521ZM38.5358 40.8249C35.8499 43.151 32.4848 44.548 28.9412 44.8079V50.4C33.9671 50.1255 38.7481 48.1413 42.4916 44.7765L38.5358 40.8249ZM16.9042 40.8249C19.5901 43.151 22.9552 44.548 26.4988 44.8079V50.4C21.4738 50.1254 16.6936 48.1417 12.9505 44.7779L16.9042 40.8249ZM27.72 14.1497C24.9253 14.1497 22.1933 14.9784 19.8696 16.5311C17.5459 18.0837 15.7348 20.2906 14.6653 22.8726C13.5958 25.4545 13.316 28.2957 13.8612 31.0367C14.4064 33.7777 15.7522 36.2954 17.7283 38.2716C19.7045 40.2478 22.2223 41.5935 24.9633 42.1388C27.7043 42.684 30.5454 42.4041 33.1274 41.3347C35.7094 40.2652 37.9162 38.4541 39.4689 36.1303C41.0215 33.8066 41.8502 31.0747 41.8502 28.28C41.846 24.5337 40.3559 20.9421 37.7069 18.293C35.0579 15.644 31.4662 14.1539 27.72 14.1497ZM34.201 31.4947C33.5251 32.1683 32.6652 32.627 31.7293 32.8132C30.7934 32.9995 29.8234 32.9049 28.9411 32.5414V35.4323H30.5111C30.835 35.4323 31.1456 35.561 31.3746 35.79C31.6036 36.019 31.7323 36.3296 31.7323 36.6535C31.7323 36.9773 31.6036 37.2879 31.3746 37.517C31.1456 37.746 30.835 37.8746 30.5111 37.8746H24.9288C24.6049 37.8746 24.2943 37.746 24.0653 37.517C23.8363 37.2879 23.7077 36.9773 23.7077 36.6535C23.7077 36.3296 23.8363 36.019 24.0653 35.79C24.2943 35.561 24.6049 35.4323 24.9288 35.4323H26.4988V32.5442C25.4657 32.971 24.3165 33.0265 23.2471 32.7011C22.1776 32.3757 21.2541 31.6896 20.6338 30.7597C20.0134 29.8298 19.7347 28.7136 19.845 27.6012C19.9554 26.4888 20.4479 25.4491 21.2389 24.6591L26.8568 19.0412C27.0859 18.8124 27.3965 18.6838 27.7203 18.6838C28.0441 18.6838 28.3547 18.8124 28.5838 19.0412L34.201 24.6591C35.1063 25.5662 35.6147 26.7954 35.6147 28.0769C35.6147 29.3584 35.1063 30.5876 34.201 31.4947ZM22.9659 26.3876L27.72 21.6335L32.474 26.3876C32.6991 26.6088 32.8782 26.8724 33.0009 27.1631C33.1236 27.4539 33.1875 27.7661 33.1889 28.0817C33.1903 28.3973 33.1291 28.71 33.009 29.0018C32.8889 29.2937 32.7122 29.5588 32.4891 29.782C32.2659 30.0052 32.0008 30.182 31.709 30.3022C31.4172 30.4223 31.1044 30.4835 30.7888 30.4822C30.4733 30.4808 30.1611 30.417 29.8703 30.2944C29.5795 30.1718 29.3159 29.9927 29.0946 29.7677L28.5838 29.2569C28.4705 29.1434 28.3359 29.0534 28.1877 28.992C28.0395 28.9305 27.8807 28.8989 27.7203 28.8989C27.5599 28.8989 27.4011 28.9305 27.2529 28.992C27.1047 29.0534 26.9701 29.1434 26.8568 29.2569L26.346 29.7677C25.8978 30.2159 25.2899 30.4677 24.656 30.4677C24.0221 30.4677 23.4141 30.2159 22.9659 29.7677C22.5177 29.3195 22.2659 28.7115 22.2659 28.0776C22.2659 27.4437 22.5177 26.8358 22.9659 26.3876Z" fill="#FCFCFC"/>
</svg>
